<?xml version="1.0" standalone="no"?>
<!DOCTYPE svg PUBLIC "-//W3C//DTD SVG 1.1//EN" "http://www.w3.org/Graphics/SVG/1.1/DTD/svg11.dtd" >
<svg xmlns="http://www.w3.org/2000/svg" xmlns:xlink="http://www.w3.org/1999/xlink" version="1.1">
<metadata>
Created by FontForge 20170731 at Mon Sep  5 17:49:47 2011
 By Aleksey,,,
Copyright (c) 2011 By Svetoslav Simov (c) Fontfabric, LLC. All rights reserved.
</metadata>
<defs>
<font id="Solomon-Sans-Thin-Italic" horiz-adv-x="634" >
  <font-face 
    font-family="Solomon Sans Thin Italic"
    font-weight="100"
    font-style="italic"
    font-stretch="normal"
    units-per-em="1000"
    panose-1="2 0 0 0 0 0 0 0 0 0"
    ascent="750"
    descent="-250"
    x-height="507"
    cap-height="700"
    bbox="-106 -202.235 1799 872"
    underline-thickness="50"
    underline-position="-200"
    unicode-range="U+0020-FB04"
  />
<missing-glyph horiz-adv-x="611" 
d="M68 0l123 699h474l-123 -699h-474zM370 366l250 313h-390zM380 350l145 -327l115 653zM95 27l259 323l-146 322zM112 21h393l-141 313z" />
    <glyph glyph-name="f_f" unicode="ff" horiz-adv-x="584" 
d="M668 701l-4 -20q-57 -1 -88 -26t-41 -82l-12 -66h106l-3 -19h-106l-86 -488h-22l86 488h-269l-86 -488h-22l86 488h-56l3 19h56l12 66q23 128 155 128l-4 -20q-57 -1 -88 -26t-41 -82l-12 -66h269l12 66q23 128 155 128z" />
    <glyph glyph-name="fi" unicode="fi" horiz-adv-x="503" 
d="M403 0h-22l86 486h-244l-86 -486h-22l86 486h-56l3 21h56l12 66q23 128 155 128l-4 -20q-57 -1 -88 -26t-41 -82l-12 -66h266zM530 700l-7 -43h-28l7 43h28z" />
    <glyph glyph-name="fl" unicode="fl" horiz-adv-x="521" 
d="M371 701l-4 -20q-57 -1 -88 -26t-41 -82l-12 -66h106l-3 -21h-106l-86 -486h-22l86 486h-56l3 21h56l12 66q23 128 155 128zM487 18l-3 -19q-54 0 -76.5 27t-11.5 89l103 585h22l-103 -585q-9 -51 7 -74t62 -23z" />
    <glyph glyph-name="f_f_i" unicode="ffi" horiz-adv-x="800" 
d="M692 0h-22l86 488h-245l-86 -488h-22l86 488h-264l-86 -488h-22l86 488h-56l3 19h56l12 66q23 128 155 128l-4 -20q-57 -1 -88 -26t-41 -82l-12 -66h264l12 66q23 128 155 128l-4 -20q-57 -1 -88 -26t-41 -82l-12 -66h267zM819 700l-9 -54h-28l9 54h28z" />
    <glyph glyph-name="f_f_l" unicode="ffl" horiz-adv-x="830" 
d="M662 701l-4 -20q-57 -1 -88 -26t-41 -82l-12 -66h106l-3 -19h-106l-86 -488h-22l86 488h-269l-86 -488h-22l86 488h-56l3 19h56l12 66q23 128 155 128l-4 -20q-57 -1 -88 -26t-41 -82l-12 -66h269l12 66q23 128 155 128zM789 18l-3 -19q-54 0 -76.5 27t-11.5 89l103 585
h22l-103 -585q-9 -51 7 -74t62 -23z" />
    <glyph glyph-name="f_j" unicode="fj" horiz-adv-x="543" 
d="M556 703l-16 -89h-21l16 89h21zM274 -201l3 20q104 0 122 105l99 564h-263l-86 -488h-22l86 488h-56l3 19h56l12 66q23 128 155 128l-4 -20q-57 -1 -88 -26t-41 -82l-12 -66h286l-103 -583q-10 -60 -48.5 -92.5t-98.5 -32.5z" />
    <glyph glyph-name=".notdef" horiz-adv-x="611" 
d="M68 0l123 699h474l-123 -699h-474zM370 366l250 313h-390zM380 350l145 -327l115 653zM95 27l259 323l-146 322zM112 21h393l-141 313z" />
    <glyph glyph-name=".null" horiz-adv-x="0" 
 />
    <glyph glyph-name="nonmarkingreturn" horiz-adv-x="333" 
 />
    <glyph glyph-name="space" unicode=" " horiz-adv-x="281" 
 />
    <glyph glyph-name="exclam" unicode="!" horiz-adv-x="319" 
d="M198 149h-21l97 551h21zM174 -2h-26l8 47h26z" />
    <glyph glyph-name="quotedbl" unicode="&#x22;" horiz-adv-x="301" 
d="M179 525l31 175h20l-31 -175h-20zM280 525l31 175h20l-31 -175h-20z" />
    <glyph glyph-name="numbersign" unicode="#" horiz-adv-x="569" 
d="M584 470l-2 -16h-97l-69 -202h95l-3 -17h-98l-79 -235h-19l80 235h-182l-79 -235h-20l80 235h-101l3 17h104l68 202h-102l2 16h105l79 231h20l-79 -231h181l79 231h19l-79 -231h94zM466 454h-181l-69 -202h182z" />
    <glyph glyph-name="dollar" unicode="$" horiz-adv-x="559" 
d="M221 545q-8 -39 1 -69t33 -48.5t45 -28.5t50 -19q27 -8 50 -20t46 -30.5t35.5 -42.5t18.5 -56.5t-5 -71.5q-12 -52 -46.5 -89.5t-76 -55t-86.5 -20.5l-14 -76h-17l14 75h-1q-61 0 -107 29.5t-64 86.5l21 11q17 -52 57.5 -78t95.5 -27q76 -1 131.5 38t70.5 108
q7 48 0.5 80.5t-30.5 57.5t-49 39t-55 23q-167 49 -140 184q16 74 72 116t123 45l16 87h17l-16 -86q108 -3 144 -90l-21 -9q-20 43 -51.5 60.5t-79.5 17.5q-63 1 -114.5 -35t-67.5 -106z" />
    <glyph glyph-name="percent" unicode="%" horiz-adv-x="782" 
d="M467 560q-10 -59 -60 -101.5t-109 -42.5q-52 0 -86 35t-34 88q0 68 52 117t119 49q59 0 93.5 -41.5t24.5 -103.5zM722 716h24q-87 -113 -277 -354.5t-289 -372.5h-25q83 108 274.5 350.5t292.5 376.5zM447 560q9 54 -19.5 90t-81.5 36q-59 0 -102.5 -43t-43.5 -102
q0 -45 28 -75.5t74 -30.5q53 0 94.5 36.5t50.5 88.5zM717 160q0 -66 -52.5 -116t-118.5 -50q-52 0 -86 35t-34 88q0 68 52 117t119 49q52 0 86 -35t34 -88zM696 158q0 46 -28.5 76t-74.5 30q-59 0 -102.5 -43t-43.5 -102q0 -45 28 -75.5t74 -30.5q59 0 103 43.5t44 101.5z
" />
    <glyph glyph-name="ampersand" unicode="&#x26;" horiz-adv-x="647" 
d="M340 382l152 -224l79 100l14 -9l-82 -105l89 -132h-22l-81 116q-64 -66 -115.5 -100t-106.5 -34q-67 0 -113 42.5t-46 110.5q0 66 52 132.5t148 110.5q-59 86 -59 148q0 79 52.5 124t120.5 45q48 0 82.5 -30.5t34.5 -85.5q0 -36 -16.5 -67.5t-49 -58t-61.5 -44t-72 -39.5
zM479 143l-160 232q-78 -33 -134 -97t-56 -129q0 -62 41.5 -98t103.5 -36q87 0 205 128zM418 687q-64 0 -105.5 -42t-41.5 -104q0 -64 59 -146q36 17 62 32t58.5 39.5t50 55.5t17.5 66q0 47 -27.5 73t-72.5 26z" />
    <glyph glyph-name="quotesingle" unicode="'" horiz-adv-x="187" 
d="M171 520l32 182h20l-32 -182h-20z" />
    <glyph glyph-name="parenleft" unicode="(" horiz-adv-x="390" 
d="M187 352q-22 -127 19 -252t132 -193l-4 -23q-82 56 -130 164t-48 228q0 158 96 309.5t238 226.5l-4 -21q-114 -68 -195.5 -191t-103.5 -248z" />
    <glyph glyph-name="parenright" unicode=")" horiz-adv-x="389" 
d="M335 426q0 108 -39.5 209.5t-112.5 155.5l4 21q79 -51 125.5 -157.5t46.5 -225.5q0 -160 -98.5 -312t-244.5 -233l4 23q136 80 225.5 226.5t89.5 292.5z" />
    <glyph glyph-name="asterisk" unicode="*" horiz-adv-x="415" 
d="M473 577l-152 -46l73 -129l-15 -10l-73 128l-114 -127l-14 9l119 129l-132 45l8 16l131 -47l26 154h17l-28 -154l152 48z" />
    <glyph glyph-name="plus" unicode="+" horiz-adv-x="608" 
d="M151 321l4 20h196l35 199h21l-35 -199h195l-4 -20h-195l-36 -206h-21l36 206h-196z" />
    <glyph glyph-name="comma" unicode="," horiz-adv-x="225" 
d="M40 -112l80 155h27l-88 -155h-19z" />
    <glyph glyph-name="hyphen" unicode="-" horiz-adv-x="458" 
d="M159 302l4 22h246l-4 -22h-246z" />
    <glyph glyph-name="period" unicode="." horiz-adv-x="225" 
d="M133 0h-34l8 45h34z" />
    <glyph glyph-name="slash" unicode="/" horiz-adv-x="404" 
d="M503 766l-427 -820h-22l428 820h21z" />
    <glyph glyph-name="zero" unicode="0" horiz-adv-x="610" 
d="M209 520l-60 -338q-13 -79 35.5 -123.5t124.5 -44.5q75 0 139.5 44.5t77.5 123.5l60 338q13 78 -37.5 123t-125.5 44q-74 -1 -137.5 -45.5t-76.5 -121.5zM128 182l60 338q15 85 85 135.5t153 51.5q86 2 141.5 -48.5t39.5 -138.5l-60 -338q-14 -86 -85 -137.5t-157 -51.5
q-87 -2 -140.5 50t-36.5 139z" />
    <glyph glyph-name="one" unicode="1" horiz-adv-x="310" 
d="M276 685h-78l3 20h99l-124 -705h-21z" />
    <glyph glyph-name="two" unicode="2" horiz-adv-x="569" 
d="M407 684q-113 4 -188 -99q-2 1 -6 4t-7 5l-2 1q75 109 205 109q78 0 119.5 -42.5t41.5 -105.5q0 -98 -101 -190l-361 -347h391l-4 -19h-399l-12 21q57 54 184 178t191 184q89 83 89 172q0 56 -35.5 92.5t-105.5 36.5z" />
    <glyph glyph-name="three" unicode="3" horiz-adv-x="559" 
d="M95 104l18 11q42 -100 158 -100q48 0 96 23t83 72t35 112t-40 106t-98 43h-47l4 20h47q70 0 123 46t53 122q0 61 -40.5 94.5t-99.5 33.5q-44 0 -90.5 -21t-76.5 -57l-13 10q33 43 83 65.5t101 22.5q65 0 111 -38.5t46 -107.5q0 -53 -34.5 -106t-107.5 -75
q62 -22 85.5 -74.5t12.5 -110.5q-16 -89 -87.5 -145t-149.5 -56q-126 0 -172 110z" />
    <glyph glyph-name="four" unicode="4" horiz-adv-x="542" 
d="M538 701l-90 -514h62l-4 -20h-62l-29 -167h-21l29 167h-331l-10 21l421 513h35zM427 187l88 499l-411 -499h323z" />
    <glyph glyph-name="five" unicode="5" horiz-adv-x="582" 
d="M103 97l17 13q24 -46 68.5 -71t98.5 -25q107 0 174 74t67 166q0 68 -43 117.5t-123 49.5q-87 0 -178 -47h-6l103 326h303l-3 -20h-286l-88 -275q76 37 161 37q87 -1 134.5 -56t47.5 -130q0 -105 -75 -183.5t-193 -78.5q-56 0 -106 27.5t-73 75.5z" />
    <glyph glyph-name="six" unicode="6" horiz-adv-x="589" 
d="M480 700l-248 -308q64 48 138 48q90 0 136 -55t46 -131q0 -97 -74 -178t-187 -81q-87 0 -133.5 55t-46.5 134q0 86 65 167q35 43 131.5 164t148.5 185h24zM366 421q-89 0 -160.5 -70.5t-71.5 -161.5q0 -71 41.5 -123t119.5 -52q100 0 167 75t67 160q0 68 -42.5 120
t-120.5 52z" />
    <glyph glyph-name="seven" unicode="7" horiz-adv-x="491" 
d="M550 679h-382l3 21h394l10 -18l-467 -682h-25z" />
    <glyph glyph-name="eight" unicode="8" horiz-adv-x="587" 
d="M289 -10q-71 0 -121 45.5t-50 123.5q0 68 50 134t131 85q-46 19 -69 56t-23 80q0 88 65 141.5t144 53.5q61 0 104 -38t43 -105q0 -55 -39 -110.5t-108 -76.5q71 -22 98 -75.5t16 -113.5q-16 -89 -88.5 -144.5t-152.5 -55.5zM412 689q-78 0 -130.5 -52.5t-52.5 -116.5
q0 -52 34.5 -92.5t95.5 -40.5q77 0 129.5 55.5t52.5 117.5q0 54 -33.5 91.5t-95.5 37.5zM356 369q-91 0 -154 -66t-63 -141q0 -63 40 -108t114 -44q95 1 157 64t62 141q0 62 -41 108t-115 46z" />
    <glyph glyph-name="nine" unicode="9" horiz-adv-x="605" 
d="M229 0l247 309q-64 -48 -137 -48q-90 0 -136 55t-46 131q0 97 73.5 178t186.5 81q87 0 134 -55t47 -134q0 -87 -64 -167q-46 -57 -140.5 -175t-140.5 -175h-24zM342 280q89 0 161 70.5t72 161.5q0 71 -41.5 123t-119.5 52q-100 0 -167 -75t-67 -160q0 -68 42 -120
t120 -52z" />
    <glyph glyph-name="colon" unicode=":" horiz-adv-x="294" 
d="M165 0h-34l8 45h34zM244 447h-34l8 45h34z" />
    <glyph glyph-name="semicolon" unicode=";" horiz-adv-x="303" 
d="M244 447h-34l8 45h34zM62 -112l80 155h27l-88 -155h-19z" />
    <glyph glyph-name="less" unicode="&#x3c;" horiz-adv-x="505" 
d="M511 490l-5 -25l-374 -179l312 -175l-5 -25l-332 190l3 19z" />
    <glyph glyph-name="equal" unicode="=" horiz-adv-x="628" 
d="M145 169l4 20h397l-4 -20h-397zM180 365l3 20h397l-3 -20h-397z" />
    <glyph glyph-name="greater" unicode="&#x3e;" horiz-adv-x="504" 
d="M156 465l4 25l332 -195l-3 -19l-400 -190l4 25l374 174z" />
    <glyph glyph-name="question" unicode="?" horiz-adv-x="513" 
d="M190 624l-13 13q69 69 174 69q79 0 131.5 -55.5t36.5 -141.5q-15 -82 -79 -136t-160 -68q-25 -140 -33 -179h-19l34 196q97 9 168 65t71 148q0 69 -45.5 110t-107.5 41q-96 0 -158 -62zM230 -1h-25l8 48h25z" />
    <glyph glyph-name="at" unicode="@" horiz-adv-x="800" 
d="M736 442l3 -5q-32 52 -91 81t-130 29q-72 0 -139 -28.5t-115.5 -75t-82 -105.5t-45.5 -121q-14 -59 -4.5 -114t35 -97t81 -67.5t133.5 -25.5q49 0 97 19l3 -18q-51 -19 -103 -19q-82 0 -141 26.5t-87.5 71t-39 103t4.5 121.5q26 138 140 244.5t265 106.5q117 0 189 -65.5
t72 -168.5q0 -70 -36 -142t-95.5 -117t-119.5 -38q-51 6 -30 71h-3q-27 -33 -67 -53.5t-78 -18.5q-39 2 -65.5 35t-26.5 82q0 100 70 181t176 81q18 0 37 -5.5t37 -28t15 -58.5l32 60h21l-117 -240q-17 -34 -17 -52q0 -34 39 -34q50 0 99 43t79 107.5t30 127.5q0 66 -25 107
zM281 156q0 -40 21.5 -69t57.5 -29q76 0 141 76q43 74 75 156q8 49 -12 76.5t-66 27.5q-51 1 -93.5 -23t-68.5 -60.5t-40.5 -77t-14.5 -77.5z" />
    <glyph glyph-name="A" unicode="A" horiz-adv-x="631" 
d="M42 0l378 703h40l132 -703h-24l-47 248h-323l-132 -248h-24zM443 684h-12l-222 -415h309z" />
    <glyph glyph-name="B" unicode="B" horiz-adv-x="609" 
d="M219 385h160q82 0 134.5 52.5t52.5 113.5q0 52 -35 91.5t-100 39.5h-160zM375 365h-160l-60 -344h160q100 0 161 57.5t61 131.5q0 60 -42 107.5t-120 47.5zM585 531q-7 -43 -44 -90.5t-106 -65.5q50 -12 80.5 -46.5t38.5 -70.5t1 -69q-15 -85 -84 -137t-161 -52h-181
l124 703h182q77 0 120 -49.5t30 -122.5z" />
    <glyph glyph-name="C" unicode="C" horiz-adv-x="729" 
d="M752 607l-15 -14q-37 46 -83.5 69.5t-122.5 23.5q-164 0 -278.5 -112t-114.5 -281q0 -121 74 -200t201 -79q145 0 257 111l13 -13q-121 -119 -274 -119q-137 0 -215 84.5t-78 212.5q0 106 51 200.5t148.5 155t219.5 60.5q142 0 217 -99z" />
    <glyph glyph-name="D" unicode="D" horiz-adv-x="725" 
d="M253 703h189q134 0 204.5 -85.5t70.5 -208.5q0 -74 -28 -146.5t-77.5 -131t-126.5 -95t-168 -36.5h-188zM155 21h165q113 0 201 58.5t131.5 145.5t43.5 181q0 116 -66 196t-192 80h-167z" />
    <glyph glyph-name="E" unicode="E" horiz-adv-x="527" 
d="M572 700l-3 -21h-320l-54 -305h316l-4 -20h-317l-58 -333h321l-4 -21h-343l123 700h343z" />
    <glyph glyph-name="F" unicode="F" horiz-adv-x="518" 
d="M573 700l-3 -20h-310l-55 -313h306l-4 -20h-306l-61 -347h-21l123 700h331z" />
    <glyph glyph-name="G" unicode="G" horiz-adv-x="821" 
d="M536 705q160 0 241 -106l-17 -13q-75 99 -228 99q-106 0 -196 -56t-140 -144t-50 -183q0 -117 72 -201t196 -84q115 0 217 74.5t136 202.5h-325l4 20h349q-34 -138 -140 -228t-244 -90q-103 0 -174 52t-97 131.5t-11 169.5q12 68 47.5 132t87 114t123 80t149.5 30z" />
    <glyph glyph-name="H" unicode="H" horiz-adv-x="675" 
d="M529 0l62 352h-385l-62 -352h-22l123 700h22l-57 -327h385l57 327h22l-123 -700h-22z" />
    <glyph glyph-name="I" unicode="I" horiz-adv-x="281" 
d="M130 0l123 700h22l-123 -700h-22z" />
    <glyph glyph-name="J" unicode="J" horiz-adv-x="545" 
d="M79 140l20 6q17 -131 151 -131q64 0 120.5 45t69.5 120l88 500h-157l4 20h179l-92 -520q-15 -86 -79 -136t-137 -50q-72 0 -115 33t-52 113z" />
    <glyph glyph-name="K" unicode="K" horiz-adv-x="630" 
d="M275 700l-70 -401l447 401h27l-339 -307l230 -393h-25l-222 378l-123 -106l-48 -272h-22l123 700h22z" />
    <glyph glyph-name="L" unicode="L" horiz-adv-x="478" 
d="M451 20l-4 -20h-317l123 700h22l-119 -680h295z" />
    <glyph glyph-name="M" unicode="M" horiz-adv-x="831" 
d="M802 685l-359 -570h-30l-157 570h-1l-121 -685h-22l123 700h40l157 -566l355 566h40l-123 -700h-22l121 685h-1z" />
    <glyph glyph-name="N" unicode="N" horiz-adv-x="729" 
d="M581 12h2l121 688h22l-123 -701h-41l-287 688h-2l-121 -687h-22l124 701h40z" />
    <glyph glyph-name="O" unicode="O" horiz-adv-x="849" 
d="M549 711q135 -1 215.5 -86.5t80.5 -217.5q0 -101 -40 -183.5t-103 -132t-136 -76.5t-145 -27q-120 0 -207.5 78t-87.5 220q0 122 60 220.5t156 151.5t207 53zM545 691q-161 0 -279 -114t-118 -287q0 -133 82 -207.5t195 -74.5q54 0 109 15.5t107 48t92.5 78.5t65 112
t24.5 143q0 124 -75.5 205t-202.5 81z" />
    <glyph glyph-name="P" unicode="P" horiz-adv-x="583" 
d="M202 286l-50 -286h-22l123 700h181q86 -2 131 -53t45 -124q0 -91 -67.5 -163.5t-180.5 -73.5h-160zM206 306h159q102 2 162 66t60 146q0 65 -40 111.5t-116 49.5h-159z" />
    <glyph glyph-name="Q" unicode="Q" horiz-adv-x="848" 
d="M567 206l16 13l88 -106q145 128 145 292q0 69 -24.5 125t-65 90t-89 51.5t-100.5 17.5q-66 0 -134 -25.5t-128.5 -73t-98.5 -126t-38 -174.5q0 -69 25 -124t66 -87t89.5 -48.5t101.5 -16.5q67 0 119 17.5t117 67.5zM683 99l70 -88l-16 -13l-71 87q-117 -91 -250 -91
q-126 0 -212.5 79t-86.5 216q0 73 24.5 140t66.5 117t96 87.5t114.5 56.5t121.5 19q125 0 211 -84t86 -220q0 -169 -154 -306z" />
    <glyph glyph-name="R" unicode="R" horiz-adv-x="616" 
d="M353 310l189 -310h-26l-190 309h-120l-54 -309h-22l123 700h194q83 0 131.5 -42t48.5 -117q0 -102 -63 -166.5t-187 -64.5h-24zM210 330h167q112 0 170.5 55.5t58.5 154.5q0 68 -44 104t-119 36h-171z" />
    <glyph glyph-name="S" unicode="S" horiz-adv-x="560" 
d="M221 545q-8 -39 1 -69t33 -48.5t45 -28.5t50 -19q27 -8 50 -20t46 -30.5t35.5 -42.5t18.5 -56.5t-5 -71.5q-18 -82 -84.5 -124t-142.5 -42q-61 0 -107 29.5t-64 86.5l21 11q17 -52 57.5 -78t95.5 -27q76 -1 131.5 38t70.5 108q7 48 0.5 80.5t-30.5 57.5t-49 39t-55 23
q-167 49 -140 184q16 77 76 119.5t131 42.5q111 0 149 -90l-21 -9q-20 43 -51.5 60.5t-79.5 17.5q-63 1 -114.5 -35t-67.5 -106z" />
    <glyph glyph-name="T" unicode="T" horiz-adv-x="451" 
d="M149 700h401l-4 -21h-189l-120 -679h-22l120 679h-190z" />
    <glyph glyph-name="U" unicode="U" horiz-adv-x="653" 
d="M243 700h22l-91 -516q-13 -80 33 -125t120 -46q75 -1 138.5 44.5t79.5 126.5l91 516h22l-91 -516q-16 -91 -87 -141.5t-156 -49.5q-84 1 -136 51t-36 140z" />
    <glyph glyph-name="V" unicode="V" horiz-adv-x="627" 
d="M317 13h3l364 687h23l-374 -702h-36l-131 702h23z" />
    <glyph glyph-name="W" unicode="W" horiz-adv-x="950" 
d="M289 11l273 563h34l75 -563h2l318 689h22l-325 -701h-37l-75 560l-273 -560h-37l-77 701h22l76 -689h2z" />
    <glyph glyph-name="X" unicode="X" horiz-adv-x="643" 
d="M702 700l-301 -351l181 -349h-24l-172 333l-292 -333h-23l306 350l-176 351h24l167 -335l285 334h25z" />
    <glyph glyph-name="Y" unicode="Y" horiz-adv-x="567" 
d="M654 700l-310 -417l-49 -283h-21l50 284l-162 416h25l151 -397l292 397h24z" />
    <glyph glyph-name="Z" unicode="Z" horiz-adv-x="568" 
d="M596 679h-375l3 21h401l-3 -19l-528 -660h417l-4 -21h-442l4 20z" />
    <glyph glyph-name="bracketleft" unicode="[" horiz-adv-x="311" 
d="M403 772l-3 -20h-112l-141 -801h108l-4 -20h-129l148 841h133z" />
    <glyph glyph-name="backslash" unicode="\" horiz-adv-x="400" 
d="M308 -56l-137 828h22l137 -828h-22z" />
    <glyph glyph-name="bracketright" unicode="]" horiz-adv-x="312" 
d="M183 752l3 20h133l-148 -841h-129l4 20h108l141 801h-112z" />
    <glyph glyph-name="asciicircum" unicode="^" horiz-adv-x="609" 
d="M168 324l252 376h16l121 -376h-22l-111 352l-234 -352h-22z" />
    <glyph glyph-name="underscore" unicode="_" horiz-adv-x="547" 
d="M51 -9h459l-4 -21h-459z" />
    <glyph glyph-name="grave" unicode="`" horiz-adv-x="468" 
d="M383 752l-49 99h30l40 -99h-21z" />
    <glyph glyph-name="a" unicode="a" horiz-adv-x="574" 
d="M476 0h-19l13 83q-32 -46 -82 -67.5t-103 -21.5q-93 0 -136.5 57.5t-43.5 143.5q0 134 87.5 226t221.5 92q75 0 148 -26zM411 492q-115 0 -199.5 -81.5t-84.5 -209.5q0 -81 38 -133.5t124 -52.5q52 -2 102 24t84 73l63 359q-61 21 -127 21z" />
    <glyph glyph-name="b" unicode="b" horiz-adv-x="591" 
d="M375 509q95 -1 144 -62.5t49 -151.5q0 -130 -87.5 -217.5t-220.5 -87.5q-75 0 -148 26l121 685h22l-46 -257q72 65 166 65zM263 12q115 0 199 78t85 200q1 80 -41 136t-122 62q-101 4 -180 -71l-68 -386q56 -19 127 -19z" />
    <glyph glyph-name="c" unicode="c" horiz-adv-x="534" 
d="M396 497q-47 0 -95 -17.5t-90 -51t-68 -90.5t-26 -127q0 -86 52 -142t141 -56q94 0 171 57l9 -15q-80 -61 -183 -61q-98 0 -155 62.5t-57 154.5q0 127 87 216t218 89q99 0 157 -62l-15 -14q-51 57 -146 57z" />
    <glyph glyph-name="d" unicode="d" horiz-adv-x="587" 
d="M391 509q41 0 80 -16.5t63 -48.5l45 257h22l-120 -685q-83 -26 -158 -26q-101 0 -158.5 60t-57.5 156q0 116 79 209t205 94zM328 12q66 0 135 21l67 384q-52 75 -155 71q-74 -6 -132 -49.5t-86.5 -104t-28.5 -124.5q0 -94 55 -146t145 -52z" />
    <glyph glyph-name="e" unicode="e" horiz-adv-x="611" 
d="M309 14q112 0 188 72l12 -14q-51 -44 -96.5 -61t-106.5 -17q-111 0 -164.5 79t-34.5 190q18 109 98.5 179.5t191.5 71.5q106 1 164.5 -76t28.5 -183h-463q-14 -106 36 -173.5t146 -67.5zM130 274h445q18 103 -38 160.5t-144 59.5q-93 -1 -167 -60.5t-96 -159.5z" />
    <glyph glyph-name="f" unicode="f" horiz-adv-x="303" 
d="M402 701l-3 -20q-60 8 -101.5 -20t-51.5 -88l-12 -66h132l-3 -18h-132l-86 -489h-22l86 489h-92l3 18h92l12 66q13 71 63 103t115 25z" />
    <glyph glyph-name="g" unicode="g" horiz-adv-x="589" 
d="M114 249q14 123 101.5 193t204.5 70q73 0 146 -25l-89 -503q-16 -90 -75 -137t-138 -49q-59 -1 -97 13.5t-77 53.5l16 16q58 -64 160 -62q69 1 122.5 43t67.5 122l14 77q-43 -42 -80 -54t-87 -12q-108 1 -154 73t-35 181zM543 472q-53 19 -125 19q-122 0 -202.5 -73.5
t-84.5 -207.5q-2 -84 43 -139t134 -57q49 0 87 16.5t80 57.5z" />
    <glyph glyph-name="h" unicode="h" horiz-adv-x="606" 
d="M380 509q93 -4 143 -61t33 -154l-52 -294h-22l52 294q11 58 -7 103t-55.5 66t-83.5 25.5t-96 -14.5t-88 -57l-74 -417h-21l123 700h22l-45 -256q80 69 171 65z" />
    <glyph glyph-name="i" unicode="i" horiz-adv-x="241" 
d="M131 0h-22l90 508h22zM255 700l-14 -84h-23l14 84h23z" />
    <glyph glyph-name="j" unicode="j" horiz-adv-x="241" 
d="M-43 -201l3 19q118 0 136 106l103 583h22l-103 -583q-12 -64 -55 -95.5t-106 -29.5zM256 700l-15 -84h-23l15 84h23z" />
    <glyph glyph-name="k" unicode="k" horiz-adv-x="518" 
d="M230 700h21l-83 -475l335 282h31l-252 -211q29 -47 90 -148t90 -148h-23l-172 282l-104 -82l-35 -200h-21z" />
    <glyph glyph-name="l" unicode="l" horiz-adv-x="272" 
d="M214 18l-3 -19q-54 0 -76.5 27t-11.5 89l103 585h22l-103 -585q-9 -51 7 -74t62 -23z" />
    <glyph glyph-name="m" unicode="m" horiz-adv-x="923" 
d="M195 490q52 16 104 22t105.5 0.5t88.5 -37t39 -87.5q20 48 58 78t70 38.5t66 8.5q83 0 126 -47.5t24 -153.5l-55 -312h-22l55 312q33 181 -131 181q-74 0 -125.5 -43t-68.5 -136l-55 -314h-22l55 314q12 68 -8.5 111.5t-65 58.5t-100.5 12t-120 -23l-83 -473h-21z" />
    <glyph glyph-name="n" unicode="n" horiz-adv-x="616" 
d="M196 490q88 27 163 27q103 0 162 -56.5t44 -160.5l-53 -300h-22l53 300q16 91 -39.5 143.5t-150.5 52.5q-67 0 -138 -22l-84 -474h-21z" />
    <glyph glyph-name="o" unicode="o" 
d="M125 252q-20 -115 41 -178.5t150 -63.5q47 0 93 16.5t87.5 49t69 89t31.5 128.5q4 66 -26 113.5t-75 68t-95 20.5q-56 0 -111.5 -24.5t-103 -82t-61.5 -136.5zM612 252q-18 -123 -104 -192t-195 -69q-93 0 -155.5 60t-57.5 158q7 137 96 220.5t208 83.5
q106 0 167.5 -72.5t40.5 -188.5z" />
    <glyph glyph-name="p" unicode="p" horiz-adv-x="590" 
d="M284 -6q-41 0 -80 16.5t-63 48.5l-45 -257h-22l121 685q83 26 157 26q101 0 158.5 -60t57.5 -156q0 -116 -79 -209t-205 -94zM347 491q-66 0 -134 -21l-68 -384q53 -75 156 -71q110 9 178 93t68 185q0 91 -56 144.5t-144 53.5z" />
    <glyph glyph-name="q" unicode="q" horiz-adv-x="584" 
d="M297 -6q-95 1 -144 62.5t-49 151.5q0 128 87.5 216.5t220.5 88.5q75 0 148 -26l-121 -685h-22l46 257q-72 -65 -166 -65zM409 491q-115 0 -199 -77.5t-84 -200.5q0 -79 41.5 -135.5t120.5 -62.5q101 -4 181 71l67 384q-60 21 -127 21z" />
    <glyph glyph-name="r" unicode="r" horiz-adv-x="404" 
d="M191 507h19l-16 -100q30 53 80.5 79.5t101.5 24t88 -29.5l-12 -16q-34 24 -78 25.5t-83 -16t-69.5 -55.5t-39.5 -87l-59 -332h-21z" />
    <glyph glyph-name="s" unicode="s" horiz-adv-x="439" 
d="M270 269q55 -11 89 -41t33 -78q-1 -74 -54 -115.5t-124 -41.5q-97 0 -135 65l15 14q39 -59 123 -59q54 0 98 30.5t55 87.5q8 52 -24.5 81t-83.5 38q-54 9 -84 41.5t-25 89.5q6 60 57 96t113 36q64 0 104 -39l-12 -14q-23 19 -42.5 26.5t-50.5 7.5q-61 0 -105.5 -35
t-44.5 -95q0 -42 29 -65t69 -30z" />
    <glyph glyph-name="t" unicode="t" horiz-adv-x="320" 
d="M260 17l-4 -18q-64 -7 -93.5 26t-18.5 98l65 367h-98l3 17h98l22 122l22 7l-23 -129h115l-3 -17h-115l-65 -367q-9 -53 13.5 -81.5t81.5 -24.5z" />
    <glyph glyph-name="u" unicode="u" horiz-adv-x="612" 
d="M506 17q-88 -27 -163 -27q-103 0 -162 56.5t-43 160.5l52 300h23l-53 -300q-16 -91 39 -143.5t150 -52.5q68 0 139 22l83 474h21z" />
    <glyph glyph-name="v" unicode="v" horiz-adv-x="478" 
d="M156 507l85 -498h1l257 498h23l-265 -509h-35l-89 509h23z" />
    <glyph glyph-name="w" unicode="w" horiz-adv-x="715" 
d="M220 11l212 497h32l38 -497h2l230 496h21l-236 -509h-39l-34 492h-2l-208 -492h-39l-56 509h21l56 -496h2z" />
    <glyph glyph-name="x" unicode="x" horiz-adv-x="512" 
d="M302 269l208 238h24l-222 -253l137 -254h-25l-127 239l-210 -239h-24l225 254l-135 253h25z" />
    <glyph glyph-name="y" unicode="y" horiz-adv-x="503" 
d="M70 -202l3 18q38 -2 59 10t43 49l69 122l-118 510h23l111 -484l273 484h22l-361 -637q-24 -44 -51 -59t-68 -13h-5z" />
    <glyph glyph-name="z" unicode="z" horiz-adv-x="457" 
d="M447 487h-283l3 20h307l-3 -21l-382 -465h310l-4 -21h-332l4 23z" />
    <glyph glyph-name="braceleft" unicode="{" horiz-adv-x="312" 
d="M160 349l-1 -1q68 -33 47 -150l-30 -170q-8 -43 8 -60t55 -18l-3 -17q-96 0 -80 93l30 170q20 111 -45 138l5 30q73 24 94 142l31 175q17 91 95 91h18l-3 -16q-38 2 -60 -13.5t-30 -61.5l-31 -176q-21 -122 -100 -156z" />
    <glyph glyph-name="bar" unicode="|" horiz-adv-x="285" 
d="M103 -149l157 893h20l-157 -893h-20z" />
    <glyph glyph-name="braceright" unicode="}" horiz-adv-x="312" 
d="M268 348v1q-66 34 -45 156l31 176q8 46 -8.5 61.5t-55.5 13.5l3 16h18q80 0 63 -91l-31 -175q-21 -118 44 -142l-5 -30q-74 -26 -94 -138l-30 -170q-16 -93 -113 -93l3 17q39 1 61 18t30 60l30 170q21 117 99 150z" />
    <glyph glyph-name="asciitilde" unicode="~" horiz-adv-x="575" 
d="M542 354l13 -9q-90 -117 -218 -39q-50 35 -96.5 29.5t-99.5 -62.5l-11 9q36 45 75.5 61.5t73.5 9.5t73 -31q35 -21 64.5 -27.5t62 7.5t63.5 52z" />
    <glyph glyph-name="uni00A0" unicode="&#xa0;" horiz-adv-x="257" 
 />
    <glyph glyph-name="exclamdown" unicode="&#xa1;" horiz-adv-x="291" 
d="M195 354h21l-97 -551h-21zM219 505h26l-9 -47h-26z" />
    <glyph glyph-name="cent" unicode="&#xa2;" horiz-adv-x="552" 
d="M307 -1l17 98q-88 8 -136 70.5t-48 145.5q0 106 79 193.5t196 99.5l16 93h18l-16 -93q88 -5 134 -54l-14 -15q-44 47 -131 47t-162 -65.5t-94 -168.5q-16 -90 33.5 -162t139.5 -70q45 1 81.5 12t77.5 42l10 -12q-66 -61 -166 -63l-17 -98h-18z" />
    <glyph glyph-name="sterling" unicode="&#xa3;" horiz-adv-x="592" 
d="M607 572l-20 -3q-13 113 -141 113q-67 0 -120 -41t-68 -125l-28 -161h224l-4 -19h-224l-56 -317h353l-3 -19h-435l3 19h61l56 317h-59l4 19h59l28 161q16 90 76.5 138t134.5 48q144 0 159 -130z" />
    <glyph glyph-name="currency" unicode="&#xa4;" horiz-adv-x="833" 
 />
    <glyph glyph-name="yen" unicode="&#xa5;" horiz-adv-x="591" 
d="M164 219l3 18h165l8 47l-30 73h-122l4 18h112q-41 107 -125 325h26l150 -398q50 70 151.5 207t140.5 191h26l-242 -325h111l-4 -18h-121l-56 -74l-8 -46h164l-3 -18h-164l-39 -219h-21l39 219h-165z" />
    <glyph glyph-name="brokenbar" unicode="&#xa6;" horiz-adv-x="268" 
d="M98 -143l69 390h23l-69 -390h-23zM283 776l-70 -395h-23l70 395h23z" />
    <glyph glyph-name="section" unicode="&#xa7;" horiz-adv-x="456" 
d="M275 261q24 -4 67 -23q87 44 87 111q0 23 -10.5 40t-30.5 27t-37 15.5t-43 10.5q-39 9 -52 13q-77 -35 -87 -96q-4 -25 4 -43.5t28 -29t35 -15.5t39 -10zM240 465q-40 26 -40 84q0 65 53.5 110.5t119.5 45.5q69 0 110 -38l-12 -15q-35 32 -103 34q-50 1 -94 -34.5
t-52 -85.5q-16 -88 103 -107q125 -21 125 -106q0 -81 -89 -124q39 -35 39 -79q0 -71 -59.5 -111.5t-124.5 -40.5q-84 0 -126 60l17 13q41 -51 113 -51q52 0 100 30t56 80q15 87 -112 112q-51 8 -84.5 33.5t-33.5 68.5q0 33 23.5 67t70.5 54z" />
    <glyph glyph-name="dieresis" unicode="&#xa8;" horiz-adv-x="509" 
d="M327 790h-34l7 37h34zM500 790h-34l7 37h34z" />
    <glyph glyph-name="copyright" unicode="&#xa9;" horiz-adv-x="821" 
d="M131 350q26 149 141.5 248t254.5 99q123 0 202.5 -82.5t79.5 -210.5q0 -83 -34.5 -158.5t-90.5 -128.5t-130 -84.5t-150 -31.5q-138 0 -219 100t-54 249zM447 194q52 0 111 36l9 -15q-61 -42 -123 -42q-44 0 -79 22t-51 60q-16 40 -7.5 93t37.5 94q62 87 162 87
q65 0 102 -36l-13 -15q-39 30 -92 30q-86 0 -139 -73q-29 -41 -37 -89t9 -88q30 -64 111 -64zM153 350q-25 -142 49.5 -235t205.5 -93q97 0 184 49t141 137.5t54 194.5q0 120 -74 196.5t-190 76.5q-131 0 -238 -92t-132 -234z" />
    <glyph glyph-name="ordfeminine" unicode="&#xaa;" horiz-adv-x="477" 
d="M426 356l7 40q-40 -37 -87 -46t-84.5 7.5t-63 53.5t-25.5 85q0 79 63 141t140 64q73 3 127 -20l-57 -325h-20zM437 259l-4 -20h-297l4 20h297zM438 425l43 243q-50 18 -109 14q-73 -5 -125.5 -59t-52.5 -124q0 -43 24 -77t59.5 -48t80 -2t80.5 53z" />
    <glyph glyph-name="guillemotleft" unicode="&#xab;" horiz-adv-x="505" 
d="M253 89l-121 193l190 196h27l-192 -196l123 -193h-27zM418 89l-121 193l190 196h27l-192 -196l123 -193h-27z" />
    <glyph glyph-name="logicalnot" unicode="&#xac;" horiz-adv-x="624" 
d="M142 382l4 20h439l-42 -235h-20l38 215h-419z" />
    <glyph glyph-name="uni00AD" unicode="&#xad;" horiz-adv-x="441" 
d="M129 285l4 20h279l-4 -20h-279z" />
    <glyph glyph-name="registered" unicode="&#xae;" horiz-adv-x="831" 
d="M472 326l96 -152h-26l-92 151h-59l-26 -151h-20l63 357h112q44 0 72 -23.5t28 -63.5q0 -47 -41 -84t-107 -34zM424 512l-30 -169h92q55 1 84.5 31.5t29.5 69.5q0 30 -21 49t-63 19h-92zM140 350q26 149 142 248.5t255 99.5q123 0 203 -82.5t80 -210.5
q0 -111 -58.5 -205.5t-151.5 -147t-196 -52.5q-139 0 -220 100t-54 250zM161 350q-25 -143 50 -236.5t207 -93.5q98 0 185 49.5t141.5 138.5t54.5 195q0 121 -74.5 198t-190.5 77q-132 0 -240 -92.5t-133 -235.5z" />
    <glyph glyph-name="macron" unicode="&#xaf;" horiz-adv-x="509" 
d="M271 766l3 19h241l-3 -19h-241z" />
    <glyph glyph-name="degree" unicode="&#xb0;" horiz-adv-x="392" 
d="M278 496q-38 0 -63 26t-25 64q0 48 38 84t87 36q39 0 64 -26t25 -64q0 -48 -38 -84t-88 -36zM281 513q40 0 72 30.5t32 68.5q0 31 -21 53.5t-52 22.5q-40 0 -72 -30.5t-32 -68.5q0 -31 21 -53.5t52 -22.5z" />
    <glyph glyph-name="plusminus" unicode="&#xb1;" horiz-adv-x="631" 
d="M105 27h425l-3 -19h-425zM166 369l3 20h198l35 199h21l-35 -199h198l-3 -20h-198l-37 -206h-21l37 206h-198z" />
    <glyph glyph-name="twosuperior" unicode="&#xb2;" horiz-adv-x="405" 
d="M387 545l-225 -185h250l-4 -21h-269l-8 20q68 55 123 101t80 66.5t43 34.5q43 35 52.5 74.5t-15 67.5t-73.5 32q-74 3 -128 -54l-14 12q61 66 147 62q56 -2 86 -36.5t18.5 -83.5t-63.5 -90z" />
    <glyph glyph-name="threesuperior" unicode="&#xb3;" horiz-adv-x="416" 
d="M421 424q-11 -56 -59.5 -89t-104.5 -33q-81 0 -120 73l17 11q34 -63 109 -63q51 0 95 33t44 85q0 39 -27.5 62.5t-67.5 23.5h-37l3 19h37q46 0 80 25t34 71q0 37 -26.5 59t-64.5 22q-63 0 -108 -49l-12 11q54 58 123 58q45 0 77.5 -27t32.5 -71q0 -38 -27 -69.5
t-60 -38.5l-1 -1q37 -12 53.5 -45.5t9.5 -66.5z" />
    <glyph glyph-name="acute" unicode="&#xb4;" horiz-adv-x="485" 
d="M441 851l-83 -99h-21l74 99h30z" />
    <glyph glyph-name="mu" unicode="&#xb5;" horiz-adv-x="551" 
d="M537 507l-89 -508h-22l24 132q-36 -59 -89 -82t-92 -23q-19 0 -41.5 5.5t-48.5 27t-31 56.5l-55 -313h-20l124 705h22l-54 -310q-11 -62 15 -106t92 -44q67 0 123.5 49.5t72.5 137.5l48 273h21z" />
    <glyph glyph-name="mu" unicode="&#x3bc;" horiz-adv-x="551" 
d="M537 507l-89 -508h-22l24 132q-36 -59 -89 -82t-92 -23q-19 0 -41.5 5.5t-48.5 27t-31 56.5l-55 -313h-20l124 705h22l-54 -310q-11 -62 15 -106t92 -44q67 0 123.5 49.5t72.5 137.5l48 273h21z" />
    <glyph glyph-name="paragraph" unicode="&#xb6;" horiz-adv-x="566" 
d="M248 -111l76 432q-86 4 -131.5 50.5t-45.5 111.5q0 83 67 150t177 67h194l-143 -811h-20l139 792h-154l-139 -792h-20z" />
    <glyph glyph-name="periodcentered" unicode="&#xb7;" horiz-adv-x="270" 
d="M165 279l5 29h28l-5 -29h-28z" />
    <glyph glyph-name="cedilla" unicode="&#xb8;" horiz-adv-x="509" 
d="M284 5l-43 -58q47 0 63.5 -22.5t7.5 -49.5q-9 -25 -33.5 -38.5t-56.5 -13.5t-60 18l6 17q24 -19 68.5 -14t55.5 34q10 28 -18 42.5t-65 10.5q9 14 27.5 38.5t26.5 35.5h21z" />
    <glyph glyph-name="onesuperior" unicode="&#xb9;" horiz-adv-x="295" 
d="M184 270l72 411h-64l4 19h85l-76 -430h-21z" />
    <glyph glyph-name="ordmasculine" unicode="&#xba;" horiz-adv-x="477" 
d="M313 425q-51 0 -83 32t-32 83q0 64 48 109t113 45q51 0 83.5 -32t32.5 -81q0 -65 -49 -110.5t-113 -45.5zM316 444q54 0 95 39t41 96q0 43 -27 69.5t-68 26.5q-54 0 -96 -38t-42 -95q0 -44 27.5 -71t69.5 -27zM162 303l4 21h263l-4 -21h-263z" />
    <glyph glyph-name="guillemotright" unicode="&#xbb;" horiz-adv-x="519" 
d="M369 477l121 -193l-190 -196h-27l192 196l-123 193h27zM204 477l121 -193l-190 -196h-27l192 196l-123 193h27z" />
    <glyph glyph-name="onequarter" unicode="&#xbc;" horiz-adv-x="893" 
d="M232 -23h-24q85 129 253 384.5t253 384.5h24q-85 -129 -253 -384.5t-253 -384.5zM842 419l-52 -298h46l-4 -21h-46l-18 -100h-22l18 100h-218l-12 23l273 296h35zM558 121h211l50 283zM203 298l68 383h-64l3 19h85l-71 -402h-21z" />
    <glyph glyph-name="onehalf" unicode="&#xbd;" horiz-adv-x="928" 
d="M218 -23h-24l506 769h24zM194 298l68 383h-64l3 19h85l-71 -402h-21zM814 206l-225 -185h250l-4 -21h-269l-8 20q68 55 123 101t80 66.5t43 34.5q43 35 52.5 74.5t-15 67.5t-73.5 32q-74 3 -128 -54l-14 12q61 66 147 62q56 -2 86 -36.5t18.5 -83.5t-63.5 -90z" />
    <glyph glyph-name="threequarters" unicode="&#xbe;" horiz-adv-x="946" 
d="M284 -23h-24l505 769h24zM399 424q-11 -56 -59.5 -89t-104.5 -33q-81 0 -120 73l17 11q34 -63 109 -63q51 0 95 33t44 85q0 39 -27.5 62.5t-67.5 23.5h-37l3 19h37q46 0 80 25t34 71q0 37 -26.5 59t-64.5 22q-63 0 -108 -49l-12 11q54 58 123 58q45 0 77.5 -27t32.5 -71
q0 -38 -27 -69.5t-60 -38.5l-1 -1q37 -12 53.5 -45.5t9.5 -66.5zM880 419l-53 -298h46l-3 -21h-46l-18 -100h-22l18 100h-218l-12 23l273 296h35zM595 121h211l50 283z" />
    <glyph glyph-name="questiondown" unicode="&#xbf;" horiz-adv-x="491" 
d="M408 -110l12 -13q-69 -69 -174 -69q-79 0 -131.5 55.5t-36.5 141.5q15 82 79.5 136t159.5 68q5 25 17 89.5t17 89.5h19l-35 -196q-97 -9 -168 -65t-71 -148q0 -69 45.5 -110t108.5 -41q96 0 158 62zM368 515h25l-9 -48h-25z" />
    <glyph glyph-name="Agrave" unicode="&#xc0;" horiz-adv-x="631" 
d="M42 0l378 703h40l132 -703h-24l-47 248h-323l-132 -248h-24zM443 684h-12l-222 -415h309zM443 764l-49 99h30l40 -99h-21z" />
    <glyph glyph-name="Aacute" unicode="&#xc1;" horiz-adv-x="631" 
d="M42 0l378 703h40l132 -703h-24l-47 248h-323l-132 -248h-24zM443 684h-12l-222 -415h309zM543 865l-83 -99h-21l74 99h30z" />
    <glyph glyph-name="Acircumflex" unicode="&#xc2;" horiz-adv-x="631" 
d="M42 0l378 703h40l132 -703h-24l-47 248h-323l-132 -248h-24zM443 684h-12l-222 -415h309zM519 752l-58 79l-86 -79h-23l99 96h26l65 -96h-23z" />
    <glyph glyph-name="Atilde" unicode="&#xc3;" horiz-adv-x="631" 
d="M42 0l378 703h40l132 -703h-24l-47 248h-323l-132 -248h-24zM443 684h-12l-222 -415h309zM558 811l9 -8q-28 -38 -63 -38q-17 0 -44.5 18.5t-42.5 18.5q-28 0 -48 -25l-11 7q23 37 64 37q16 0 44 -18.5t43 -18.5q26 0 49 27z" />
    <glyph glyph-name="Adieresis" unicode="&#xc4;" horiz-adv-x="631" 
d="M42 0l378 703h40l132 -703h-24l-47 248h-323l-132 -248h-24zM443 684h-12l-222 -415h309zM381 764h-34l7 37h34zM554 764h-34l7 37h34z" />
    <glyph glyph-name="Aring" unicode="&#xc5;" horiz-adv-x="631" 
d="M443 684h-12l-222 -415h309zM454 778q-33 1 -44 -29q-11 -27 10 -41q9 -5 21 -5q32 0 44 30q11 27 -10 40q-8 5 -21 5zM457 795q24 1 36.5 -12.5t11.5 -31t-12.5 -35.5t-30.5 -25l130 -691h-24l-47 248h-323l-132 -248h-24l372 691q-23 10 -25 35.5t17 47t51 21.5z" />
    <glyph glyph-name="AE" unicode="&#xc6;" horiz-adv-x="859" 
d="M558 700h350l-3 -19h-308l-56 -319h305l-3 -18h-305l-58 -326h308l-3 -18h-328l46 261h-228l-183 -261h-24zM577 683h-9l-281 -403h219z" />
    <glyph glyph-name="Ccedilla" unicode="&#xc7;" horiz-adv-x="729" 
d="M417 -7l-33 -45q47 0 63.5 -22.5t7.5 -49.5q-9 -25 -33.5 -38.5t-56.5 -13.5t-60 18l6 17q24 -19 69 -14t55 34q10 28 -18 42.5t-65 10.5q9 13 24.5 34t20.5 28q-131 3 -206 87t-75 209q0 106 51 200.5t148.5 155t219.5 60.5q76 0 126.5 -24.5t90.5 -77.5l-16 -14
q-39 49 -83 72.5t-122 23.5q-164 0 -278.5 -112t-114.5 -281q0 -121 74 -200t201 -79q145 0 257 111l13 -13q-114 -114 -266 -119z" />
    <glyph glyph-name="Egrave" unicode="&#xc8;" horiz-adv-x="527" 
d="M572 700l-3 -21h-320l-54 -305h316l-4 -20h-317l-58 -333h321l-4 -21h-343l123 700h343zM422 764l-49 99h30l40 -99h-21z" />
    <glyph glyph-name="Eacute" unicode="&#xc9;" horiz-adv-x="527" 
d="M572 700l-3 -21h-320l-54 -305h316l-4 -20h-317l-58 -333h321l-4 -21h-343l123 700h343zM496 859l-83 -99h-21l74 99h30z" />
    <glyph glyph-name="Ecircumflex" unicode="&#xca;" horiz-adv-x="527" 
d="M572 700l-3 -21h-320l-54 -305h316l-4 -20h-317l-58 -333h321l-4 -21h-343l123 700h343zM487 764l-58 79l-86 -79h-23l99 96h26l65 -96h-23z" />
    <glyph glyph-name="Edieresis" unicode="&#xcb;" horiz-adv-x="527" 
d="M572 700l-3 -21h-320l-54 -305h316l-4 -20h-317l-58 -333h321l-4 -21h-343l123 700h343zM349 778h-34l7 37h34zM522 778h-34l7 37h34z" />
    <glyph glyph-name="Igrave" unicode="&#xcc;" horiz-adv-x="281" 
d="M130 0l123 700h22l-123 -700h-22zM261 749l-48 99h30l39 -99h-21z" />
    <glyph glyph-name="Iacute" unicode="&#xcd;" horiz-adv-x="281" 
d="M253 700l-123 -700h22l123 700h-22zM366 848l-84 -99h-21l75 99h30z" />
    <glyph glyph-name="Icircumflex" unicode="&#xce;" horiz-adv-x="281" 
d="M130 0l123 700h22l-123 -700h-22zM344 749l-58 79l-86 -79h-23l99 96h26l65 -96h-23z" />
    <glyph glyph-name="Idieresis" unicode="&#xcf;" horiz-adv-x="281" 
d="M130 0l123 700h22l-123 -700h-22zM204 749h-34l7 37h34zM377 749h-34l7 37h34z" />
    <glyph glyph-name="Eth" unicode="&#xd0;" horiz-adv-x="725" 
d="M121 338l4 20h68l60 342h189q166 0 236 -122q61 -105 28 -249q-33 -145 -140 -237t-249 -92h-188l60 338h-68zM155 21h165q166 -1 275 126q90 104 100 241q11 138 -68 220q-70 71 -189 71h-167l-56 -321h148l-4 -20h-148z" />
    <glyph glyph-name="Ntilde" unicode="&#xd1;" horiz-adv-x="729" 
d="M581 12h2l121 688h22l-123 -701h-41l-287 688h-2l-121 -687h-22l124 701h40zM598 794l10 -8q-30 -38 -64 -38q-17 0 -44.5 18.5t-42.5 18.5q-28 0 -48 -25l-11 7q23 37 64 37q16 0 44 -18.5t43 -18.5q26 0 49 27z" />
    <glyph glyph-name="Ograve" unicode="&#xd2;" horiz-adv-x="849" 
d="M549 711q135 -1 215.5 -86.5t80.5 -217.5q0 -101 -40 -183.5t-103 -132t-136 -76.5t-145 -27q-120 0 -207.5 78t-87.5 220q0 122 60 220.5t156 151.5t207 53zM545 691q-161 0 -279 -114t-118 -287q0 -133 82 -207.5t195 -74.5q54 0 109 15.5t107 48t92.5 78.5t65 112
t24.5 143q0 124 -75.5 204.5t-202.5 81.5zM547 760l-48 99h30l39 -99h-21z" />
    <glyph glyph-name="Oacute" unicode="&#xd3;" horiz-adv-x="849" 
d="M549 711q-111 0 -207 -53t-156 -151.5t-60 -220.5q0 -142 87.5 -220t207.5 -78q72 0 145 27t136 76.5t103 132t40 183.5q0 132 -80.5 217.5t-215.5 86.5zM545 691q127 -1 202.5 -81.5t75.5 -204.5q0 -77 -24.5 -143t-65 -112t-92.5 -78.5t-107 -48t-109 -15.5
q-113 0 -195 74.5t-82 207.5q0 173 118 287t279 114zM649 859l-84 -99h-21l75 99h30z" />
    <glyph glyph-name="Ocircumflex" unicode="&#xd4;" horiz-adv-x="849" 
d="M549 711q135 -1 215.5 -86.5t80.5 -217.5q0 -101 -40 -183.5t-103 -132t-136 -76.5t-145 -27q-120 0 -207.5 78t-87.5 220q0 122 60 220.5t156 151.5t207 53zM545 691q-161 0 -279 -114t-118 -287q0 -133 82 -207.5t195 -74.5q54 0 109 15.5t107 48t92.5 78.5t65 112
t24.5 143q0 124 -75.5 204.5t-202.5 81.5zM625 752l-58 79l-86 -79h-23l99 96h26l65 -96h-23z" />
    <glyph glyph-name="Otilde" unicode="&#xd5;" horiz-adv-x="849" 
d="M549 711q135 -1 215.5 -86.5t80.5 -217.5q0 -101 -40 -183.5t-103 -132t-136 -76.5t-145 -27q-120 0 -207.5 78t-87.5 220q0 122 60 220.5t156 151.5t207 53zM545 691q-161 0 -279 -114t-118 -287q0 -133 82 -207.5t195 -74.5q54 0 109 15.5t107 48t92.5 78.5t65 112
t24.5 143q0 124 -75.5 204.5t-202.5 81.5zM668 806l11 -8q-30 -38 -66 -38q-17 0 -44 18.5t-42 18.5q-29 0 -48 -25l-13 7q22 37 65 37q16 0 44.5 -18.5t43.5 -18.5q26 0 49 27z" />
    <glyph glyph-name="Odieresis" unicode="&#xd6;" horiz-adv-x="849" 
d="M549 711q135 -1 215.5 -86.5t80.5 -217.5q0 -101 -40 -183.5t-103 -132t-136 -76.5t-145 -27q-120 0 -207.5 78t-87.5 220q0 122 60 220.5t156 151.5t207 53zM545 691q-161 0 -279 -114t-118 -287q0 -133 82 -207.5t195 -74.5q54 0 109 15.5t107 48t92.5 78.5t65 112
t24.5 143q0 124 -75.5 204.5t-202.5 81.5zM492 765h-34l7 37h34zM665 765h-34l7 37h34z" />
    <glyph glyph-name="multiply" unicode="&#xd7;" horiz-adv-x="503" 
d="M164 442l16 12l123 -150l170 144l12 -12l-172 -146l125 -150l-16 -12l-123 151l-180 -155l-12 13l181 154z" />
    <glyph glyph-name="Oslash" unicode="&#xd8;" horiz-adv-x="849" 
d="M718 666l62 81h23l-70 -91q53 -38 82.5 -104t29.5 -145q0 -101 -40 -183.5t-103 -132.5t-136 -77t-145 -27q-95 0 -168 44l-56 -73h-25l65 84q-51 37 -81 99.5t-30 144.5q0 122 60 220.5t156 151.5t207 53q97 -1 169 -45zM425 8q54 0 109 15.5t107 48t92.5 78t65 111.5
t24.5 143q0 74 -27 136t-77 98l-452 -588q71 -42 158 -42zM545 691q-161 0 -279 -114t-118 -287q0 -76 28 -135.5t75 -93.5l453 587q-65 41 -159 43z" />
    <glyph glyph-name="Ugrave" unicode="&#xd9;" horiz-adv-x="653" 
d="M243 700h22l-91 -516q-13 -80 33 -125t120 -46q75 -1 138.5 44.5t79.5 126.5l91 516h22l-91 -516q-16 -91 -87 -141.5t-156 -49.5q-84 1 -136 51t-36 140zM466 763l-49 99h30l40 -99h-21z" />
    <glyph glyph-name="Uacute" unicode="&#xda;" horiz-adv-x="653" 
d="M243 700h22l-91 -516q-13 -80 33 -125t120 -46q75 -1 138.5 44.5t79.5 126.5l91 516h22l-91 -516q-16 -91 -87 -141.5t-156 -49.5q-84 1 -136 51t-36 140zM542 861l-83 -99h-21l74 99h30z" />
    <glyph glyph-name="Ucircumflex" unicode="&#xdb;" horiz-adv-x="653" 
d="M243 700h22l-91 -516q-13 -80 33 -125t120 -46q75 -1 138.5 44.5t79.5 126.5l91 516h22l-91 -516q-16 -91 -87 -141.5t-156 -49.5q-84 1 -136 51t-36 140zM539 758l-58 79l-86 -79h-23l99 96h26l65 -96h-23z" />
    <glyph glyph-name="Udieresis" unicode="&#xdc;" horiz-adv-x="653" 
d="M243 700h22l-91 -516q-13 -80 33 -125t120 -46q75 -1 138.5 44.5t79.5 126.5l91 516h22l-91 -516q-16 -91 -87 -141.5t-156 -49.5q-84 1 -136 51t-36 140zM394 767h-34l7 37h34zM567 767h-34l7 37h34z" />
    <glyph glyph-name="Yacute" unicode="&#xdd;" horiz-adv-x="567" 
d="M344 283l310 417h-24l-292 -397l-151 397h-25l162 -416l-50 -284h21zM502 866l-83 -99h-21l74 99h30z" />
    <glyph glyph-name="Thorn" unicode="&#xde;" horiz-adv-x="577" 
d="M176 167l-29 -167h-22l124 701h22l-25 -139h160q86 0 131.5 -49.5t45.5 -120.5q0 -90 -67.5 -157.5t-178.5 -67.5h-161zM180 187h160q102 0 161.5 63t59.5 139q0 62 -39.5 107.5t-118.5 45.5h-160z" />
    <glyph glyph-name="germandbls" unicode="&#xdf;" horiz-adv-x="571" 
d="M405 379v-1q66 -8 100.5 -55.5t34.5 -105.5q0 -53 -21 -96.5t-55.5 -70t-77 -41t-88 -14t-85.5 14.5l3 21q35 -15 76 -15q102 0 163.5 59.5t61.5 139.5q0 63 -42 107t-121 44h-50l3 22h50q72 1 118.5 49t53.5 105q11 65 -26.5 104.5t-96.5 39.5q-64 0 -116.5 -38.5
t-65.5 -111.5l-95 -536h-22l95 536q13 78 74.5 124t132.5 46q61 0 103 -37t42 -101q0 -32 -10.5 -65.5t-46 -71t-92.5 -52.5z" />
    <glyph glyph-name="agrave" unicode="&#xe0;" horiz-adv-x="574" 
d="M476 0h-19l13 83q-32 -46 -82 -67.5t-103 -21.5q-93 0 -136.5 57.5t-43.5 143.5q0 134 87.5 226t221.5 92q75 0 148 -26zM411 492q-115 0 -199.5 -81.5t-84.5 -209.5q0 -81 38 -133.5t124 -52.5q52 -2 102 24t84 73l63 359q-61 21 -127 21zM420 620l-49 99h30l40 -99h-21
z" />
    <glyph glyph-name="aacute" unicode="&#xe1;" horiz-adv-x="574" 
d="M476 0h-19l13 83q-32 -46 -82 -67.5t-103 -21.5q-93 0 -136.5 57.5t-43.5 143.5q0 134 87.5 226t221.5 92q75 0 148 -26zM411 492q-115 0 -199.5 -81.5t-84.5 -209.5q0 -81 38 -133.5t124 -52.5q52 -2 102 24t84 73l63 359q-61 21 -127 21zM506 712l-83 -99h-21l74 99h30
z" />
    <glyph glyph-name="acircumflex" unicode="&#xe2;" horiz-adv-x="574" 
d="M476 0h-19l13 83q-32 -46 -82 -67.5t-103 -21.5q-93 0 -136.5 57.5t-43.5 143.5q0 134 87.5 226t221.5 92q75 0 148 -26zM411 492q-115 0 -199.5 -81.5t-84.5 -209.5q0 -81 38 -133.5t124 -52.5q52 -2 102 24t84 73l63 359q-61 21 -127 21zM499 611l-58 79l-86 -79h-23
l99 96h26l65 -96h-23z" />
    <glyph glyph-name="atilde" unicode="&#xe3;" horiz-adv-x="574" 
d="M476 0h-19l13 83q-32 -46 -82 -67.5t-103 -21.5q-93 0 -136.5 57.5t-43.5 143.5q0 134 87.5 226t221.5 92q75 0 148 -26zM411 492q-115 0 -199.5 -81.5t-84.5 -209.5q0 -81 38 -133.5t124 -52.5q52 -2 102 24t84 73l63 359q-61 21 -127 21zM539 691l9 -8q-28 -38 -63 -38
q-17 0 -44.5 18.5t-42.5 18.5q-28 0 -48 -25l-11 7q23 37 64 37q16 0 44 -18.5t43 -18.5q26 0 49 27z" />
    <glyph glyph-name="adieresis" unicode="&#xe4;" horiz-adv-x="574" 
d="M476 0h-19l13 83q-32 -46 -82 -67.5t-103 -21.5q-93 0 -136.5 57.5t-43.5 143.5q0 134 87.5 226t221.5 92q75 0 148 -26zM411 492q-115 0 -199.5 -81.5t-84.5 -209.5q0 -81 38 -133.5t124 -52.5q52 -2 102 24t84 73l63 359q-61 21 -127 21zM373 647h-34l7 37h34zM546 647
h-34l7 37h34z" />
    <glyph glyph-name="aring" unicode="&#xe5;" horiz-adv-x="574" 
d="M476 0h-19l13 83q-32 -46 -82 -67.5t-103 -21.5q-93 0 -136.5 57.5t-43.5 143.5q0 134 87.5 226t221.5 92q75 0 148 -26zM411 492q-115 0 -199.5 -81.5t-84.5 -209.5q0 -81 38 -133.5t124 -52.5q52 -2 102 24t84 73l63 359q-61 21 -127 21zM439 711q41 1 47 -34
q6 -34 -23 -59q-19 -15 -43 -15q-42 0 -48 35q-6 34 23 58q19 16 44 15zM436 694q-33 1 -44 -29q-11 -27 10 -41q9 -5 21 -5q32 0 44 30q11 27 -9 40q-9 5 -22 5z" />
    <glyph glyph-name="ae" unicode="&#xe6;" horiz-adv-x="975" 
d="M472 0h-15l13 83q-33 -44 -83.5 -66.5t-101.5 -22.5q-63 3 -105 33.5t-58.5 74t-16.5 98.5q0 133 88 223t221 90q71 0 144 -26l-22 -124q36 68 98 109t139 42q101 1 156 -75.5t25 -185.5h-438l-4 -20q-8 -93 40 -156.5t134 -63.5q100 0 170 70l12 -14q-49 -44 -89 -60
t-97 -16q-77 0 -123.5 46t-58.5 119zM411 492q-116 0 -200 -79t-84 -207q0 -80 40 -135.5t122 -55.5q52 -2 102 24t84 73l63 358q-64 22 -127 22zM770 495q-85 -1 -154 -56.5t-94 -149.5l-2 -15h421q18 102 -35 160.5t-136 60.5z" />
    <glyph glyph-name="ccedilla" unicode="&#xe7;" horiz-adv-x="534" 
d="M320 -7l-34 -44q46 0 63 -21t8 -46q-18 -48 -88 -48q-35 0 -60 16l5 16q24 -17 68.5 -12.5t54.5 31.5q9 26 -18 39.5t-64 9.5l45 59q-96 2 -151 61t-55 152q0 129 89 219t217 91q55 0 91 -12.5t67 -45.5l-16 -14q-29 32 -64 42t-83 10q-91 0 -171.5 -63t-102.5 -184
q-19 -105 33 -170.5t156 -65.5q105 0 170 57l10 -15q-74 -59 -170 -62z" />
    <glyph glyph-name="egrave" unicode="&#xe8;" horiz-adv-x="611" 
d="M309 14q112 0 188 72l12 -14q-51 -44 -96.5 -61t-106.5 -17q-111 0 -164.5 79t-34.5 190q18 109 98.5 179.5t191.5 71.5q106 1 164.5 -76t28.5 -183h-463q-14 -106 36 -173.5t146 -67.5zM130 274h445q18 103 -38 160.5t-144 59.5q-93 -1 -167 -60.5t-96 -159.5zM416 609
l-49 99h30l40 -99h-21z" />
    <glyph glyph-name="eacute" unicode="&#xe9;" horiz-adv-x="611" 
d="M309 14q112 0 188 72l12 -14q-51 -44 -96.5 -61t-106.5 -17q-111 0 -164.5 79t-34.5 190q18 109 98.5 179.5t191.5 71.5q106 1 164.5 -76t28.5 -183h-463q-14 -106 36 -173.5t146 -67.5zM130 274h445q18 103 -38 160.5t-144 59.5q-93 -1 -167 -60.5t-96 -159.5zM502 705
l-83 -99h-21l74 99h30z" />
    <glyph glyph-name="ecircumflex" unicode="&#xea;" horiz-adv-x="611" 
d="M309 14q112 0 188 72l12 -14q-51 -44 -96.5 -61t-106.5 -17q-111 0 -164.5 79t-34.5 190q18 109 98.5 179.5t191.5 71.5q106 1 164.5 -76t28.5 -183h-463q-14 -106 36 -173.5t146 -67.5zM130 274h445q18 103 -38 160.5t-144 59.5q-93 -1 -167 -60.5t-96 -159.5zM497 609
l-58 79l-86 -79h-23l99 96h26l65 -96h-23z" />
    <glyph glyph-name="edieresis" unicode="&#xeb;" horiz-adv-x="611" 
d="M309 14q112 0 188 72l12 -14q-51 -44 -96.5 -61t-106.5 -17q-111 0 -164.5 79t-34.5 190q18 109 98.5 179.5t191.5 71.5q106 1 164.5 -76t28.5 -183h-463q-14 -106 36 -173.5t146 -67.5zM130 274h445q18 103 -38 160.5t-144 59.5q-93 -1 -167 -60.5t-96 -159.5zM361 655
h-34l7 37h34zM534 655h-34l7 37h34z" />
    <glyph glyph-name="igrave" unicode="&#xec;" horiz-adv-x="240" 
d="M127 0h-22l90 508h22zM214 593l-49 99h30l40 -99h-21z" />
    <glyph glyph-name="iacute" unicode="&#xed;" horiz-adv-x="240" 
d="M105 0h22l90 508h-22zM314 693l-83 -99h-21l74 99h30z" />
    <glyph glyph-name="icircumflex" unicode="&#xee;" horiz-adv-x="240" 
d="M127 0h-22l90 508h22zM294 594l-58 79l-86 -79h-23l99 96h26l65 -96h-23z" />
    <glyph glyph-name="idieresis" unicode="&#xef;" horiz-adv-x="240" 
d="M127 0h-22l90 508h22zM163 654h-34l7 37h34zM336 654h-34l7 37h34z" />
    <glyph glyph-name="eth" unicode="&#xf0;" horiz-adv-x="603" 
d="M313 528l-10 14l137 82q-75 47 -165 49q0 5 4 17q105 -1 181 -55l102 54l10 -13l-98 -53q138 -107 91 -361l-6 -32q-18 -96 -89 -165.5t-180 -69.5q-108 0 -158.5 72t-32.5 161q17 85 91 150.5t179 64.5q27 0 52 -6.5t52 -20.5t48 -42t32 -66q30 211 -97 304zM365 423
q-96 0 -162.5 -59t-81.5 -137q-10 -50 4 -97t57.5 -81t110.5 -34q74 0 132.5 38t86.5 91.5t28 107.5q0 70 -45 120.5t-130 50.5z" />
    <glyph glyph-name="ntilde" unicode="&#xf1;" horiz-adv-x="616" 
d="M196 490q88 27 163 27q103 0 162 -56.5t44 -160.5l-53 -300h-22l53 300q16 91 -39.5 143.5t-150.5 52.5q-67 0 -138 -22l-84 -474h-21zM513 699l9 -8q-28 -38 -63 -38q-17 0 -44.5 18.5t-42.5 18.5q-28 0 -48 -25l-11 7q23 37 64 37q16 0 44 -18.5t43 -18.5q26 0 49 27z
" />
    <glyph glyph-name="ograve" unicode="&#xf2;" 
d="M125 252q-10 -60 3 -108t42.5 -76.5t67 -43t78.5 -14.5q47 0 94.5 16.5t90 49t69.5 89t27 128.5q0 96 -59 149t-137 53q-56 0 -111.5 -24.5t-103 -82t-61.5 -136.5zM612 252q-21 -120 -106.5 -190t-192.5 -70q-92 0 -152.5 59.5t-60.5 157.5q0 130 93 217t211 87
q106 0 167.5 -72.5t40.5 -188.5zM425 594l-49 99h30l40 -99h-21z" />
    <glyph glyph-name="oacute" unicode="&#xf3;" 
d="M125 252q14 79 61.5 136.5t103 82t111.5 24.5q78 0 137 -53t59 -149q0 -72 -27 -128.5t-69.5 -89t-90 -49t-94.5 -16.5q-41 0 -78.5 14.5t-67 43t-42.5 76.5t-3 108zM612 252q21 116 -40.5 188.5t-167.5 72.5q-118 0 -211 -87t-93 -217q0 -98 60.5 -157.5t152.5 -59.5
q107 0 192.5 70t106.5 190zM502 689l-83 -99h-21l74 99h30z" />
    <glyph glyph-name="ocircumflex" unicode="&#xf4;" 
d="M125 252q-10 -60 3 -108t42.5 -76.5t67 -43t78.5 -14.5q47 0 94.5 16.5t90 49t69.5 89t27 128.5q0 96 -59 149t-137 53q-56 0 -111.5 -24.5t-103 -82t-61.5 -136.5zM612 252q-21 -120 -106.5 -190t-192.5 -70q-92 0 -152.5 59.5t-60.5 157.5q0 130 93 217t211 87
q106 0 167.5 -72.5t40.5 -188.5zM496 594l-58 79l-86 -79h-23l99 96h26l65 -96h-23z" />
    <glyph glyph-name="otilde" unicode="&#xf5;" 
d="M125 252q-10 -60 3 -108t42.5 -76.5t67 -43t78.5 -14.5q47 0 94.5 16.5t90 49t69.5 89t27 128.5q0 96 -59 149t-137 53q-56 0 -111.5 -24.5t-103 -82t-61.5 -136.5zM612 252q-21 -120 -106.5 -190t-192.5 -70q-92 0 -152.5 59.5t-60.5 157.5q0 130 93 217t211 87
q106 0 167.5 -72.5t40.5 -188.5zM531 670l10 -8q-30 -38 -64 -38q-17 0 -44 18.5t-42 18.5q-29 0 -49 -25l-11 7q23 37 64 37q16 0 44 -18.5t43 -18.5q26 0 49 27z" />
    <glyph glyph-name="odieresis" unicode="&#xf6;" 
d="M125 252q-10 -60 3 -108t42.5 -76.5t67 -43t78.5 -14.5q47 0 94.5 16.5t90 49t69.5 89t27 128.5q0 96 -59 149t-137 53q-56 0 -111.5 -24.5t-103 -82t-61.5 -136.5zM612 252q-21 -120 -106.5 -190t-192.5 -70q-92 0 -152.5 59.5t-60.5 157.5q0 130 93 217t211 87
q106 0 167.5 -72.5t40.5 -188.5zM365 638h-34l7 37h34zM538 638h-34l7 37h34z" />
    <glyph glyph-name="divide" unicode="&#xf7;" horiz-adv-x="599" 
d="M362 487l6 37h31l-6 -37h-31zM137 318l4 21h418l-4 -21h-418zM300 135l6 38h32l-6 -38h-32z" />
    <glyph glyph-name="oslash" unicode="&#xf8;" 
d="M187 27l-53 -67h-20l59 76q-73 58 -73 173q0 130 93 217t211 87q68 0 119 -31l52 66h22l-61 -76q81 -57 81 -178q0 -135 -91.5 -218.5t-212.5 -83.5q-73 0 -126 35zM316 10q47 0 94.5 16.5t90 49t69.5 89t27 128.5q0 108 -74 163l-323 -413q51 -33 116 -33zM121 209
q0 -104 65 -156l324 412q-49 30 -109 30q-46 0 -94 -17.5t-90 -51t-69 -90.5t-27 -127z" />
    <glyph glyph-name="ugrave" unicode="&#xf9;" horiz-adv-x="612" 
d="M506 17q-88 -27 -163 -27q-103 0 -162 56.5t-43 160.5l52 300h23l-53 -300q-16 -91 39 -143.5t150 -52.5q68 0 139 22l83 474h21zM415 604l-49 99h30l40 -99h-21z" />
    <glyph glyph-name="uacute" unicode="&#xfa;" horiz-adv-x="612" 
d="M506 17q-88 -27 -163 -27q-103 0 -162 56.5t-43 160.5l52 300h23l-53 -300q-16 -91 39 -143.5t150 -52.5q68 0 139 22l83 474h21zM499 707l-83 -99h-21l74 99h30z" />
    <glyph glyph-name="ucircumflex" unicode="&#xfb;" horiz-adv-x="612" 
d="M506 17q-88 -27 -163 -27q-103 0 -162 56.5t-43 160.5l52 300h23l-53 -300q-16 -91 39 -143.5t150 -52.5q68 0 139 22l83 474h21zM490 608l-58 79l-86 -79h-23l99 96h26l65 -96h-23z" />
    <glyph glyph-name="udieresis" unicode="&#xfc;" horiz-adv-x="612" 
d="M506 17q-88 -27 -163 -27q-103 0 -162 56.5t-43 160.5l52 300h23l-53 -300q-16 -91 39 -143.5t150 -52.5q68 0 139 22l83 474h21zM364 663h-34l7 37h34zM537 663h-34l7 37h34z" />
    <glyph glyph-name="yacute" unicode="&#xfd;" horiz-adv-x="503" 
d="M76 -183l-3 -18h5q42 0 68 14t49 57l361 637h-22l-274 -484l-110 484h-23q49 -208 118 -510l-70 -122q-23 -36 -40.5 -46.5t-58.5 -11.5zM446 693l-84 -99h-21l75 99h30z" />
    <glyph glyph-name="thorn" unicode="&#xfe;" horiz-adv-x="583" 
d="M284 -5q-94 0 -142 64l-46 -260h-22l159 901h21l-46 -261q83 81 199 69q109 -11 147 -111q36 -93 -6 -205q-42 -115 -139 -166q-58 -31 -125 -31zM395 489q-51 7 -103 -15t-89 -63l-57 -325q52 -75 155 -71q119 10 192 115q63 90 55 193q-9 105 -89 147q-29 15 -64 19z
" />
    <glyph glyph-name="ydieresis" unicode="&#xff;" horiz-adv-x="503" 
d="M73 -201l3 18q41 1 58.5 11.5t40.5 46.5l70 122q-69 302 -118 510h23l110 -484l274 484h22l-361 -637q-23 -43 -49 -57t-68 -14h-5zM309 650h-34l7 37h34zM482 650h-34l7 37h34z" />
    <glyph glyph-name="Amacron" unicode="&#x100;" horiz-adv-x="632" 
d="M339 766l3 17h216l-3 -17h-216zM42 0l378 703h40l132 -703h-24l-47 248h-323l-132 -248h-24zM443 684h-12l-222 -415h309z" />
    <glyph glyph-name="amacron" unicode="&#x101;" horiz-adv-x="574" 
d="M337 650l3 20h216l-3 -20h-216zM476 0h-19l13 83q-33 -44 -83.5 -66.5t-101.5 -22.5q-63 3 -105 33.5t-58.5 74t-16.5 98.5q0 133 88 223t221 90q75 0 148 -26zM411 492q-116 0 -200 -79t-84 -207q0 -80 40 -135.5t122 -55.5q52 -2 102 24t84 73l63 358q-64 22 -127 22z
" />
    <glyph glyph-name="Abreve" unicode="&#x102;" horiz-adv-x="631" 
d="M42 0l378 703h40l132 -703h-24l-47 248h-323l-132 -248h-24zM443 684h-12l-222 -415h309zM545 822h17q-19 -47 -67.5 -65t-89.5 0.5t-39 65.5h17q0 -28 21.5 -43.5t48.5 -15t54 15.5t38 42z" />
    <glyph glyph-name="abreve" unicode="&#x103;" horiz-adv-x="574" 
d="M524 699h17q-11 -28 -35 -47.5t-51.5 -24t-53 0.5t-41.5 24t-15 48h17q0 -28 21.5 -43.5t48.5 -15t54 15.5t38 42zM476 0h-19l13 83q-33 -44 -83.5 -66.5t-101.5 -22.5q-63 3 -105 33.5t-58.5 74t-16.5 98.5q0 133 88 223t221 90q75 0 148 -26zM411 492q-116 0 -200 -79
t-84 -207q0 -80 40 -135.5t122 -55.5q52 -2 102 24t84 73l63 358q-64 22 -127 22z" />
    <glyph glyph-name="Aogonek" unicode="&#x104;" horiz-adv-x="631" 
d="M42 0l378 703h40l132 -703q-100 -45 -100 -100q0 -24 20.5 -36t45.5 -14l-8 -15q-60 5 -76 37t11.5 69t82.5 59l-47 248h-323l-132 -248h-24zM443 684h-12l-222 -415h309z" />
    <glyph glyph-name="aogonek" unicode="&#x105;" horiz-adv-x="574" 
d="M411 492q-116 0 -200 -79t-84 -207q0 -80 40 -135.5t122 -55.5q52 -2 102 24t84 73l63 358q-64 22 -127 22zM458 3l12 80q-33 -44 -83.5 -66.5t-101.5 -22.5q-63 3 -105 33.5t-58.5 74t-16.5 98.5q0 133 88 223t221 90q75 0 148 -26l-86 -487q-26 -12 -41 -21.5t-29 -27
t-14 -38.5q0 -37 68 -44l-7 -13q-60 0 -77.5 30t8 65.5t74.5 51.5z" />
    <glyph glyph-name="Cacute" unicode="&#x106;" horiz-adv-x="729" 
d="M737 593l15 14q-75 99 -217 99q-122 0 -219.5 -60.5t-148.5 -155t-51 -200.5q0 -128 78 -212.5t215 -84.5q153 0 274 119l-13 13q-112 -111 -257 -111q-127 0 -201 79t-74 200q0 169 114.5 281t278.5 112q76 0 122.5 -23.5t83.5 -69.5zM627 856l-83 -99h-21l74 99h30z
" />
    <glyph glyph-name="cacute" unicode="&#x107;" horiz-adv-x="534" 
d="M395 496q48 0 83 -10t64 -42l16 14q-31 33 -67 45.5t-91 12.5q-128 -1 -217 -91t-89 -219q0 -95 57 -154t156 -59q105 0 183 62l-10 15q-65 -57 -170 -57q-104 0 -156 65.5t-33 170.5q22 121 102.5 184t171.5 63zM490 683l-83 -99h-21l74 99h30z" />
    <glyph glyph-name="Ccircumflex" unicode="&#x108;" horiz-adv-x="729" 
d="M752 607l-15 -14q-37 46 -83.5 69.5t-122.5 23.5q-164 0 -278.5 -112t-114.5 -281q0 -121 74 -200t201 -79q145 0 257 111l13 -13q-121 -119 -274 -119q-137 0 -215 84.5t-78 212.5q0 106 51 200.5t148.5 155t219.5 60.5q142 0 217 -99zM615 753l-58 79l-86 -79h-23
l99 96h26l65 -96h-23z" />
    <glyph glyph-name="ccircumflex" unicode="&#x109;" horiz-adv-x="534" 
d="M395 496q-91 0 -171.5 -63t-102.5 -184q-19 -105 33 -170.5t156 -65.5q105 0 170 57l10 -15q-78 -62 -183 -62q-99 0 -156 59t-57 154q0 129 89 219t217 91q55 0 91 -12.5t67 -45.5l-16 -14q-29 32 -64 42t-83 10zM481 588l-58 79l-86 -79h-23l99 96h26l65 -96h-23z" />
    <glyph glyph-name="Cdotaccent" unicode="&#x10a;" horiz-adv-x="729" 
d="M526 769l6 38h35l-6 -38h-35zM752 607l-15 -14q-37 46 -83.5 69.5t-122.5 23.5q-164 0 -278.5 -112t-114.5 -281q0 -121 74 -200t201 -79q145 0 257 111l13 -13q-121 -119 -274 -119q-137 0 -215 84.5t-78 212.5q0 106 51 200.5t148.5 155t219.5 60.5q142 0 217 -99z" />
    <glyph glyph-name="cdotaccent" unicode="&#x10b;" horiz-adv-x="534" 
d="M395 496q-91 0 -171.5 -63t-102.5 -184q-19 -105 33 -170.5t156 -65.5q105 0 170 57l10 -15q-78 -62 -183 -62q-99 0 -156 59t-57 154q0 129 89 219t217 91q55 0 91 -12.5t67 -45.5l-16 -14q-29 32 -64 42t-83 10zM396 627l7 40h35l-7 -40h-35z" />
    <glyph glyph-name="Ccaron" unicode="&#x10c;" horiz-adv-x="729" 
d="M752 607l-15 -14q-37 46 -83.5 69.5t-122.5 23.5q-164 0 -278.5 -112t-114.5 -281q0 -121 74 -200t201 -79q145 0 257 111l13 -13q-121 -119 -274 -119q-137 0 -215 84.5t-78 212.5q0 106 51 200.5t148.5 155t219.5 60.5q142 0 217 -99zM489 850l58 -79l86 79h23l-99 -96
h-26l-65 96h23z" />
    <glyph glyph-name="ccaron" unicode="&#x10d;" horiz-adv-x="534" 
d="M395 496q-91 0 -171.5 -63t-102.5 -184q-19 -105 33 -170.5t156 -65.5q105 0 170 57l10 -15q-78 -62 -183 -62q-99 0 -156 59t-57 154q0 129 89 219t217 91q55 0 91 -12.5t67 -45.5l-16 -14q-29 32 -64 42t-83 10zM355 682l58 -79l86 79h23l-99 -96h-26l-65 96h23z" />
    <glyph glyph-name="Dcaron" unicode="&#x10e;" horiz-adv-x="725" 
d="M252 700h189q166 0 237 -122q61 -105 28 -249t-140 -237q-106 -92 -249 -92h-188zM155 21h165q165 -1 274 126q90 104 101 241q10 138 -68 220q-70 71 -189 71h-167zM400 847l58 -79l86 79h23l-99 -96h-26l-65 96h23z" />
    <glyph glyph-name="dcaron" unicode="&#x10f;" horiz-adv-x="613" 
d="M715 702h24q3 -27 -9.5 -63.5t-29.5 -59.5h-14q34 68 29 123zM393 509q41 0 80 -16.5t63 -48.5l45 257h22l-120 -685q-83 -26 -158 -26q-101 0 -158.5 60t-57.5 156q0 116 79 209t205 94zM330 12q66 0 135 21l67 384q-52 75 -155 71q-74 -6 -132 -49.5t-86.5 -104
t-28.5 -124.5q0 -91 56 -144.5t144 -53.5z" />
    <glyph glyph-name="Dcroat" unicode="&#x110;" horiz-adv-x="726" 
d="M129 348l3 16h61l59 336h189q166 0 237 -122q61 -105 28 -249t-140 -237q-106 -92 -249 -92h-188l61 348h-61zM155 21h165q165 -1 274 126q90 104 101 241q10 138 -68 220q-70 71 -189 71h-167l-56 -315h149l-3 -16h-149z" />
    <glyph glyph-name="dcroat" unicode="&#x111;" horiz-adv-x="588" 
d="M330 12q66 0 135 21l67 384q-52 75 -155 71q-74 -6 -132 -49.5t-86.5 -104t-28.5 -124.5q0 -91 56 -144.5t144 -53.5zM393 509q41 0 80 -16.5t63 -48.5l28 158h-100l3 17h100l14 82h22l-14 -82h81l-3 -17h-81l-103 -586q-83 -26 -158 -26q-101 0 -158.5 60t-57.5 156
q0 116 79 209t205 94z" />
    <glyph glyph-name="Emacron" unicode="&#x112;" horiz-adv-x="528" 
d="M337 777l4 20h209l-4 -20h-209zM592 700l-3 -21h-320l-56 -318h316l-4 -20h-317l-56 -320h321l-4 -21h-343l123 700h343z" />
    <glyph glyph-name="emacron" unicode="&#x113;" horiz-adv-x="611" 
d="M309 14q106 0 180 70l12 -14q-51 -44 -93 -60t-102 -16q-110 0 -164 82t-35 187q18 106 99 178.5t191 73.5q106 1 164.5 -77t28.5 -184h-463q-15 -100 36 -170t146 -70zM130 274h445q18 101 -38 159.5t-144 60.5q-93 -1 -167 -60.5t-96 -159.5zM316 636l4 20h209l-4 -20
h-209z" />
    <glyph glyph-name="Ebreve" unicode="&#x114;" horiz-adv-x="528" 
d="M592 700l-3 -21h-320l-56 -318h316l-4 -20h-317l-56 -320h321l-4 -21h-343l123 700h343zM532 824h17q-19 -47 -67.5 -65t-89.5 0.5t-39 65.5h17q1 -38 35 -52t73 0.5t54 50.5z" />
    <glyph glyph-name="ebreve" unicode="&#x115;" horiz-adv-x="611" 
d="M309 14q106 0 180 70l12 -14q-51 -44 -93 -60t-102 -16q-110 0 -164 82t-35 187q18 106 99 178.5t191 73.5q106 1 164.5 -77t28.5 -184h-463q-15 -100 36 -170t146 -70zM130 274h445q18 101 -38 159.5t-144 60.5q-93 -1 -167 -60.5t-96 -159.5zM507 678h17
q-11 -28 -35.5 -47.5t-51.5 -24t-52.5 0.5t-41 24t-14.5 48h17q0 -28 21 -43.5t48 -15t54 15.5t38 42z" />
    <glyph glyph-name="Edotaccent" unicode="&#x116;" horiz-adv-x="527" 
d="M592 700l-3 -21h-320l-56 -318h316l-4 -20h-317l-56 -320h321l-4 -21h-343l123 700h343zM427 761l7 41h31l-7 -41h-31z" />
    <glyph glyph-name="edotaccent" unicode="&#x117;" horiz-adv-x="611" 
d="M403 635l7 41h31l-8 -41h-30zM309 14q106 0 180 70l12 -14q-51 -44 -93 -60t-102 -16q-110 0 -164 82t-35 187q18 106 99 178.5t191 73.5q106 1 164.5 -77t28.5 -184h-463q-15 -100 36 -170t146 -70zM130 274h445q18 101 -38 159.5t-144 60.5q-93 -1 -167 -60.5
t-96 -159.5z" />
    <glyph glyph-name="Eogonek" unicode="&#x118;" horiz-adv-x="527" 
d="M592 700l-3 -21h-320l-56 -318h316l-4 -20h-317l-56 -320h321l-4 -22q-52 -18 -80 -63q-28 -44 4 -62q17 -9 47 -8l-9 -16h-28.5t-33.5 14t-16 39q4 57 85 97h-312l123 700h343z" />
    <glyph glyph-name="eogonek" unicode="&#x119;" horiz-adv-x="611" 
d="M309 14q106 0 180 70l12 -14q-54 -46 -98 -62q-57 -37 -57 -71q0 -35 73 -38q-1 -1 -5 -6t-6 -8q-3 2 -22 0t-41.5 9t-22.5 35q0 39 46 70q-32 -5 -62 -5q-110 0 -164 82t-35 187q18 106 99 178.5t191 73.5q106 1 164.5 -77t28.5 -184h-463q-15 -100 36 -170t146 -70z
M130 274h445q18 101 -38 159.5t-144 60.5q-93 -1 -167 -60.5t-96 -159.5z" />
    <glyph glyph-name="Ecaron" unicode="&#x11a;" horiz-adv-x="527" 
d="M592 700l-3 -21h-320l-56 -318h316l-4 -20h-317l-56 -320h321l-4 -21h-343l123 700h343zM384 850l58 -79l86 79h23l-99 -96h-26l-65 96h23z" />
    <glyph glyph-name="ecaron" unicode="&#x11b;" horiz-adv-x="611" 
d="M309 14q106 0 180 70l12 -14q-51 -44 -93 -60t-102 -16q-110 0 -164 82t-35 187q18 106 99 178.5t191 73.5q106 1 164.5 -77t28.5 -184h-463q-15 -100 36 -170t146 -70zM130 274h445q18 101 -38 159.5t-144 60.5q-93 -1 -167 -60.5t-96 -159.5zM356 680l58 -79l86 79h23
l-99 -96h-26l-65 96h23z" />
    <glyph glyph-name="Gcircumflex" unicode="&#x11c;" horiz-adv-x="821" 
d="M536 705q160 0 241 -106l-17 -13q-75 99 -228 99q-106 0 -196 -56t-140 -144t-50 -183q0 -117 72 -201t196 -84q115 0 217 74.5t136 202.5h-325l4 20h349q-34 -138 -140 -228t-244 -90q-103 0 -174 52t-97 131.5t-11 169.5q12 68 47.5 132t87 114t123 80t149.5 30z
M622 756l-58 79l-86 -79h-23l99 96h26l65 -96h-23z" />
    <glyph glyph-name="gcircumflex" unicode="&#x11d;" horiz-adv-x="581" 
d="M503 607l-58 79l-86 -79h-23l99 96h26l65 -96h-23zM104 205q0 138 89.5 222.5t220.5 84.5q73 0 146 -25l-89 -503q-16 -90 -75 -137t-138 -49q-59 -1 -97 13.5t-77 53.5l17 17q60 -65 160 -63q69 1 122 43t67 122l14 77q-43 -42 -80 -54t-87 -12q-93 1 -143 61.5
t-50 148.5zM536 470q-58 21 -124 21q-123 0 -205.5 -76t-82.5 -205q0 -81 45 -137.5t133 -58.5q92 0 167 74z" />
    <glyph glyph-name="Gbreve" unicode="&#x11e;" horiz-adv-x="821" 
d="M536 705q160 0 241 -106l-17 -13q-75 99 -228 99q-106 0 -196 -56t-140 -144t-50 -183q0 -117 72 -201t196 -84q115 0 217 74.5t136 202.5h-325l4 20h349q-34 -138 -140 -228t-244 -90q-103 0 -174 52t-97 131.5t-11 169.5q12 68 47.5 132t87 114t123 80t149.5 30z
M645 830h17q-19 -47 -67.5 -65t-89.5 0.5t-39 65.5h17q0 -28 21.5 -43.5t48.5 -15t54 15.5t38 42z" />
    <glyph glyph-name="gbreve" unicode="&#x11f;" horiz-adv-x="580" 
d="M528 701h17q-10 -29 -34 -48.5t-51 -24t-52 0.5t-40.5 24.5t-14.5 48.5h17q0 -28 20.5 -43.5t47 -15t53 15.5t37.5 42zM103 205q0 138 89.5 222.5t220.5 84.5q73 0 146 -25l-89 -503q-16 -90 -75 -137t-138 -49q-59 -1 -97 13.5t-77 53.5l17 17q60 -65 160 -63
q69 1 122 43t67 122l14 77q-43 -42 -80 -54t-87 -12q-93 1 -143 61.5t-50 148.5zM535 470q-58 21 -124 21q-123 0 -205.5 -76t-82.5 -205q0 -81 45 -137.5t133 -58.5q92 0 167 74z" />
    <glyph glyph-name="Gdotaccent" unicode="&#x120;" horiz-adv-x="821" 
d="M536 772l7 42h35l-7 -42h-35zM536 705q160 0 241 -106l-17 -13q-75 99 -228 99q-106 0 -196 -56t-140 -144t-50 -183q0 -117 72 -201t196 -84q115 0 217 74.5t136 202.5h-325l4 20h349q-34 -138 -140 -228t-244 -90q-103 0 -174 52t-97 131.5t-11 169.5q12 68 47.5 132
t87 114t123 80t149.5 30z" />
    <glyph glyph-name="gdotaccent" unicode="&#x121;" horiz-adv-x="582" 
d="M429 653l8 42h33l-8 -42h-33zM102 205q0 138 89.5 222.5t220.5 84.5q73 0 146 -25l-89 -503q-16 -90 -75 -137t-138 -49q-59 -1 -97 13.5t-77 53.5l17 17q60 -65 160 -63q69 1 122 43t67 122l14 77q-43 -42 -80 -54t-87 -12q-93 1 -143 61.5t-50 148.5zM534 470
q-58 21 -124 21q-123 0 -205.5 -76t-82.5 -205q0 -81 45 -137.5t133 -58.5q92 0 167 74z" />
    <glyph glyph-name="Gcommaaccent" unicode="&#x122;" horiz-adv-x="821" 
d="M381 -54h27q5 -63 -38 -124h-17q31 60 28 124zM536 705q160 0 241 -106l-17 -13q-75 99 -228 99q-106 0 -196 -56t-140 -144t-50 -183q0 -117 72 -201t196 -84q115 0 217 74.5t136 202.5h-325l4 20h349q-34 -138 -140 -228t-244 -90q-103 0 -174 52t-97 131.5t-11 169.5
q12 68 47.5 132t87 114t123 80t149.5 30z" />
    <glyph glyph-name="gcommaaccent" unicode="&#x123;" horiz-adv-x="582" 
d="M437 609h-24q-4 64 38 122h14q-31 -60 -28 -122zM102 205q0 138 89.5 222.5t220.5 84.5q73 0 146 -25l-89 -503q-16 -90 -75 -137t-138 -49q-59 -1 -97 13.5t-77 53.5l17 17q60 -65 160 -63q69 1 122 43t67 122l14 77q-43 -42 -80 -54t-87 -12q-93 1 -143 61.5t-50 148.5
zM534 470q-58 21 -124 21q-123 0 -205.5 -76t-82.5 -205q0 -81 45 -137.5t133 -58.5q92 0 167 74z" />
    <glyph glyph-name="Hcircumflex" unicode="&#x124;" horiz-adv-x="684" 
d="M535 0l60 339h-385l-60 -339h-22l123 700h22l-60 -340h385l60 340h22l-123 -700h-22zM550 749l-58 79l-86 -79h-23l99 96h26l65 -96h-23z" />
    <glyph glyph-name="hcircumflex" unicode="&#x125;" horiz-adv-x="606" 
d="M328 749l-58 79l-86 -79h-23l99 96h26l65 -96h-23zM380 509q93 -4 143 -61t33 -154l-52 -294h-22l52 294q13 71 -18 120.5t-83 65.5t-116 0.5t-113 -63.5l-74 -417h-21l123 700h22l-45 -256q80 69 171 65z" />
    <glyph glyph-name="Hbar" unicode="&#x126;" horiz-adv-x="683" 
d="M535 0l60 339h-385l-60 -339h-22l96 542h-63l3 19h63l24 139h22l-24 -139h385l24 139h22l-24 -139h60l-3 -19h-60l-96 -542h-22zM213 360h385l33 182h-385z" />
    <glyph glyph-name="hbar" unicode="&#x127;" horiz-adv-x="606" 
d="M380 509q93 -4 143 -61t33 -154l-52 -294h-22l52 294q13 71 -18 120.5t-83 65.5t-116 0.5t-113 -63.5l-74 -417h-21l107 604h-68l2 17h68l14 79h22l-14 -79h131l-2 -17h-131l-29 -160q80 69 171 65z" />
    <glyph glyph-name="Itilde" unicode="&#x128;" horiz-adv-x="281" 
d="M130 0l123 700h22l-123 -700h-22zM378 797l9 -8q-30 -38 -64 -38q-17 0 -44 18.5t-42 18.5q-29 0 -48 -25l-11 7q22 37 63 37q16 0 44.5 -18.5t43.5 -18.5q26 0 49 27z" />
    <glyph glyph-name="itilde" unicode="&#x129;" horiz-adv-x="241" 
d="M131 0h-22l90 508h22zM328 656l9 -8q-30 -38 -63 -38q-17 0 -44.5 18.5t-42.5 18.5q-28 0 -48 -25l-11 7q23 37 63 37q16 0 44.5 -18.5t43.5 -18.5q26 0 49 27z" />
    <glyph glyph-name="Imacron" unicode="&#x12a;" horiz-adv-x="281" 
d="M168 777l4 20h214l-4 -20h-214zM130 0l123 700h22l-123 -700h-22z" />
    <glyph glyph-name="imacron" unicode="&#x12b;" horiz-adv-x="241" 
d="M131 0h-22l90 508h22zM124 633l3 20h214l-3 -20h-214z" />
    <glyph glyph-name="Ibreve" unicode="&#x12c;" horiz-adv-x="281" 
d="M130 0l123 700h22l-123 -700h-22zM366 821h17q-19 -47 -68 -65t-89.5 0.5t-38.5 65.5h17q0 -28 21.5 -43.5t48.5 -15t54 15.5t38 42z" />
    <glyph glyph-name="ibreve" unicode="&#x12d;" horiz-adv-x="241" 
d="M131 0h-22l90 508h22zM318 691h17q-19 -47 -65.5 -65t-85 0.5t-36.5 65.5h17q0 -28 20 -43.5t45.5 -15t51 15.5t36.5 42z" />
    <glyph glyph-name="Iogonek" unicode="&#x12e;" horiz-adv-x="281" 
d="M131 3l123 697h22l-124 -700q-29 -16 -50 -42.5t-21 -49.5q0 -34 53 -34l-6 -16q-65 -5 -71 37q-7 40 41 84q15 13 33 24z" />
    <glyph glyph-name="iogonek" unicode="&#x12f;" horiz-adv-x="241" 
d="M219 657l8 44h28l-8 -44h-28zM198 508h22l-89 -508q-54 -29 -70 -69q-17 -41 28 -52q11 -3 25 -3l-6 -14q-71 -3 -75 41q-2 54 76 99z" />
    <glyph glyph-name="Idotaccent" unicode="&#x130;" horiz-adv-x="281" 
d="M266 802l8 42h30l-8 -42h-30zM130 0l123 700h22l-123 -700h-22z" />
    <glyph glyph-name="dotlessi" unicode="&#x131;" horiz-adv-x="241" 
d="M131 0h-22l90 508h22z" />
    <glyph glyph-name="IJ" unicode="&#x132;" horiz-adv-x="603" 
d="M130 0l123 700h22l-123 -700h-22zM286 17h22q64 0 120 44t70 119l88 501h-157l3 19h180l-92 -520q-15 -86 -79 -135t-137 -49h-22z" />
    <glyph glyph-name="ij" unicode="&#x133;" horiz-adv-x="509" 
d="M131 0h-22l90 508h22zM257 700l-9 -54h-28l9 54h28zM221 -201l3 20q104 0 122 105l103 583h22l-103 -583q-10 -60 -48.5 -92.5t-98.5 -32.5zM507 700l-9 -54h-28l9 54h28z" />
    <glyph glyph-name="Jcircumflex" unicode="&#x134;" horiz-adv-x="545" 
d="M79 140l20 6q17 -131 151 -131q63 0 119.5 45t70.5 120l88 500h-157l4 20h179l-92 -520q-15 -86 -79 -136t-137 -50q-72 0 -115 33t-52 113zM521 755l-58 79l-86 -79h-23l99 96h26l65 -96h-23z" />
    <glyph glyph-name="jcircumflex" unicode="&#x135;" horiz-adv-x="240" 
d="M-29 -201l4 20q103 0 121 105l103 583h22l-103 -583q-10 -60 -48.5 -92.5t-98.5 -32.5zM301 594l-60 79l-88 -79h-21l99 96h26l65 -96h-21z" />
    <glyph glyph-name="Kcommaaccent" unicode="&#x136;" horiz-adv-x="630" 
d="M318 -10h25q-2 -72 -41 -117h-14q34 66 30 117zM275 700l-70 -401l447 401h27l-339 -307l230 -393h-25l-222 378l-123 -106l-48 -272h-22l123 700h22z" />
    <glyph glyph-name="kcommaaccent" unicode="&#x137;" horiz-adv-x="518" 
d="M261 -34h23q-2 -65 -40 -113h-13q34 63 30 113zM230 700h21l-83 -475l339 282h27l-252 -211l180 -296h-24l-173 282l-102 -82l-35 -200h-21z" />
    <glyph glyph-name="kgreenlandic" unicode="&#x138;" horiz-adv-x="518" 
d="M196 507h21l-49 -282l339 282h27l-252 -211q29 -47 90 -148t90 -148h-24l-173 282l-102 -82l-35 -200h-21z" />
    <glyph glyph-name="Lacute" unicode="&#x139;" horiz-adv-x="478" 
d="M283 750h-20l72 92h29zM451 20l-4 -20h-317l123 700h22l-119 -680h295z" />
    <glyph glyph-name="lacute" unicode="&#x13a;" horiz-adv-x="273" 
d="M336 845l-82 -94h-19l72 94h29zM214 18l-3 -19q-54 0 -76.5 27t-11.5 89l103 585h22l-103 -585q-9 -51 7 -74t62 -23z" />
    <glyph glyph-name="Lcommaaccent" unicode="&#x13b;" horiz-adv-x="478" 
d="M283 -40h21q1 -28 -10 -61.5t-28 -53.5h-11q31 60 28 115zM451 20l-4 -20h-317l123 700h22l-119 -680h295z" />
    <glyph glyph-name="lcommaaccent" unicode="&#x13c;" horiz-adv-x="273" 
d="M146 -47h22q2 -62 -34 -112h-13q29 60 25 112zM214 18l-3 -19q-54 0 -76.5 27t-11.5 89l103 585h22l-103 -585q-9 -51 7 -74t62 -23z" />
    <glyph glyph-name="Lcaron" unicode="&#x13d;" horiz-adv-x="478" 
d="M461 700h22q2 -29 -9 -64.5t-29 -57.5h-11q31 65 27 122zM451 20l-4 -20h-317l123 700h22l-119 -680h295z" />
    <glyph glyph-name="lcaron" unicode="&#x13e;" horiz-adv-x="272" 
d="M362 701h23q0 -66 -34 -119h-15q28 60 26 119zM214 18l-3 -19q-54 0 -76.5 27t-11.5 89l103 585h22l-103 -585q-9 -51 7 -74t62 -23z" />
    <glyph glyph-name="Ldot" unicode="&#x13f;" horiz-adv-x="478" 
d="M371 372l6 37h33l-6 -37h-33zM451 20l-4 -20h-317l123 700h22l-119 -680h295z" />
    <glyph glyph-name="ldot" unicode="&#x140;" horiz-adv-x="265" 
d="M214 18l-3 -19q-54 0 -76.5 27t-11.5 89l103 585h22l-103 -585q-9 -51 7 -74t62 -23zM274 372l7 37h33l-7 -37h-33z" />
    <glyph glyph-name="Lslash" unicode="&#x141;" horiz-adv-x="478" 
d="M450 20l-3 -20h-317l59 336l-87 -46l4 22l87 46l60 342h22l-58 -329l149 80l-4 -23l-149 -79l-58 -329h295z" />
    <glyph glyph-name="lslash" unicode="&#x142;" horiz-adv-x="272" 
d="M214 18l-3 -19q-54 0 -76.5 27t-11.5 89l39 220l-56 -28l4 23l56 28l60 342h22l-58 -329l102 52l-4 -23l-102 -52l-41 -233q-9 -51 7 -74t62 -23z" />
    <glyph glyph-name="Nacute" unicode="&#x143;" horiz-adv-x="729" 
d="M581 846l-85 -96h-19l73 96h31zM581 12h2l121 688h22l-123 -701h-41l-287 688h-2l-121 -687h-22l124 701h40z" />
    <glyph glyph-name="nacute" unicode="&#x144;" horiz-adv-x="616" 
d="M484 707l-83 -96h-19l73 96h29zM196 490q88 27 163 27q103 0 162 -56.5t44 -160.5l-53 -300h-22l53 300q16 91 -39.5 143.5t-150.5 52.5q-67 0 -138 -22l-84 -474h-21z" />
    <glyph glyph-name="Ncommaaccent" unicode="&#x145;" horiz-adv-x="729" 
d="M352 -18h26q1 -60 -37 -121h-17q31 59 28 121zM581 12h2l121 688h22l-123 -701h-41l-287 688h-2l-121 -687h-22l124 701h40z" />
    <glyph glyph-name="ncommaaccent" unicode="&#x146;" horiz-adv-x="614" 
d="M315 -31h-24q3 -62 -28 -121h15q37 55 37 121zM194 490q88 27 163 27q103 0 162 -56.5t44 -160.5l-53 -300h-22l53 300q16 91 -39.5 143.5t-150.5 52.5q-67 0 -138 -22l-84 -474h-21z" />
    <glyph glyph-name="Ncaron" unicode="&#x147;" horiz-adv-x="729" 
d="M581 12h2l121 688h22l-123 -701h-41l-287 688h-2l-121 -687h-22l124 701h40zM452 844l58 -79l86 79h23l-99 -96h-26l-65 96h23z" />
    <glyph glyph-name="ncaron" unicode="&#x148;" horiz-adv-x="607" 
d="M346 704l58 -81l86 81h23l-99 -96h-26l-65 96h23zM189 490q88 27 163 27q103 0 162 -56.5t44 -160.5l-53 -300h-22l53 300q16 91 -39.5 143.5t-150.5 52.5q-67 0 -138 -22l-84 -474h-21z" />
    <glyph glyph-name="napostrophe" unicode="&#x149;" horiz-adv-x="608" 
d="M134 699h25q2 -27 -9.5 -61.5t-28.5 -56.5h-15q31 70 28 118zM195 490q88 27 163 27q103 0 162 -56.5t43 -160.5l-52 -300h-23l53 300q16 91 -39 143.5t-150 52.5q-68 0 -139 -22l-83 -474h-21z" />
    <glyph glyph-name="Eng" unicode="&#x14a;" horiz-adv-x="729" 
d="M294 701l293 -668l117 667h23l-125 -707q-24 -141 -153 -136l3 20q59 1 87 26.5t38 89.5l1 6h-1l-302 688h-2l-121 -687h-22l124 701h40z" />
    <glyph glyph-name="eng" unicode="&#x14b;" horiz-adv-x="607" 
d="M190 490q88 27 163 27q103 0 162 -56.5t44 -160.5l-63 -359q-26 -142 -154 -132l3 17q60 -1 89.5 28t39.5 87l63 359q16 91 -39.5 143.5t-150.5 52.5q-67 0 -138 -22l-84 -474h-21z" />
    <glyph glyph-name="Omacron" unicode="&#x14c;" horiz-adv-x="848" 
d="M454 792l3 19h219l-3 -19h-219zM549 711q135 -1 215.5 -86.5t80.5 -217.5q0 -101 -40 -183.5t-103 -132t-136 -76.5t-145 -27q-120 0 -207.5 78t-87.5 220q0 122 60 220.5t156 151.5t207 53zM545 691q-161 0 -279 -114t-118 -287q0 -133 82 -207.5t195 -74.5
q54 0 109 15.5t107 48t92.5 78.5t65 112t24.5 143q0 124 -75.5 205t-202.5 81z" />
    <glyph glyph-name="omacron" unicode="&#x14d;" 
d="M318 631l4 19h219l-4 -19h-219zM121 210q0 -97 58.5 -148.5t136.5 -51.5q47 0 94.5 16.5t90 49t69.5 89t27 128.5q0 96 -59 149t-137 53q-46 0 -94 -17.5t-90 -51t-69 -90t-27 -126.5zM617 295q0 -136 -91.5 -219.5t-212.5 -83.5q-92 0 -152.5 59.5t-60.5 157.5
q0 130 93 217t211 87q93 0 153 -59.5t60 -158.5z" />
    <glyph glyph-name="Obreve" unicode="&#x14e;" horiz-adv-x="848" 
d="M549 711q135 -1 215.5 -86.5t80.5 -217.5q0 -101 -40 -183.5t-103 -132t-136 -76.5t-145 -27q-120 0 -207.5 78t-87.5 220q0 122 60 220.5t156 151.5t207 53zM545 691q-161 0 -279 -114t-118 -287q0 -133 82 -207.5t195 -74.5q54 0 109 15.5t107 48t92.5 78.5t65 112
t24.5 143q0 124 -75.5 205t-202.5 81zM650 836h17q-19 -47 -67.5 -65t-89.5 0.5t-39 65.5h17q0 -28 21.5 -43.5t48.5 -15t54 15.5t38 42z" />
    <glyph glyph-name="obreve" unicode="&#x14f;" 
d="M121 210q0 -97 58.5 -148.5t136.5 -51.5q47 0 94.5 16.5t90 49t69.5 89t27 128.5q0 96 -59 149t-137 53q-46 0 -94 -17.5t-90 -51t-69 -90t-27 -126.5zM617 295q0 -136 -91.5 -219.5t-212.5 -83.5q-92 0 -152.5 59.5t-60.5 157.5q0 130 93 217t211 87q93 0 153 -59.5
t60 -158.5zM521 675h17q-19 -47 -67.5 -65t-89.5 0.5t-39 65.5h17q0 -28 21.5 -43.5t48.5 -15t54 15.5t38 42z" />
    <glyph glyph-name="Ohungarumlaut" unicode="&#x150;" horiz-adv-x="848" 
d="M549 711q135 -1 215.5 -86.5t80.5 -217.5q0 -101 -40 -183.5t-103 -132t-136 -76.5t-145 -27q-120 0 -207.5 78t-87.5 220q0 122 60 220.5t156 151.5t207 53zM545 691q-161 0 -279 -114t-118 -287q0 -133 82 -207.5t195 -74.5q54 0 109 15.5t107 48t92.5 78.5t65 112
t24.5 143q0 124 -75.5 205t-202.5 81zM477 759l65 89h31l-75 -89h-21zM589 759l65 89h31l-75 -89h-21z" />
    <glyph glyph-name="ohungarumlaut" unicode="&#x151;" 
d="M121 210q0 -97 58.5 -148.5t136.5 -51.5q47 0 94.5 16.5t90 49t69.5 89t27 128.5q0 96 -59 149t-137 53q-46 0 -94 -17.5t-90 -51t-69 -90t-27 -126.5zM617 295q0 -136 -91.5 -219.5t-212.5 -83.5q-92 0 -152.5 59.5t-60.5 157.5q0 130 93 217t211 87q93 0 153 -59.5
t60 -158.5zM340 597l65 89h31l-75 -89h-21zM452 597l65 89h31l-75 -89h-21z" />
    <glyph glyph-name="OE" unicode="&#x152;" horiz-adv-x="922" 
d="M979 697l-4 -20h-316l-53 -304h312l-4 -20h-313l-58 -333h317l-4 -20h-354q-47 -11 -87 -11q-125 0 -208 77t-83 219q0 178 119.5 300.5t298.5 122.5q43 0 85 -11h352zM153 352q-15 -85 0.5 -152t54.5 -108t92.5 -62t118.5 -21q46 0 104 16l115 648q-48 16 -100 16
q-86 0 -164 -35t-139.5 -113.5t-81.5 -188.5z" />
    <glyph glyph-name="oe" unicode="&#x153;" horiz-adv-x="1103" 
d="M800 14q106 0 180 70l12 -14q-51 -44 -93 -60t-102 -16q-87 0 -139.5 53t-61.5 132q-37 -88 -113.5 -137.5t-165.5 -49.5q-92 0 -152.5 59.5t-60.5 157.5q0 130 93 217t211 87q85 0 143 -48.5t68 -131.5q35 80 106.5 130.5t162.5 51.5q106 1 164.5 -77t28.5 -184h-464
q-15 -100 36.5 -170t146.5 -70zM125 210q0 -97 58.5 -148.5t136.5 -51.5q91 0 172.5 61t103.5 181l2 11l1 1q8 56 -6.5 101.5t-44 73t-66.5 42t-77 14.5q-46 0 -94 -17.5t-90 -51t-69 -90t-27 -126.5zM620 274h446q18 101 -38 159.5t-144 60.5q-93 -1 -167.5 -60.5
t-96.5 -159.5z" />
    <glyph glyph-name="Racute" unicode="&#x154;" horiz-adv-x="616" 
d="M518 837l-80 -91h-17l69 91h28zM353 310l189 -310h-26l-190 309h-120l-54 -309h-22l123 700h194q83 0 131.5 -42t48.5 -117q0 -102 -63 -166.5t-187 -64.5h-24zM210 330h167q112 0 170.5 55.5t58.5 154.5q0 68 -44 104t-119 36h-171z" />
    <glyph glyph-name="racute" unicode="&#x155;" horiz-adv-x="404" 
d="M191 507h19l-16 -96q31 50 82.5 76.5t102 24t85.5 -30.5l-12 -16q-34 24 -78 25.5t-83 -16t-69.5 -55.5t-39.5 -87l-59 -332h-21zM418 695l-80 -91h-17l69 91h28z" />
    <glyph glyph-name="Rcommaaccent" unicode="&#x156;" horiz-adv-x="616" 
d="M319 -12h24q3 -56 -36 -118h-15q32 58 27 118zM353 310l189 -310h-26l-190 309h-120l-54 -309h-22l123 700h194q83 0 131.5 -42t48.5 -117q0 -102 -63 -166.5t-187 -64.5h-24zM210 330h167q112 0 170.5 55.5t58.5 154.5q0 68 -44 104t-119 36h-171z" />
    <glyph glyph-name="rcommaaccent" unicode="&#x157;" horiz-adv-x="404" 
d="M192 507h19l-16 -96q31 50 82 76.5t101.5 24t85.5 -30.5l-12 -16q-34 24 -78 25.5t-83 -16t-69.5 -55.5t-39.5 -87l-59 -332h-21zM95 -21h23q4 -55 -34 -116h-15q32 59 26 116z" />
    <glyph glyph-name="Rcaron" unicode="&#x158;" horiz-adv-x="616" 
d="M353 310l189 -310h-26l-190 309h-120l-54 -309h-22l123 700h194q83 0 131.5 -42t48.5 -117q0 -102 -63 -166.5t-187 -64.5h-24zM210 330h167q112 0 170.5 55.5t58.5 154.5q0 68 -44 104t-119 36h-171zM379 846l58 -79l86 79h23l-99 -96h-26l-65 96h23z" />
    <glyph glyph-name="rcaron" unicode="&#x159;" horiz-adv-x="404" 
d="M191 507h19l-16 -96q31 50 82.5 76.5t102 24t85.5 -30.5l-12 -16q-34 24 -78 25.5t-83 -16t-69.5 -55.5t-39.5 -87l-59 -332h-21zM288 688l58 -79l86 79h23l-99 -96h-26l-65 96h23z" />
    <glyph glyph-name="Sacute" unicode="&#x15a;" horiz-adv-x="560" 
d="M504 853l-80 -95h-18l72 95h26zM221 545q-8 -39 1 -69t33 -48.5t45 -28.5t50 -19q27 -8 50 -20t46 -30.5t35.5 -42.5t18.5 -56.5t-5 -71.5q-18 -82 -84.5 -124t-142.5 -42q-61 0 -107 29.5t-64 86.5l21 11q17 -52 57.5 -78t95.5 -27q76 -1 131.5 38t70.5 108
q7 48 0.5 80.5t-30.5 57.5t-49 39t-55 23q-167 49 -140 184q16 77 76 119.5t131 42.5q111 0 149 -90l-21 -9q-20 43 -51.5 60.5t-79.5 17.5q-63 0 -114.5 -35.5t-67.5 -105.5z" />
    <glyph glyph-name="sacute" unicode="&#x15b;" horiz-adv-x="439" 
d="M270 269q55 -11 89 -41t34 -78q0 -73 -54.5 -115t-124.5 -42q-97 0 -135 65l15 14q39 -59 123 -59q54 0 98 30.5t55 87.5q8 52 -24.5 81t-83.5 38q-48 8 -79.5 38.5t-31.5 75.5q0 67 52 108t120 41q64 0 104 -39l-12 -14q-23 19 -42.5 26.5t-50.5 7.5q-61 0 -105.5 -35
t-44.5 -95q0 -42 29 -65t69 -30zM402 678l-79 -95h-18l71 95h26z" />
    <glyph glyph-name="Scircumflex" unicode="&#x15c;" horiz-adv-x="560" 
d="M221 545q-8 -39 1 -69t33 -48.5t45 -28.5t50 -19q27 -8 50 -20t46 -30.5t35.5 -42.5t18.5 -56.5t-5 -71.5q-18 -82 -84.5 -124t-142.5 -42q-61 0 -107 29.5t-64 86.5l21 11q17 -52 57.5 -78t95.5 -27q76 -1 131.5 38t70.5 108q7 48 0.5 80.5t-30.5 57.5t-49 39t-55 23
q-167 49 -140 184q16 77 76 119.5t131 42.5q111 0 149 -90l-21 -9q-20 43 -51.5 60.5t-79.5 17.5q-63 0 -114.5 -35.5t-67.5 -105.5zM491 754l-58 79l-86 -79h-23l99 96h26l65 -96h-23z" />
    <glyph glyph-name="scircumflex" unicode="&#x15d;" horiz-adv-x="439" 
d="M270 269q55 -11 89 -41t34 -78q0 -73 -54.5 -115t-124.5 -42q-97 0 -135 65l15 14q39 -59 123 -59q54 0 98 30.5t55 87.5q8 52 -24.5 81t-83.5 38q-48 8 -79.5 38.5t-31.5 75.5q0 67 52 108t120 41q64 0 104 -39l-12 -14q-23 19 -42.5 26.5t-50.5 7.5q-61 0 -105.5 -35
t-44.5 -95q0 -42 29 -65t69 -30zM405 583l-58 79l-86 -79h-23l98 96h26l66 -96h-23z" />
    <glyph glyph-name="Scedilla" unicode="&#x15e;" horiz-adv-x="560" 
d="M221 545q-8 -39 1 -69t33 -48.5t45 -28.5t50 -19q27 -8 50 -20t46 -30.5t35.5 -42.5t18.5 -56.5t-5 -71.5q-17 -77 -78 -119t-133 -46l-21 -33q55 -1 71 -30.5t-9.5 -58.5t-72.5 -29q-34 0 -63 18l6 15q25 -15 56 -15q42 0 59.5 21.5t1.5 42.5t-56 21q-16 0 -23 -1l34 48
q-61 1 -106.5 30t-63.5 86l21 11q17 -52 57.5 -78t95.5 -27q76 -1 131.5 38t70.5 108q7 48 0.5 80.5t-30.5 57.5t-49 39t-55 23q-167 49 -140 184q16 77 76 119.5t131 42.5q111 0 149 -90l-21 -9q-20 43 -51.5 60.5t-79.5 17.5q-63 0 -114.5 -35.5t-67.5 -105.5z" />
    <glyph glyph-name="scedilla" unicode="&#x15f;" horiz-adv-x="438" 
d="M270 269q55 -11 89 -41t34 -78q0 -66 -46.5 -107t-110.5 -48l-16 -26q46 -1 59.5 -27t-8.5 -51t-60 -25q-31 0 -56 16l5 13q23 -12 50 -12q34 0 48.5 18.5t1 36.5t-45.5 18q-14 0 -20 -1l25 38h-5q-97 0 -135 65l15 14q39 -59 123 -59q54 0 98 30.5t55 87.5
q8 52 -24.5 81t-83.5 38q-48 8 -79.5 38.5t-31.5 75.5q0 67 52 108t120 41q64 0 104 -39l-12 -14q-23 19 -42.5 26.5t-50.5 7.5q-61 0 -105.5 -35t-44.5 -95q0 -42 29 -65t69 -30z" />
    <glyph glyph-name="Scaron" unicode="&#x160;" horiz-adv-x="560" 
d="M221 545q-8 -39 1 -69t33 -48.5t45 -28.5t50 -19q27 -8 50 -20t46 -30.5t35.5 -42.5t18.5 -56.5t-5 -71.5q-18 -82 -84.5 -124t-142.5 -42q-61 0 -107 29.5t-64 86.5l21 11q17 -52 57.5 -78t95.5 -27q76 -1 131.5 38t70.5 108q7 48 0.5 80.5t-30.5 57.5t-49 39t-55 23
q-167 49 -140 184q16 77 76 119.5t131 42.5q111 0 149 -90l-21 -9q-20 43 -51.5 60.5t-79.5 17.5q-63 1 -114.5 -35t-67.5 -106zM368 867l58 -79l86 79h23l-99 -96h-26l-65 96h23z" />
    <glyph glyph-name="scaron" unicode="&#x161;" horiz-adv-x="439" 
d="M270 269q55 -11 89 -41t33 -78q-1 -74 -54 -115.5t-124 -41.5q-97 0 -135 65l15 14q39 -59 123 -59q54 0 98 30.5t55 87.5q8 52 -24.5 81t-83.5 38q-54 9 -84 41.5t-25 89.5q6 60 57 96t113 36q64 0 104 -39l-12 -14q-23 19 -42.5 26.5t-50.5 7.5q-61 0 -105.5 -35
t-44.5 -95q0 -42 29 -65t69 -30zM285 715l58 -79l86 79h23l-99 -96h-26l-65 96h23z" />
    <glyph glyph-name="Tcommaaccent" unicode="&#x162;" horiz-adv-x="450" 
d="M149 700h401l-4 -21h-189l-125 -711q40 -1 56.5 -19t11.5 -44q-6 -28 -33.5 -46.5t-62.5 -18.5q-28 0 -53 12q1 1 3 8.5t2 8.5q19 -11 47.5 -11.5t51.5 13.5t23 40q0 20 -19 33t-48 9l9 47h-5l120 679h-190z" />
    <glyph glyph-name="tcommaaccent" unicode="&#x163;" horiz-adv-x="313" 
d="M247 17l-3 -18q-45 0 -70 13l-6 -31q39 -1 55 -18t11 -41q-5 -27 -31.5 -44.5t-59.5 -17.5q-26 0 -51 11q0 8 5 18q18 -11 45 -12t49.5 12t22.5 38q0 19 -18 31.5t-46 8.5l11 52q-37 31 -24 104l64 365h-58l3 19h59l34 193h21l-34 -193h104l-3 -19h-105l-64 -365
q-9 -53 11 -79.5t78 -26.5z" />
    <glyph glyph-name="Tcaron" unicode="&#x164;" horiz-adv-x="451" 
d="M149 700h401l-4 -21h-189l-120 -679h-22l120 679h-190zM304 847l58 -79l86 79h23l-99 -96h-26l-65 96h23z" />
    <glyph glyph-name="tcaron" unicode="&#x165;" horiz-adv-x="313" 
d="M408 699h22q3 -57 -34 -119h-15q31 60 27 119zM247 17l-4 -18q-64 -1 -90.5 29.5t-15.5 94.5l64 365h-58l3 19h59l34 193h21l-34 -193h104l-3 -19h-105l-64 -365q-9 -53 11 -79.5t78 -26.5z" />
    <glyph glyph-name="Tbar" unicode="&#x166;" horiz-adv-x="450" 
d="M137 337l3 16h137l57 326h-190l4 21h401l-4 -21h-189l-57 -326h142l-3 -16h-142l-59 -337h-22l59 337h-137z" />
    <glyph glyph-name="tbar" unicode="&#x167;" horiz-adv-x="313" 
d="M247 17l-3 -18q-64 -1 -90.5 29.5t-15.5 94.5l26 148h-57l3 16h57l35 201h-59l4 19h59l34 193h21l-34 -193h104l-4 -19h-104l-35 -201h111l-3 -16h-111l-26 -148q-9 -53 10.5 -79.5t77.5 -26.5z" />
    <glyph glyph-name="Utilde" unicode="&#x168;" horiz-adv-x="655" 
d="M243 700h22l-91 -516q-16 -101 61 -147q67 -39 155 -15q95 25 136 107q13 25 19 55l91 516h22l-91 -516q-19 -109 -120 -161q-89 -46 -179 -23q-88 22 -112 96q-13 39 -4 88zM570 799l10 -8q-30 -38 -64 -38q-17 0 -44 18.5t-42 18.5q-29 0 -49 -25l-10 7q22 37 63 37
q16 0 44.5 -18.5t43.5 -18.5q26 0 48 27z" />
    <glyph glyph-name="utilde" unicode="&#x169;" horiz-adv-x="615" 
d="M532 692l10 -8q-30 -38 -64 -38q-17 0 -44.5 18.5t-42.5 18.5q-28 0 -48 -25l-11 7q23 37 64 37q16 0 44 -18.5t43 -18.5q26 0 49 27zM507 17q-88 -27 -163 -27q-103 0 -162 56.5t-43 160.5l52 300h23l-53 -300q-16 -91 39 -143.5t150 -52.5q68 0 139 22l83 474h21z" />
    <glyph glyph-name="Umacron" unicode="&#x16a;" horiz-adv-x="655" 
d="M363 794l3 20h219l-3 -20h-219zM243 700h22l-91 -516q-16 -101 61 -147q67 -39 155 -15q95 25 136 107q13 25 19 55l91 516h22l-91 -516q-19 -109 -120 -161q-89 -46 -179 -23q-88 22 -112 96q-13 39 -4 88z" />
    <glyph glyph-name="umacron" unicode="&#x16b;" horiz-adv-x="615" 
d="M329 682l3 18h215l-3 -18h-215zM507 17q-88 -27 -163 -27q-103 0 -162 56.5t-43 160.5l52 300h23l-53 -300q-16 -91 39 -143.5t150 -52.5q68 0 139 22l83 474h21z" />
    <glyph glyph-name="Ubreve" unicode="&#x16c;" horiz-adv-x="655" 
d="M243 700h22l-91 -516q-16 -101 61 -147q67 -39 155 -15q95 25 136 107q13 25 19 55l91 516h22l-91 -516q-19 -109 -120 -161q-89 -46 -179 -23q-88 22 -112 96q-13 39 -4 88zM568 820h17q-19 -47 -67.5 -65t-89.5 0.5t-39 65.5h17q0 -28 21.5 -43.5t48.5 -15t54 15.5
t38 42z" />
    <glyph glyph-name="ubreve" unicode="&#x16d;" horiz-adv-x="613" 
d="M534 706h17q-19 -47 -68 -65t-89.5 0.5t-38.5 65.5h17q0 -28 21.5 -43.5t48.5 -15t54 15.5t38 42zM507 17q-88 -27 -163 -27q-103 0 -162 56.5t-43 160.5l52 300h23l-53 -300q-16 -91 39 -143.5t150 -52.5q68 0 139 22l83 474h21z" />
    <glyph glyph-name="Uring" unicode="&#x16e;" horiz-adv-x="655" 
d="M243 700h22l-91 -516q-16 -101 61 -147q67 -39 155 -15q95 25 136 107q13 25 19 55l91 516h22l-91 -516q-19 -109 -120 -161q-89 -46 -179 -23q-88 22 -112 96q-13 39 -4 88zM479 851q41 1 47 -34q5 -34 -23 -59q-19 -15 -43 -15q-42 0 -48 35q-6 34 23 58q18 16 44 15z
M476 834q-33 1 -45 -29q-11 -27 10 -41q9 -5 21 -5q32 0 44 30q11 27 -9 40q-8 5 -21 5z" />
    <glyph glyph-name="uring" unicode="&#x16f;" horiz-adv-x="613" 
d="M428 691q41 1 47 -34q5 -34 -23 -59q-19 -15 -43 -15q-42 0 -48 35q-6 34 23 58q18 16 44 15zM425 674q-33 1 -44 -29q-11 -27 10 -41q9 -5 21 -5q32 0 44 30q11 27 -10 40q-8 5 -21 5zM507 17q-88 -27 -163 -27q-103 0 -162 56.5t-43 160.5l52 300h23l-53 -300
q-16 -91 39 -143.5t150 -52.5q68 0 139 22l83 474h21z" />
    <glyph glyph-name="Uhungarumlaut" unicode="&#x170;" horiz-adv-x="655" 
d="M243 700h22l-91 -516q-16 -101 61 -147q67 -39 155 -15q95 25 136 107q13 25 19 55l91 516h22l-91 -516q-19 -109 -120 -161q-89 -46 -179 -23q-88 22 -112 96q-13 39 -4 88zM383 751l65 89h31l-75 -89h-21zM495 751l65 89h31l-75 -89h-21z" />
    <glyph glyph-name="uhungarumlaut" unicode="&#x171;" horiz-adv-x="615" 
d="M333 613l65 89h31l-75 -89h-21zM445 613l65 89h31l-75 -89h-21zM507 17q-88 -27 -163 -27q-103 0 -162 56.5t-43 160.5l52 300h23l-53 -300q-16 -91 39 -143.5t150 -52.5q68 0 139 22l83 474h21z" />
    <glyph glyph-name="Uogonek" unicode="&#x172;" horiz-adv-x="655" 
d="M244 700h22l-91 -516q-16 -101 61 -147q67 -39 155 -15q95 25 136 107q13 25 19 55l91 516h22l-91 -516q-11 -66 -53.5 -111t-102.5 -66q-34 -22 -44.5 -51t4.5 -50.5t49 -23.5l-11 -21q-36 4 -55.5 26.5t-13 54t42.5 58.5q-64 -14 -121 0.5t-90 63t-20 120.5z" />
    <glyph glyph-name="uogonek" unicode="&#x173;" horiz-adv-x="615" 
d="M502 -128q-37 1 -55.5 22.5t-9.5 52.5t46 57l1 6q-77 -20 -140 -20q-103 0 -162 56.5t-43 160.5l52 300h23l-53 -300q-16 -91 39 -143.5t150 -52.5q68 0 139 22l83 474h21l-88 -503q-50 -36 -47 -73t55 -42z" />
    <glyph glyph-name="Wcircumflex" unicode="&#x174;" horiz-adv-x="949" 
d="M289 11l273 563h34l75 -563h2l318 689h22l-325 -701h-37l-75 560l-273 -560h-37l-77 701h22l76 -689h2zM681 748l-58 79l-86 -79h-23l99 96h26l65 -96h-23z" />
    <glyph glyph-name="wcircumflex" unicode="&#x175;" horiz-adv-x="716" 
d="M220 11l212 497h32l38 -497h2l230 496h21l-236 -509h-39l-34 492h-2l-208 -492h-39l-56 509h21l56 -496h2zM537 594l-58 79l-86 -79h-23l99 96h26l65 -96h-23z" />
    <glyph glyph-name="Ycircumflex" unicode="&#x176;" horiz-adv-x="568" 
d="M654 700l-310 -417l-49 -283h-21l49 283l-161 417h25l151 -397l292 397h24zM493 747l-58 79l-86 -79h-23l99 96h26l65 -96h-23z" />
    <glyph glyph-name="ycircumflex" unicode="&#x177;" horiz-adv-x="502" 
d="M73 -201l3 18q41 1 58.5 11.5t40.5 46.5l70 122q-69 302 -118 510h23l110 -484l274 484h22l-361 -637q-23 -43 -49 -57t-68 -14h-5zM436 594l-58 79l-86 -79h-23l99 96h26l65 -96h-23z" />
    <glyph glyph-name="Ydieresis" unicode="&#x178;" horiz-adv-x="567" 
d="M654 700l-310 -417l-49 -283h-21l50 284l-162 416h25l151 -397l292 397h24zM355 777h-34l7 37h34zM528 777h-34l7 37h34z" />
    <glyph glyph-name="Zacute" unicode="&#x179;" horiz-adv-x="568" 
d="M528 856l-84 -99h-21l75 99h30zM596 679h-375l3 21h401l-3 -19l-528 -660h417l-4 -21h-442l4 20z" />
    <glyph glyph-name="zacute" unicode="&#x17a;" horiz-adv-x="455" 
d="M422 681l-83 -99h-21l74 99h30zM447 487h-283l3 20h307l-3 -21l-382 -465h310l-4 -21h-332l4 23z" />
    <glyph glyph-name="Zdotaccent" unicode="&#x17b;" horiz-adv-x="568" 
d="M430 773l6 35h29l-6 -35h-29zM596 679h-375l3 21h401l-3 -19l-528 -660h417l-4 -21h-442l4 20z" />
    <glyph glyph-name="zdotaccent" unicode="&#x17c;" horiz-adv-x="455" 
d="M339 628l6 35h29l-6 -35h-29zM447 487h-283l3 20h307l-3 -21l-382 -465h310l-4 -21h-332l4 23z" />
    <glyph glyph-name="Zcaron" unicode="&#x17d;" horiz-adv-x="562" 
d="M590 679h-375l3 21h401l-3 -19l-528 -660h417l-4 -21h-442l4 20zM386 872l58 -79l86 79h23l-99 -96h-26l-65 96h23z" />
    <glyph glyph-name="zcaron" unicode="&#x17e;" horiz-adv-x="457" 
d="M447 487h-283l3 20h307l-3 -21l-382 -465h310l-4 -21h-332l4 23zM301 721l58 -79l86 79h23l-99 -96h-26l-65 96h23z" />
    <glyph glyph-name="longs" unicode="&#x17f;" horiz-adv-x="250" 
d="M379 701l-4 -20q-57 -1 -88.5 -26t-41.5 -82l-101 -573h-21l86 486h-56l3 21h56l12 66q23 128 155 128z" />
    <glyph glyph-name="florin" unicode="&#x192;" horiz-adv-x="491" 
d="M585 700l-3 -16q-63 1 -99.5 -35.5t-63.5 -116.5l-24 -65h113l-7 -17h-112l-182 -494q-57 -153 -194 -153h-18l6 19h17q117 0 169 137l181 491h-95l7 17h94l23 64q33 97 76.5 133.5t111.5 35.5z" />
    <glyph glyph-name="Scommaaccent" unicode="&#x218;" horiz-adv-x="560" 
d="M250 -53h25q4 -51 -34 -110h-15q30 57 24 110zM221 545q-8 -39 1 -69t33 -48.5t45 -28.5t50 -19q27 -8 50 -20t46 -30.5t35.5 -42.5t18.5 -56.5t-5 -71.5q-18 -82 -84.5 -124t-142.5 -42q-61 0 -107 29.5t-64 86.5l21 11q17 -52 57.5 -78t95.5 -27q76 -1 131.5 38
t70.5 108q7 48 0.5 80.5t-30.5 57.5t-49 39t-55 23q-167 49 -140 184q16 77 76 119.5t131 42.5q111 0 149 -90l-21 -9q-20 43 -51.5 60.5t-79.5 17.5q-63 0 -114.5 -35.5t-67.5 -105.5z" />
    <glyph glyph-name="scommaaccent" unicode="&#x219;" horiz-adv-x="439" 
d="M194 -53h22q0 -65 -32 -106h-13q28 50 23 106zM270 269q55 -11 89 -41t34 -78q0 -73 -54.5 -115t-124.5 -42q-97 0 -135 65l15 14q39 -59 123 -59q54 0 98 30.5t55 87.5q8 52 -24.5 81t-83.5 38q-48 8 -79.5 38.5t-31.5 75.5q0 67 52 108t120 41q64 0 104 -39l-12 -14
q-23 19 -42.5 26.5t-50.5 7.5q-61 0 -105.5 -35t-44.5 -95q0 -42 29 -65t69 -30z" />
    <glyph glyph-name="uni021A" unicode="&#x21a;" horiz-adv-x="440" 
d="M200 -42h25q1 -60 -37 -117h-17q34 65 29 117zM143 700h401l-4 -21h-189l-120 -679h-22l120 679h-190z" />
    <glyph glyph-name="uni021B" unicode="&#x21b;" horiz-adv-x="313" 
d="M160 -61h25q0 -56 -35 -115h-17q31 61 27 115zM247 17l-4 -18q-64 -1 -90.5 29.5t-15.5 94.5l64 365h-58l3 19h59l34 193h21l-34 -193h104l-3 -19h-105l-64 -365q-9 -53 11 -79.5t78 -26.5z" />
    <glyph glyph-name="circumflex" unicode="&#x2c6;" horiz-adv-x="509" 
d="M459 752l-58 79l-86 -79h-23l99 96h26l65 -96h-23z" />
    <glyph glyph-name="caron" unicode="&#x2c7;" horiz-adv-x="509" 
d="M333 858l58 -79l86 79h23l-99 -96h-26l-65 96h23z" />
    <glyph glyph-name="periodcenterd" unicode="&#x2d8;" horiz-adv-x="509" 
d="M298 847h17q-7 -50 40 -66q45 -15 88 13q30 20 37 53h17q-14 -60 -74 -80q-56 -19 -97 9q-35 25 -28 71z" />
    <glyph glyph-name="dotaccent" unicode="&#x2d9;" horiz-adv-x="510" 
d="M371 767l7 39h36l-7 -39h-36z" />
    <glyph glyph-name="ring" unicode="&#x2da;" horiz-adv-x="510" 
d="M407 859q41 1 47 -34q6 -34 -23 -59q-19 -15 -43 -15q-42 0 -48 35q-6 34 23 58q19 16 44 15zM404 842q-33 1 -44 -29q-11 -27 10 -41q9 -5 21 -5q32 0 44 30q11 27 -9 40q-9 5 -22 5z" />
    <glyph glyph-name="ogonek" unicode="&#x2db;" horiz-adv-x="509" 
d="M164 -99v1q0 35 32.5 63t69.5 45l31 -2q-37 -18 -68 -45t-31 -53q0 -25 22 -36.5t46 -11.5l-11 -21h-10t-22 3t-28 8.5t-22 18t-9 30.5z" />
    <glyph glyph-name="tilde" unicode="&#x2dc;" horiz-adv-x="465" 
d="M465 820l9 -8q-28 -38 -63 -38q-17 0 -44.5 18.5t-42.5 18.5q-28 0 -48 -25l-11 7q23 37 64 37q16 0 44 -18.5t43 -18.5q26 0 49 27z" />
    <glyph glyph-name="hungarumlaut" unicode="&#x2dd;" horiz-adv-x="406" 
d="M250 750l65 89h36l-75 -89h-26zM362 750l65 89h36l-75 -89h-26z" />
    <glyph glyph-name="tonos" unicode="&#x384;" horiz-adv-x="485" 
d="M441 851l-83 -99h-21l74 99h30z" />
    <glyph glyph-name="dieresistonos" unicode="&#x385;" horiz-adv-x="509" 
d="M413 750l-84 -99h-21l75 99h30zM255 712h34l7 37h-34zM453 712h34l7 37h-34z" />
    <glyph glyph-name="Alphatonos" unicode="&#x386;" horiz-adv-x="631" 
d="M42 0l378 703h40l132 -703h-24l-47 248h-323l-132 -248h-24zM443 684h-12l-222 -415h309zM217 702l-84 -99h-21l75 99h30z" />
    <glyph glyph-name="Epsilontonos" unicode="&#x388;" horiz-adv-x="527" 
d="M572 681l3 19h-343l-123 -700h343l3 19h-321l57 322h317l3 20h-316l57 320h320zM164 702l-83 -99h-21l74 99h30z" />
    <glyph glyph-name="Etatonos" unicode="&#x389;" horiz-adv-x="675" 
d="M588 339l-59 -339h22l123 700h-22l-60 -340h-385l60 340h-22l-123 -700h22l59 339h385zM168 702l-83 -99h-21l74 99h30z" />
    <glyph glyph-name="Iotatonos" unicode="&#x38a;" horiz-adv-x="281" 
d="M253 700l-123 -700h22l123 700h-22zM169 702l-83 -99h-21l74 99h30z" />
    <glyph glyph-name="Omicrontonos" unicode="&#x38c;" horiz-adv-x="849" 
d="M548 711q136 -1 216.5 -86.5t80.5 -217.5q0 -101 -40 -183.5t-103 -132t-136 -76.5t-145 -27q-77 0 -142.5 31.5t-109.5 101t-44 165.5q0 122 60 220.5t156 151.5t207 53zM545 691q-161 0 -279 -114t-118 -287q0 -133 81.5 -207.5t194.5 -74.5q54 0 109 15.5t107 48
t92.5 78.5t65 112t24.5 143q0 125 -75 205.5t-202 80.5zM188 702l-83 -99h-21l74 99h30z" />
    <glyph glyph-name="Upsilontonos" unicode="&#x38e;" horiz-adv-x="567" 
d="M345 283l309 417h-24l-292 -397l-151 397h-25l162 -416l-50 -284h21zM134 702l-83 -99h-21l74 99h30z" />
    <glyph glyph-name="Omegatonos" unicode="&#x38f;" horiz-adv-x="849" 
d="M545 691q-167 0 -282.5 -114t-115.5 -279q0 -107 53.5 -179t135.5 -95l-11 -24h-279l3 19h247q-74 25 -122.5 99t-48.5 178q0 174 123 294.5t300 120.5q135 -1 216 -84t81 -213q0 -148 -86.5 -254t-203.5 -141h247l-3 -19h-279l-3 24q124 32 215 135.5t91 251.5
q0 123 -75.5 201t-202.5 79zM188 702l-84 -99h-21l75 99h30z" />
    <glyph glyph-name="iotadieresistonos" unicode="&#x390;" horiz-adv-x="245" 
d="M201 -1l4 19q-42 0 -53.5 15.5t-2.5 63.5l72 410h-22l-72 -410q-11 -61 7 -79t67 -19zM303 693l-84 -99h-21l75 99h30zM135 656h34l7 37h-34zM336 656h34l7 37h-34z" />
    <glyph glyph-name="Alpha" unicode="&#x391;" horiz-adv-x="631" 
d="M42 0l378 703h40l132 -703h-24l-47 248h-323l-132 -248h-24zM443 684h-12l-222 -415h309z" />
    <glyph glyph-name="Beta" unicode="&#x392;" horiz-adv-x="609" 
d="M218 382h160q82 0 135 54t53 114q0 51 -34.5 90t-100.5 39h-160zM375 362h-160l-60 -341h160q100 0 161 57.5t61 131.5q0 59 -42.5 105.5t-119.5 46.5zM585 531q-8 -43 -44.5 -92t-105.5 -67q73 -18 102 -73.5t18 -109.5q-15 -85 -84 -137t-161 -52h-181l123 700h182
q77 0 120.5 -48t30.5 -121z" />
    <glyph glyph-name="Gamma" unicode="&#x393;" horiz-adv-x="509" 
d="M576 700l-3 -20h-309l-120 -680h-21l123 700h330z" />
    <glyph glyph-name="Delta" unicode="&#x394;" horiz-adv-x="626" 
d="M583 0h-541l374 702h36zM432 687h-3l-355 -668h482z" />
    <glyph glyph-name="Epsilon" unicode="&#x395;" horiz-adv-x="527" 
d="M575 700l-3 -19h-320l-56 -320h316l-4 -20h-317l-57 -322h321l-3 -19h-343l123 700h343z" />
    <glyph glyph-name="Zeta" unicode="&#x396;" horiz-adv-x="568" 
d="M596 679h-375l3 21h401l-3 -19l-528 -660h417l-4 -21h-442l4 20z" />
    <glyph glyph-name="Eta" unicode="&#x397;" horiz-adv-x="675" 
d="M529 0l60 339h-385l-60 -339h-22l123 700h22l-60 -340h385l60 340h22l-123 -700h-22z" />
    <glyph glyph-name="Theta" unicode="&#x398;" horiz-adv-x="849" 
d="M549 711q135 -1 215.5 -86.5t80.5 -217.5q0 -101 -40 -183.5t-103 -132t-136 -76.5t-145 -27q-120 0 -207.5 78t-87.5 220q0 122 60 220.5t156 151.5t207 53zM545 691q-161 0 -279 -114t-118 -287q0 -133 82 -207.5t195 -74.5q54 0 109 15.5t107 48t92.5 78.5t65 112
t24.5 143q0 124 -75.5 205t-202.5 81zM236 340l4 20h500l-4 -20h-500z" />
    <glyph glyph-name="Iota" unicode="&#x399;" horiz-adv-x="281" 
d="M130 0l123 700h22l-123 -700h-22z" />
    <glyph glyph-name="Kappa" unicode="&#x39a;" horiz-adv-x="630" 
d="M275 700l-70 -401l447 401h27l-339 -307l230 -393h-25l-222 378l-123 -106l-48 -272h-22l123 700h22z" />
    <glyph glyph-name="Lambda" unicode="&#x39b;" horiz-adv-x="627" 
d="M432 687h-3l-364 -687h-23l374 702h36l131 -702h-23z" />
    <glyph glyph-name="Mu" unicode="&#x39c;" horiz-adv-x="831" 
d="M802 685l-359 -570h-30l-157 570h-1l-121 -685h-22l123 700h40l157 -566l355 566h40l-123 -700h-22l121 685h-1z" />
    <glyph glyph-name="Nu" unicode="&#x39d;" horiz-adv-x="729" 
d="M581 12h2l121 688h22l-123 -701h-41l-287 688h-2l-121 -687h-22l124 701h40z" />
    <glyph glyph-name="Xi" unicode="&#x39e;" horiz-adv-x="550" 
d="M67 22h436l-4 -22h-436zM613 678h-424l3 22h424zM168 341l4 22h344l-4 -22h-344z" />
    <glyph glyph-name="Omicron" unicode="&#x39f;" horiz-adv-x="849" 
d="M549 711q135 -1 215.5 -86.5t80.5 -217.5q0 -101 -40 -183.5t-103 -132t-136 -76.5t-145 -27q-120 0 -207.5 78t-87.5 220q0 122 60 220.5t156 151.5t207 53zM545 691q-161 0 -279 -114t-118 -287q0 -133 82 -207.5t195 -74.5q54 0 109 15.5t107 48t92.5 78.5t65 112
t24.5 143q0 124 -75.5 205t-202.5 81z" />
    <glyph glyph-name="Pi" unicode="&#x3a0;" horiz-adv-x="675" 
d="M551 0h-22l120 680h-385l-120 -680h-22l123 700h429z" />
    <glyph glyph-name="Rho" unicode="&#x3a1;" horiz-adv-x="583" 
d="M202 286l-50 -286h-22l123 700h181q116 -2 158 -90q37 -76 1 -168q-38 -94 -127 -134q-48 -21 -104 -22h-160zM206 306h159q117 2 181 91q53 74 39 157q-14 84 -92 113q-28 11 -62 12h-159z" />
    <glyph glyph-name="Sigma" unicode="&#x3a3;" horiz-adv-x="566" 
d="M376 367l-2 -14l-281 -332h416l-4 -21h-426l-12 20l288 340l-161 321l16 19h411l-4 -21h-397z" />
    <glyph glyph-name="Tau" unicode="&#x3a4;" horiz-adv-x="451" 
d="M149 700h401l-4 -21h-189l-120 -679h-22l120 679h-190z" />
    <glyph glyph-name="Upsilon" unicode="&#x3a5;" horiz-adv-x="567" 
d="M654 700l-310 -417l-49 -283h-21l50 284l-162 416h25l151 -397l292 397h24z" />
    <glyph glyph-name="Phi" unicode="&#x3a6;" horiz-adv-x="824" 
d="M508 639l11 61h22l-11 -61q174 0 248 -109q60 -89 27 -206q-33 -119 -140 -192q-101 -68 -236 -68l-11 -64h-22l11 64q-175 0 -249 109q-60 88 -28 205q32 118 139 192q102 69 239 69zM433 85q170 0 275 110q83 87 85 196q2 112 -83 174q-70 52 -183 52l-23 -133
l-48 -266zM411 85q94 531 94 532q-173 0 -278 -110q-83 -87 -84 -196q-2 -111 83 -174q71 -52 185 -52z" />
    <glyph glyph-name="Chi" unicode="&#x3a7;" horiz-adv-x="643" 
d="M702 700l-301 -351l181 -349h-24l-172 333l-292 -333h-23l306 350l-176 351h24l167 -335l285 334h25z" />
    <glyph glyph-name="Psi" unicode="&#x3a8;" horiz-adv-x="782" 
d="M407 174l92 526h22l-92 -526q143 0 227.5 77t104.5 188l47 261h23l-47 -261q-22 -119 -113.5 -202.5t-245.5 -83.5l-27 -153h-22l27 153q-65 0 -115 16t-80 43t-49 63.5t-21 78t4 84.5l46 262h23l-45 -261q-5 -40 -3.5 -78.5t19 -72.5t45 -59t74 -40t106.5 -15z" />
    <glyph glyph-name="Omega" unicode="&#x3a9;" horiz-adv-x="849" 
d="M545 691q-167 0 -282.5 -114t-115.5 -279q0 -107 53.5 -179t135.5 -95l-11 -24h-279l3 19h247q-74 25 -122.5 99t-48.5 178q0 174 123 294.5t300 120.5q135 -1 216 -84t81 -213q0 -148 -86.5 -254t-203.5 -141h247l-3 -19h-279l-3 24q124 32 215 135.5t91 251.5
q0 123 -75.5 201t-202.5 79z" />
    <glyph glyph-name="Iotadieresis" unicode="&#x3aa;" horiz-adv-x="281" 
d="M130 0l123 700h22l-123 -700h-22zM204 749h-34l7 37h34zM377 749h-34l7 37h34z" />
    <glyph glyph-name="Upsilondieresis" unicode="&#x3ab;" horiz-adv-x="567" 
d="M654 700l-310 -417l-49 -283h-21l50 284l-162 416h25l151 -397l292 397h24zM347 749h-34l6 35h34zM520 749h-34l6 35h34z" />
    <glyph glyph-name="alphatonos" unicode="&#x3ac;" horiz-adv-x="592" 
d="M297 -5q42 0 93 17t85 49l-10 -62h22l89 508h-21l-12 -66q-55 81 -188 68q-120 -12 -194 -122q-65 -96 -58 -207q7 -113 89 -160q44 -25 105 -25zM361 490q55 7 105 -15t73 -62l-58 -327q-81 -76 -194 -71q-109 9 -147 105q-36 88 5 193q42 106 135 153q38 19 81 24z
M487 696l-83 -99h-21l74 99h30z" />
    <glyph glyph-name="epsilontonos" unicode="&#x3ad;" horiz-adv-x="464" 
d="M148 386q12 63 73 95.5t129 32.5q82 1 140 -47l-14 -16q-56 43 -130 43q-60 -1 -113 -27.5t-64 -80.5q-6 -32 11.5 -60t47.5 -41q10 -4 22 -6.5t27.5 -3.5t25.5 -1.5t28.5 0t25.5 0.5l-4 -19h-23h-25.5t-23.5 -0.5t-26 -2t-23 -4t-24 -6.5q-36 -14 -62 -38
q-32 -30 -39 -66q-13 -62 31.5 -93t117.5 -31q88 0 166 48l8 -16q-80 -53 -179 -53q-37 0 -68.5 8t-57 24.5t-36.5 46t-2 67.5q11 46 47 78q42 37 95 48q-40 10 -64 43q-25 36 -17 78zM444 696l-83 -99h-21l74 99h30z" />
    <glyph glyph-name="etatonos" unicode="&#x3ae;" horiz-adv-x="616" 
d="M381 512q-94 0 -170 -66l10 61h-22l-89 -507h21l74 418q49 48 114 64.5t118.5 1t86 -64t19.5 -119.5l-53 -300h22l53 300q18 97 -36 154.5t-148 57.5zM488 696l-84 -99h-21l75 99h30z" />
    <glyph glyph-name="iotatonos" unicode="&#x3af;" horiz-adv-x="245" 
d="M201 -1l4 19q-42 0 -53.5 15.5t-2.5 63.5l72 410h-22l-72 -410q-11 -61 7 -79t67 -19zM319 696l-83 -99h-21l74 99h30z" />
    <glyph glyph-name="upsilondieresistonos" unicode="&#x3b0;" horiz-adv-x="620" 
d="M307 16q-75 2 -119.5 54.5t-29.5 136.5l53 300h-21l-53 -300q-17 -93 31 -151.5t135 -60.5q89 0 160 58.5t86 153.5l53 300h-21l-53 -300q-15 -86 -80 -138.5t-141 -52.5zM484 701l-83 -99h-21l74 99h30zM322 664h34l6 37h-34zM527 664h34l6 37h-34z" />
    <glyph glyph-name="alpha" unicode="&#x3b1;" horiz-adv-x="592" 
d="M297 -5q-127 0 -174 102q-41 89 -4 203q37 115 129 173q49 30 107 36q133 13 188 -68l12 66h21l-89 -508h-22l10 62q-34 -32 -85 -49t-93 -17zM361 490q-117 -14 -186 -119q-60 -92 -49 -194q11 -104 92 -144q31 -15 69 -18q113 -5 194 71l58 327q-23 40 -73 62t-105 15z
" />
    <glyph glyph-name="beta" unicode="&#x3b2;" horiz-adv-x="565" 
d="M398 379v-1q77 -9 110.5 -65.5t21.5 -120.5q-8 -49 -33.5 -88t-61 -62t-76.5 -35t-83.5 -11t-79.5 14l4 21q40 -14 84 -14.5t84 13.5t72.5 39t51.5 63t19 83q0 63 -42.5 107t-121.5 44h-50l4 22h50q71 1 117.5 49t53.5 105q11 65 -26 104.5t-96 39.5q-64 0 -117 -38.5
t-66 -111.5l-130 -738h-22l130 738q13 78 74.5 124t133.5 46q61 0 103 -37t42 -101q0 -23 -6.5 -47.5t-22 -53.5t-47 -52.5t-74.5 -35.5z" />
    <glyph glyph-name="gamma" unicode="&#x3b3;" horiz-adv-x="481" 
d="M91 488l3 19q37 1 51.5 -11.5t21.5 -55.5l76 -431h2l260 498h23l-277 -525l-32 -183h-22l32 183l-85 457q-6 30 -16 40t-37 9z" />
    <glyph glyph-name="delta" unicode="&#x3b4;" horiz-adv-x="623" 
d="M610 268q0 -68 -42 -135q-29 -46 -69 -76q-41 -31 -89 -46q-49 -17 -100 -17q-54 2 -93 17q-43 16 -73 48t-42 76q-12 45 -3 100q11 56 38 99q36 57 95.5 93t122.5 41l-1 2q-55 4 -93 27.5t-38 70.5q0 40 23.5 69.5t61 43.5t73.5 20t72 6q92 0 147 -36l-11 -16
q-63 34 -136 34q-33 0 -64.5 -4.5t-66.5 -16t-56.5 -36.5t-21.5 -61q0 -25 14.5 -42.5t39 -26.5t47 -13.5t49.5 -8.5q7 -1 10 -1q99 -14 153 -71q53 -56 53 -140zM540 395q-61 63 -148 63q-35 0 -66 -8q-120 -30 -178 -132q-33 -60 -33 -119q0 -30 4 -46q7 -36 27 -63
q19 -26 46 -44q29 -18 59 -25q28 -8 62 -8q35 0 67 7q36 9 67 25q34 16 62 43q28 25 48 62q33 60 33 115q0 78 -50 130z" />
    <glyph glyph-name="epsilon" unicode="&#x3b5;" horiz-adv-x="465" 
d="M148 386q12 63 73 95.5t129 32.5q82 1 140 -47l-14 -16q-56 43 -130 43q-60 -1 -113 -27.5t-64 -80.5q-6 -32 11.5 -60t47.5 -41q10 -4 22 -6.5t27.5 -3.5t25.5 -1.5t28.5 0t25.5 0.5l-4 -19h-23h-25.5t-23.5 -0.5t-26 -2t-23 -4t-24 -6.5q-36 -14 -62 -38
q-32 -30 -39 -66q-13 -62 31.5 -93t117.5 -31q88 0 166 48l8 -16q-80 -53 -179 -53q-37 0 -68.5 8t-57 24.5t-36.5 46t-2 67.5q11 46 47 78q42 37 95 48q-40 10 -64 43q-25 36 -17 78z" />
    <glyph glyph-name="zeta" unicode="&#x3b6;" horiz-adv-x="449" 
d="M569 701l-3 -17q-121 -78 -245 -194.5t-178 -218.5q-81 -154 36 -219q22 -13 47 -23.5t68 -25t51 -17.5q72 -26 44 -89q-12 -29 -63 -88l-13 11q44 50 55 81q11 29 0.5 43.5t-39.5 25.5q-13 5 -54.5 19t-69 25.5t-49.5 25.5q-118 74 -30 237q57 106 170 212.5t239 191.5
l-1 1h-325l3 19h357z" />
    <glyph glyph-name="eta" unicode="&#x3b7;" horiz-adv-x="616" 
d="M381 512q94 0 148 -57.5t36 -154.5l-53 -300h-22l53 300q13 71 -19.5 119.5t-86 64t-118.5 -1t-114 -64.5l-74 -418h-21l89 507h22l-10 -61q76 66 170 66z" />
    <glyph glyph-name="theta" unicode="&#x3b8;" horiz-adv-x="644" 
d="M644 426q0 -109 -57 -228q-31 -65 -74 -111q-42 -44 -94 -69q-49 -24 -101 -24q-51 0 -92 25q-42 25 -69 71q-28 48 -35 112q-4 21 -4 68q0 111 56 226q34 69 74 112q45 48 94 73q53 25 102 25q52 0 92 -25q42 -25 69 -71q26 -44 35 -113q4 -34 4 -71zM150 359l-2 -10
q-13 -66 -8 -125q5 -55 21 -95q18 -42 42 -66q25 -25 56 -38q30 -13 62 -13q33 0 67 12q38 13 70 37q34 25 65 65q32 41 55 95q23 53 37 128l2 10h-467zM154 378h465q7 49 4 95q-4 52 -22 95q-16 40 -42 67q-24 26 -56 40q-29 13 -62 13t-68 -13q-33 -12 -69 -39
q-30 -22 -65 -66q-33 -43 -55 -95q-20 -45 -30 -97z" />
    <glyph glyph-name="iota" unicode="&#x3b9;" horiz-adv-x="245" 
d="M197 18l-4 -19q-49 1 -67 19t-7 79l72 410h22l-72 -410q-9 -48 2.5 -63.5t53.5 -15.5z" />
    <glyph glyph-name="kappa" unicode="&#x3ba;" horiz-adv-x="518" 
d="M196 507h21l-49 -282l339 282h27l-252 -211q29 -47 90 -148t90 -148h-24l-173 282l-102 -82l-35 -200h-21z" />
    <glyph glyph-name="lambda" unicode="&#x3bb;" horiz-adv-x="508" 
d="M228 690l3 18h5q42 0 63.5 -14.5t29.5 -57.5l121 -568q7 -31 15.5 -41.5t35.5 -9.5l-3 -17q-35 -1 -47.5 11t-21.5 55l-87 417l-282 -484h-23l298 510l-27 122q-9 37 -25.5 49t-54.5 10z" />
    <glyph glyph-name="nu" unicode="&#x3bd;" horiz-adv-x="478" 
d="M156 507l85 -498h1l257 498h23l-265 -509h-35l-89 509h23z" />
    <glyph glyph-name="xi" unicode="&#x3be;" horiz-adv-x="454" 
d="M186 24q-45 23 -68 70t-14 101q11 65 58.5 115.5t115.5 69.5q-54 17 -79.5 58.5t-15.5 95.5q11 59 52.5 101.5t104.5 60.5q33 11 75 11q79 0 125 -34l-12 -15q-41 29 -116 29q-34 0 -67 -9q-57 -16 -93 -53.5t-47 -90.5q-7 -47 13 -82.5t65 -50.5q26 -10 59 -10h86
l-3 -20h-86q-34 0 -71 -13q-119 -41 -142 -162q-8 -49 12 -91.5t61 -63.5q32 -16 154 -59q80 -30 40 -99q-16 -27 -56 -73l-13 11q43 49 52 69q13 20 8.5 35.5t-14.5 23t-32 16.5q-9 3 -46 16t-61 22.5t-45 20.5z" />
    <glyph glyph-name="omicron" unicode="&#x3bf;" 
d="M125 252q-10 -60 3 -108t42.5 -76.5t67 -43t78.5 -14.5q47 0 94.5 16.5t90 49t69.5 89t27 128.5q0 96 -59 149t-137 53q-56 0 -111.5 -24.5t-103 -82t-61.5 -136.5zM612 252q-21 -120 -106.5 -190t-192.5 -70q-92 0 -152.5 59.5t-60.5 157.5q0 130 93 217t211 87
q106 0 167.5 -72.5t40.5 -188.5z" />
    <glyph glyph-name="pi" unicode="&#x3c0;" horiz-adv-x="603" 
d="M105 0l89 507h395l-89 -507h-22l86 488h-351l-86 -488h-22z" />
    <glyph glyph-name="rho" unicode="&#x3c1;" 
d="M145 161h-1l-64 -362h-19l80 451l1 9q14 102 90.5 176.5t188.5 75.5q109 -1 157.5 -75t31.5 -177q-15 -107 -91 -185.5t-190 -79.5q-81 2 -131 44t-53 123zM405 491q-48 -4 -88.5 -35.5t-62.5 -68t-47.5 -79.5t-41.5 -58l-4 -4q-6 -94 31.5 -159t128.5 -72h24
q96 7 160.5 74t81.5 157q20 93 -20.5 165t-137.5 80h-24z" />
    <glyph glyph-name="sigma1" unicode="&#x3c2;" horiz-adv-x="520" 
d="M342 -26q-10 3 -42 11t-54 14.5t-40 15.5q-42 19 -70 56q-26 35 -37 82q-5 27 -5 58q0 72 42 144q26 48 66 85q43 36 90 55q51 21 107 21q50 0 89 -15q38 -15 68 -47l-15 -14q-21 22 -45 35q-25 12 -51 17q-27 5 -50 5q-33 0 -67 -9q-35 -9 -67 -28q-32 -17 -61 -48
q-28 -29 -49 -70q-35 -68 -35 -130q0 -30 5 -55q9 -43 33 -75q26 -33 64 -51q17 -8 39.5 -14.5t51 -13.5t41.5 -11q116 -31 71 -111q-17 -31 -57 -73l-13 11q41 43 54 69q16 32 -3 53.5t-60 32.5z" />
    <glyph glyph-name="sigma" unicode="&#x3c3;" 
d="M617 293q0 -134 -91.5 -217.5t-212.5 -83.5q-92 0 -152.5 59.5t-60.5 157.5q0 130 93 217t211 87h10h271l-3 -18h-200q61 -16 98 -71.5t37 -130.5zM121 210q0 -97 58.5 -148.5t136.5 -51.5q47 0 94.5 16.5t90 49t69.5 89t27 128.5q0 96 -59 149t-137 53q-46 0 -94 -17.5
t-90 -51t-69 -90t-27 -126.5z" />
    <glyph glyph-name="tau" unicode="&#x3c4;" horiz-adv-x="365" 
d="M294 17l-3 -18q-64 -2 -91 29q-27 30 -15 95l64 365h-121l3 19h280l-3 -19h-138l-64 -365q-7 -36 -1 -57q6 -24 27 -36q22 -13 62 -13z" />
    <glyph glyph-name="upsilon" unicode="&#x3c5;" horiz-adv-x="621" 
d="M307 16q76 0 141 52.5t80 138.5l53 300h21l-53 -300q-15 -95 -86 -153.5t-160 -58.5q-87 2 -135 60.5t-31 151.5l53 300h21l-53 -300q-15 -84 29.5 -136.5t119.5 -54.5z" />
    <glyph glyph-name="phi" unicode="&#x3c6;" horiz-adv-x="704" 
d="M119 211q0 -111 74 -162q53 -36 148 -38l80 452l10 52q86 2 144 -22q68 -28 96.5 -92.5t15.5 -146.5q-28 -149 -155 -221q-64 -37 -172 -40l-34 -193h-22l34 193q-105 3 -158 40q-82 57 -82 178q0 81 41.5 150t118.5 114q14 8 21 11l6 -17q-14 -6 -20 -9
q-73 -38 -109.5 -105t-36.5 -144zM449 498l-86 -487q97 2 161 38q73 41 110 106.5t37 141.5q0 60 -26.5 108.5t-77.5 70.5q-45 20 -118 22z" />
    <glyph glyph-name="chi" unicode="&#x3c7;" horiz-adv-x="512" 
d="M302 269l208 238h24l-222 -253l137 -254h-25l-127 239l-210 -239h-24l225 254l-135 253h25z" />
    <glyph glyph-name="psi" unicode="&#x3c8;" horiz-adv-x="764" 
d="M368 11l91 514h22l-91 -514q97 2 161 38q116 65 142 204l44 254h21l-44 -253q-28 -149 -155 -221q-66 -38 -172 -41l-34 -192h-22l34 192q-104 3 -158 41q-51 36 -70 94t-7 127l45 253h21l-45 -253q-24 -140 69 -205q53 -36 148 -38z" />
    <glyph glyph-name="omega" unicode="&#x3c9;" horiz-adv-x="796" 
d="M665 490l9 18q42 -8 69.5 -48t34.5 -87q10 -78 -14 -164.5t-83 -150t-136 -63.5q-18 0 -41 5q-19 5 -40 20q-43 30 -51 91q-31 -61 -83 -91q-26 -14 -48 -20q-25 -5 -43 -5q-59 0 -95 37.5t-44.5 94.5t2 122.5t38.5 123.5q23 48 64.5 87.5t87.5 47.5l1 -18
q-84 -21 -135 -125q-36 -72 -42.5 -151.5t26 -138t101.5 -58.5q36 2 63 13q59 26 88 85q13 26 20 60l33 189h20l-33 -189q-6 -33 -2 -60q9 -59 58 -85q23 -11 59 -13q69 0 122 58.5t74 138t11 151.5q-15 105 -91 125z" />
    <glyph glyph-name="iotadieresis" unicode="&#x3ca;" horiz-adv-x="241" 
d="M197 18l-4 -19q-49 1 -67 19t-7 79l72 410h22l-72 -410q-9 -48 2.5 -63.5t53.5 -15.5zM170 665h-34l7 37h34zM343 665h-34l7 37h34z" />
    <glyph glyph-name="upsilondieresis" unicode="&#x3cb;" horiz-adv-x="612" 
d="M307 16q76 0 141 52.5t80 138.5l53 300h21l-53 -300q-15 -95 -86 -153.5t-160 -58.5q-87 2 -135 60.5t-31 151.5l53 300h21l-53 -300q-15 -84 29.5 -136.5t119.5 -54.5zM359 664h-34l7 37h34zM532 664h-34l7 37h34z" />
    <glyph glyph-name="omicrontonos" unicode="&#x3cc;" 
d="M125 252q14 79 61.5 136.5t103 82t111.5 24.5q78 0 137 -53t59 -149q0 -72 -27 -128.5t-69.5 -89t-90 -49t-94.5 -16.5q-41 0 -78.5 14.5t-67 43t-42.5 76.5t-3 108zM612 252q21 116 -40.5 188.5t-167.5 72.5q-118 0 -211 -87t-93 -217q0 -98 60.5 -157.5t152.5 -59.5
q107 0 192.5 70t106.5 190zM500 696l-83 -99h-21l74 99h30z" />
    <glyph glyph-name="upsilontonos" unicode="&#x3cd;" horiz-adv-x="612" 
d="M307 16q-75 2 -119.5 54.5t-29.5 136.5l53 300h-21l-53 -300q-17 -93 31 -151.5t135 -60.5q89 0 160 58.5t86 153.5l53 300h-21l-53 -300q-15 -86 -80 -138.5t-141 -52.5zM496 698l-83 -99h-21l74 99h30z" />
    <glyph glyph-name="omegatonos" unicode="&#x3ce;" horiz-adv-x="796" 
d="M674 508l-9 -18q76 -20 91 -125q10 -72 -11 -151.5t-74 -138t-122 -58.5q-36 2 -59 13q-49 26 -58 85q-4 27 2 60l33 189h-20l-33 -189q-7 -34 -20 -60q-29 -59 -88 -85q-27 -11 -63 -13q-69 0 -101.5 58.5t-26 138t42.5 151.5q51 104 135 125l-1 18q-46 -8 -87.5 -47.5
t-64.5 -87.5q-28 -58 -38.5 -123.5t-2 -122.5t44.5 -94.5t95 -37.5q18 0 43 5q22 6 48 20q52 30 83 91q8 -61 51 -91q21 -15 40 -20q23 -5 41 -5q77 0 136 63.5t83 150t14 164.5q-7 47 -34.5 87t-69.5 48zM579 698l-83 -99h-21l74 99h30z" />
    <glyph glyph-name="afii10023" unicode="&#x401;" horiz-adv-x="527" 
d="M581 700l-3 -21h-320l-56 -318h316l-4 -20h-317l-56 -320h321l-4 -21h-343l123 700h343zM356 754h-34l6 37h34zM529 754h-34l6 37h34z" />
    <glyph glyph-name="afii10051" unicode="&#x402;" horiz-adv-x="704" 
d="M414 -1l3 19q85 6 135.5 48.5t67.5 137.5l16 90q13 71 -18 120.5t-83 65.5t-116 0.5t-113 -63.5l-74 -417h-21l120 680h-190l4 20h401l-4 -20h-189l-42 -236q80 69 171 65q93 -4 143 -61t33 -154l-16 -90q-36 -200 -228 -205z" />
    <glyph glyph-name="afii10052" unicode="&#x403;" horiz-adv-x="509" 
d="M576 700l-3 -20h-309l-120 -680h-21l123 700h330zM495 847l-81 -96h-19l73 96h27z" />
    <glyph glyph-name="afii10053" unicode="&#x404;" horiz-adv-x="712" 
d="M741 607l-15 -14q-69 93 -202 93q-141 0 -246 -93q-102 -89 -132 -234h402l-4 -19h-402q-8 -53 -2 -99q6 -51 27 -91q18 -40 54 -72q33 -30 81 -47q45 -16 104 -16q44 0 88 12q48 13 87 37q40 23 78 61l13 -13q-62 -60 -126 -88q-69 -30 -144 -30q-64 0 -113 18
q-51 18 -87 51q-32 28 -57 76q-21 45 -27 97q-2 26 -2 54q0 86 39 170t112 148q112 98 261 98q141 0 213 -99z" />
    <glyph glyph-name="afii10054" unicode="&#x405;" horiz-adv-x="560" 
d="M221 545q-8 -39 1 -69t33 -48.5t45 -28.5t50 -19q27 -8 50 -20t46 -30.5t35.5 -42.5t18.5 -56.5t-5 -71.5q-18 -82 -84.5 -124t-142.5 -42q-61 0 -107 29.5t-64 86.5l21 11q17 -52 57.5 -78t95.5 -27q76 -1 131.5 38t70.5 108q7 48 0.5 80.5t-30.5 57.5t-49 39t-55 23
q-167 49 -140 184q16 77 76 119.5t131 42.5q111 0 149 -90l-21 -9q-20 43 -51.5 60.5t-79.5 17.5q-63 0 -114.5 -35.5t-67.5 -105.5z" />
    <glyph glyph-name="afii10055" unicode="&#x406;" horiz-adv-x="281" 
d="M130 0l123 700h22l-123 -700h-22z" />
    <glyph glyph-name="afii10056" unicode="&#x407;" horiz-adv-x="280" 
d="M130 0l123 700h22l-123 -700h-22zM204 749h-34l7 37h34zM377 749h-34l7 37h34z" />
    <glyph glyph-name="afii10057" unicode="&#x408;" horiz-adv-x="545" 
d="M79 140l20 6q17 -131 151 -131q64 0 120.5 45t69.5 120l88 500h-157l4 20h179l-92 -520q-15 -86 -79 -136t-137 -50q-72 0 -115 33t-52 113z" />
    <glyph glyph-name="afii10058" unicode="&#x409;" horiz-adv-x="905" 
d="M595 700l-54 -306h160q121 -3 165 -87q38 -73 0 -160q-37 -88 -127 -126q-50 -21 -109 -21h-181l124 700h22zM696 374h-159l-62 -353h159q118 0 185 84q55 69 42 147q-14 80 -93 109q-32 12 -72 13zM574 700l-4 -20h-279l-66 -329q-27 -137 -49 -190q-48 -115 -157 -169
l-7 18q40 22 70.5 53.5t47.5 54t33 71.5t20 66t16 78q1 4 1.5 6.5t1 5.5t1.5 6l70 349h301z" />
    <glyph glyph-name="afii10059" unicode="&#x40a;" horiz-adv-x="933" 
d="M622 700l-56 -320h160q123 -3 167 -86q37 -70 0 -154q-39 -86 -131 -122q-48 -18 -104 -18h-181l63 360h-335l-63 -360h-22l123 700h22l-56 -320h335l56 320h22zM721 360h-159l-59 -339h159q120 0 186 82q53 67 38 141q-14 76 -93 104q-32 11 -72 12z" />
    <glyph glyph-name="afii10060" unicode="&#x40b;" horiz-adv-x="704" 
d="M606 0h-22l52 294q13 71 -18 120.5t-83 65.5t-116 0.5t-113 -63.5l-74 -417h-21l120 680h-190l4 20h401l-4 -20h-189l-42 -236q80 69 171 65q93 -4 143 -61t33 -154z" />
    <glyph glyph-name="afii10061" unicode="&#x40c;" horiz-adv-x="624" 
d="M269 700l-70 -401l447 401h27l-339 -307l230 -393h-25l-222 378l-123 -106l-48 -272h-22l123 700h22zM540 845l-81 -96h-19l73 96h27z" />
    <glyph glyph-name="afii10062" unicode="&#x40e;" horiz-adv-x="553" 
d="M183 700l140 -478q196 318 295 478h23l-381 -618q-37 -59 -62.5 -70.5t-95.5 -11.5l1 19h11q55 0 75.5 10t51.5 60q6 10 29.5 48t35.5 58l-146 505h23zM325 837h17q0 -28 14.5 -46.5t37 -23t47 0.5t46 23.5t32.5 45.5h17q-12 -34 -38 -57.5t-55 -29t-56.5 0t-45 29
t-16.5 57.5z" />
    <glyph glyph-name="afii10145" unicode="&#x40f;" horiz-adv-x="672" 
d="M303 -120l21 120h-203l123 700h22l-119 -680h385l119 680h22l-123 -700h-205l-21 -120h-21z" />
    <glyph glyph-name="bgA" unicode="&#x410;" horiz-adv-x="631" 
d="M42 0l378 703h40l132 -703h-24l-47 248h-323l-132 -248h-24zM443 684h-12l-222 -415h309z" />
    <glyph glyph-name="afii10018" unicode="&#x411;" horiz-adv-x="575" 
d="M262 680l-49 -278h160q125 -2 164 -90q34 -74 -9 -163q-42 -91 -132 -129q-45 -19 -95 -20h-181l123 700h351l-3 -20h-329zM368 382h-159l-63 -361h159q109 5 176 90q57 72 46 151q-11 82 -93 109q-29 10 -66 11z" />
    <glyph glyph-name="afii10019" unicode="&#x412;" horiz-adv-x="609" 
d="M196 382h160q82 0 135 54t53 114q0 51 -34.5 90t-100.5 39h-160zM353 362h-160l-60 -341h160q100 0 161 57.5t61 131.5q0 59 -42.5 105.5t-119.5 46.5zM563 531q-8 -43 -44.5 -92t-105.5 -67q73 -18 102 -73.5t18 -109.5q-15 -85 -84 -137t-161 -52h-181l123 700h182
q77 0 120.5 -48t30.5 -121z" />
    <glyph glyph-name="afii10020" unicode="&#x413;" horiz-adv-x="509" 
d="M576 700l-3 -20h-309l-120 -680h-21l123 700h330z" />
    <glyph glyph-name="afii10021" unicode="&#x414;" horiz-adv-x="692" 
d="M570 20h33l-32 -183h-23l29 163h-522l-29 -163h-22l31 177l31 6q22 11 40 30t28.5 32.5t23.5 44t16 39t14 42.5q23 66 44 157l81 335h377zM95 20h453l117 660h-335l-76 -313q-28 -112 -44 -160q-15 -44 -25.5 -70.5t-35.5 -63.5t-54 -53z" />
    <glyph glyph-name="afii10022" unicode="&#x415;" horiz-adv-x="523" 
d="M573 700l-3 -21h-320l-56 -318h316l-4 -20h-317l-56 -320h321l-4 -21h-343l123 700h343z" />
    <glyph glyph-name="afii10024" unicode="&#x416;" horiz-adv-x="861" 
d="M536 700h22l-67 -385l404 385h27l-333 -316l224 -384h-25l-216 368l-87 -82l-50 -286h-22l50 286l-57 82l-346 -368h-25l360 384l-223 316h27l270 -385z" />
    <glyph glyph-name="afii10025" unicode="&#x417;" horiz-adv-x="543" 
d="M74 106l19 11q27 -56 77 -81q41 -19 93 -19q59 0 114.5 32.5t85.5 84.5q26 45 26 88q0 26 -6 44q-7 31 -29 56q-21 24 -50 37q-30 14 -64 14h-74l4 20h74q31 0 61 9q64 21 98 73q16 25 24 61q8 52 -14.5 89.5t-71.5 53.5q-33 10 -63 10q-47 0 -95.5 -21t-81.5 -57l-14 10
q35 42 87.5 65t108.5 23q34 0 69 -11q48 -15 73.5 -51.5t25.5 -85.5q0 -33 -15 -67q-8 -20 -28 -45q-38 -47 -106 -67q34 -11 59 -33q23 -20 35 -46t15 -53q1 -6 1 -24q0 -51 -28 -98q-33 -59 -95 -95.5t-130 -36.5q-59 0 -103 20q-54 28 -82 90z" />
    <glyph glyph-name="afii10026" unicode="&#x418;" horiz-adv-x="721" 
d="M146 12h2l531 689h40l-124 -701h-22l121 687h-2l-529 -688h-41l124 701h22z" />
    <glyph glyph-name="afii10027" unicode="&#x419;" horiz-adv-x="719" 
d="M148 12h-2l122 688h-22l-124 -701h41l528 688h2l-121 -687h22l124 701h-40zM399 834h18q1 -36 24.5 -55.5t53.5 -19.5t60.5 20t44.5 55h18q-21 -59 -74.5 -82.5t-99 0t-45.5 82.5z" />
    <glyph glyph-name="afii10028" unicode="&#x41a;" horiz-adv-x="624" 
d="M269 700l-70 -401l447 401h27l-339 -307l230 -393h-25l-222 378l-123 -106l-48 -272h-22l123 700h22z" />
    <glyph glyph-name="afii10029" unicode="&#x41b;" 
d="M203 352l74 349h356l-124 -700h-22l120 680h-312l-70 -329q-28 -135 -48 -186q-48 -119 -158 -173l-7 18q49 27 82 61.5t52.5 78t29.5 81.5t22 94q3 17 5 26z" />
    <glyph glyph-name="afii10030" unicode="&#x41c;" horiz-adv-x="831" 
d="M802 685l-359 -570h-30l-157 570h-1l-121 -685h-22l123 700h40l157 -566l355 566h40l-123 -700h-22l121 685h-1z" />
    <glyph glyph-name="afii10031" unicode="&#x41d;" horiz-adv-x="675" 
d="M529 0l60 339h-385l-60 -339h-22l123 700h22l-60 -340h385l60 340h22l-123 -700h-22z" />
    <glyph glyph-name="afii10032" unicode="&#x41e;" horiz-adv-x="849" 
d="M549 711q135 -1 215.5 -86.5t80.5 -217.5q0 -101 -40 -183.5t-103 -132t-136 -76.5t-145 -27q-120 0 -207.5 78t-87.5 220q0 122 60 220.5t156 151.5t207 53zM545 691q-161 0 -279 -114t-118 -287q0 -133 82 -207.5t195 -74.5q54 0 109 15.5t107 48t92.5 78.5t65 112
t24.5 143q0 124 -75.5 205t-202.5 81z" />
    <glyph glyph-name="afii10033" unicode="&#x41f;" horiz-adv-x="676" 
d="M551 0h-22l120 680h-385l-120 -680h-22l123 700h429z" />
    <glyph glyph-name="afii10034" unicode="&#x420;" horiz-adv-x="583" 
d="M202 286l-50 -286h-22l123 700h181q116 -2 158 -90q37 -76 1 -168q-38 -94 -127 -134q-48 -21 -104 -22h-160zM206 306h159q117 2 181 91q53 74 39 157q-14 84 -92 113q-28 11 -62 12h-159z" />
    <glyph glyph-name="afii10035" unicode="&#x421;" horiz-adv-x="729" 
d="M752 607l-15 -14q-37 46 -83.5 69.5t-122.5 23.5q-164 0 -278.5 -112t-114.5 -281q0 -121 74 -200t201 -79q145 0 257 111l13 -13q-121 -119 -274 -119q-137 0 -215 84.5t-78 212.5q0 106 51 200.5t148.5 155t219.5 60.5q142 0 217 -99z" />
    <glyph glyph-name="afii10036" unicode="&#x422;" horiz-adv-x="451" 
d="M149 700h401l-4 -21h-189l-120 -679h-22l120 679h-190z" />
    <glyph glyph-name="afii10037" unicode="&#x423;" horiz-adv-x="553" 
d="M183 700l140 -478q196 318 295 478h23l-381 -618q-37 -59 -62.5 -70.5t-95.5 -11.5l1 19h11q55 0 75.5 10t51.5 60q6 10 29.5 48t35.5 58l-146 505h23z" />
    <glyph glyph-name="afii10038" unicode="&#x424;" horiz-adv-x="824" 
d="M508 639l11 61h22l-11 -61q174 0 248 -109q60 -89 27 -206q-33 -119 -140 -192q-101 -68 -236 -68l-11 -64h-22l11 64q-175 0 -249 109q-60 88 -28 205q32 118 139 192q102 69 239 69zM527 617l-94 -532q170 0 275 110q83 87 85 196q2 112 -83 174q-70 52 -183 52z
M411 85l94 532q-173 0 -278 -110q-83 -87 -84 -196q-2 -111 83 -174q71 -52 185 -52z" />
    <glyph glyph-name="afii10039" unicode="&#x425;" horiz-adv-x="638" 
d="M690 700l-301 -351l181 -349h-24l-172 333l-292 -333h-23l306 350l-176 351h24l167 -335l285 334h25z" />
    <glyph glyph-name="afii10040" unicode="&#x426;" horiz-adv-x="674" 
d="M549 20h40l-33 -182h-22l29 162h-447l123 700h22l-119 -680h385q80 454 119 680h22q-39 -226 -119 -680z" />
    <glyph glyph-name="afii10041" unicode="&#x427;" horiz-adv-x="630" 
d="M629 700l-123 -700h-22q9 51 27 153.5t27 153.5q-67 -29 -139 -32.5t-130.5 16t-90.5 70.5t-19 125l38 214h22l-38 -214q-12 -68 19.5 -114.5t87.5 -63t124.5 -11.5t129.5 32q11 62 32.5 185.5t32.5 185.5h22z" />
    <glyph glyph-name="afii10042" unicode="&#x428;" horiz-adv-x="1035" 
d="M245 700h22l-119 -680h361l119 680h22l-119 -680h361l119 680h22l-123 -700h-788z" />
    <glyph glyph-name="afii10043" unicode="&#x429;" horiz-adv-x="1034" 
d="M244 700h22l-119 -680h361l119 680h22l-119 -680h361q80 454 119 680h22q-39 -226 -119 -680h40l-33 -182h-22l29 162h-806z" />
    <glyph glyph-name="afii10044" unicode="&#x42a;" horiz-adv-x="624" 
d="M417 374h-159l-62 -353h159q111 5 178 90q56 71 45 148q-11 79 -90 105q-31 10 -71 10zM315 700l-54 -306h160q126 0 167 -86q34 -72 -7 -160q-42 -89 -133 -127q-46 -20 -97 -21h-181l120 681h-151l3 19h173z" />
    <glyph glyph-name="afii10045" unicode="&#x42b;" horiz-adv-x="768" 
d="M268 700l-54 -306h160q123 -3 163 -89q35 -73 -6 -161q-42 -89 -135 -126q-43 -17 -92 -18h-181l123 700h22zM370 374h-159l-62 -353h159q112 5 179 90q55 72 43 148q-14 79 -96 105q-29 9 -64 10zM626 0l123 700h22l-123 -700h-22z" />
    <glyph glyph-name="afii10046" unicode="&#x42c;" horiz-adv-x="577" 
d="M266 700l-54 -306h160q121 -3 165 -87q38 -73 1 -160q-37 -88 -127 -126q-51 -21 -109 -21h-181l123 700h22zM368 374h-159l-62 -353h159q118 0 185 84q55 69 42 147q-14 80 -93 109q-32 12 -72 13z" />
    <glyph glyph-name="afii10047" unicode="&#x42d;" horiz-adv-x="715" 
d="M199 593l-11 14q109 99 249 99q148 0 226 -98q59 -75 59 -201q0 -28 -2 -50.5t-8 -43t-9 -28.5t-12.5 -28t-9.5 -21q-22 -48 -61 -97q-38 -44 -85 -76q-48 -33 -105 -51q-55 -18 -119 -18q-76 0 -133 30t-95 88l17 13q25 -38 57 -61q32 -24 74 -37q41 -12 84 -12
q59 0 110 16q50 16 97 47q46 31 80 72q35 41 59 91q21 44 32 99h-402l4 19h402q20 146 -50 234q-73 93 -214 93q-131 0 -234 -93z" />
    <glyph glyph-name="afii10048" unicode="&#x42e;" horiz-adv-x="1040" 
d="M744 710q136 -2 216.5 -86t80.5 -216q0 -81 -41 -172q-20 -46 -57 -91q-32 -40 -72 -69q-42 -31 -82 -49q-37 -18 -87 -30q-44 -9 -85 -9q-52 0 -98 14q-78 22 -129 78t-64 136q-9 54 2 124h-124l-60 -340h-22l123 700h22l-60 -341h124q31 154 147 253q116 98 266 98z
M741 690q-142 0 -251 -93q-110 -93 -140 -249q-10 -67 -1 -123q14 -76 60.5 -129t119.5 -75q42 -13 91 -13t98 13q50 14 97 40q48 28 87 67q40 40 69 96q48 94 48 181q0 124 -75.5 204t-202.5 81z" />
    <glyph glyph-name="bgQ" unicode="&#x42f;" horiz-adv-x="605" 
d="M71 0l299 310h-24q-107 0 -150.5 53.5t-26.5 146.5q17 90 83 140t160 50h194l-123 -700h-22l54 309h-120l-298 -309h-26zM352 330h167l62 350h-171q-98 0 -161 -53.5t-63 -154.5q0 -142 166 -142z" />
    <glyph glyph-name="bga" unicode="&#x430;" horiz-adv-x="556" 
d="M452 93l28 159q-67 46 -150 46q-121 0 -184 -75q-49 -59 -31 -122q19 -66 101 -84q25 -5 54 -5q43 0 93.5 22t88.5 59zM458 0h-21l11 66q-78 -72 -182 -74q-119 -1 -161 73q-36 61 1 133q41 80 140 109q41 11 87 12q83 0 151 -45l10 55q15 85 -26.5 124t-117.5 39
q-79 0 -148 -43l-8 16q70 47 160 47q83 0 130.5 -45t31.5 -138z" />
    <glyph glyph-name="afii10066" unicode="&#x431;" horiz-adv-x="638" 
d="M135 376q43 168 147 247q104 78 274 78q70 0 79 48h17q-9 -65 -97 -65q-169 0 -266 -77q-94 -74 -137 -230q0 -2 -5.5 -21t-7.5 -26h1q12 26 22 43q42 66 110 101t139 35q89 0 150.5 -56.5t61.5 -156.5q0 -123 -92.5 -216t-212.5 -88q-76 0 -133.5 41.5t-73.5 111.5
q-18 69 24 231zM126 211q0 -29 3 -47q12 -69 65 -111t127 -42q116 0 198.5 82t82.5 199q0 92 -57 144.5t-139 53.5q-107 1 -193.5 -74.5t-86.5 -204.5z" />
    <glyph glyph-name="afii10067" unicode="&#x432;" horiz-adv-x="573" 
d="M107 0l89 507h195q41 0 74.5 -8t59 -32.5t25.5 -63.5q0 -52 -34.5 -89t-86.5 -50q49 -9 78 -49q17 -23 17 -60q0 -43 -19.5 -74.5t-52 -48t-68 -24.5t-74.5 -8h-203zM388 488h-175l-38 -216h168q65 0 95 11q39 14 65 45.5t26 70.5q0 89 -141 89zM340 255h-168l-42 -237
h183q32 0 63.5 6.5t61 21t47.5 42t18 64.5q0 31 -13 51q-15 23 -48 37q-35 15 -102 15z" />
    <glyph glyph-name="afii10068" unicode="&#x433;" horiz-adv-x="460" 
d="M105 0l89 507h312l-3 -20h-290q-16 -88 -44.5 -251.5t-41.5 -235.5h-22z" />
    <glyph glyph-name="afii10069" unicode="&#x434;" horiz-adv-x="625" 
d="M604 507l-86 -488h42l-27 -154h-23l24 135h-479l-24 -135h-23l27 154h29q50 24 73.5 75.5t37.5 130.5l50 282h379zM100 19h397l83 469h-337l-46 -263q-9 -46 -15.5 -73t-28 -68t-53.5 -65z" />
    <glyph glyph-name="afii10070" unicode="&#x435;" horiz-adv-x="611" 
d="M309 14q106 0 180 70l12 -14q-51 -44 -93 -60t-102 -16q-110 0 -164 82t-35 187q18 105 99 177.5t191 73.5q106 1 164.5 -76.5t28.5 -183.5h-463q-15 -100 36 -170t146 -70zM130 274h445q18 101 -38 159.5t-144 60.5q-93 -1 -167 -60.5t-96 -159.5z" />
    <glyph glyph-name="afii10072" unicode="&#x436;" horiz-adv-x="752" 
d="M453 507h21l-49 -282l319 282h27v-3l-249 -218l178 -286h-26l-169 272l-85 -72l-35 -200h-21l35 200l-59 72l-265 -272h-26q47 49 138.5 142.5t139.5 143.5l-170 219v2h26l221 -282z" />
    <glyph glyph-name="afii10073" unicode="&#x437;" horiz-adv-x="461" 
d="M450 402q0 -47 -37.5 -86t-87.5 -53q46 -9 74.5 -43.5t21.5 -81.5q-9 -74 -71.5 -110t-140.5 -36q-96 0 -158 53l14 16q59 -48 147 -48q78 0 134 34.5t56 100.5q0 30 -17.5 55t-46.5 37q-9 4 -21 7t-21 4.5t-25 2t-23 0.5h-25h-23l3 19q7 0 25 -0.5t28 0t25 1.5t28 3.5
t25 6.5q38 14 66 45.5t28 68.5q0 48 -42 72t-96 24q-70 1 -141 -43l-9 16q72 47 155 47q61 0 108 -28.5t47 -83.5z" />
    <glyph glyph-name="afii10074" unicode="&#x438;" horiz-adv-x="619" 
d="M579 480l-449 -480h-28l89 506h22l-85 -481l451 481h4h21l-89 -506h-21z" />
    <glyph glyph-name="afii10075" unicode="&#x439;" horiz-adv-x="619" 
d="M579 480l-449 -480h-28l89 506h22l-85 -481l451 481h4h21l-89 -506h-21zM320 653h18q0 -29 15.5 -48t38.5 -23.5t48 0.5t47.5 24t33.5 47h18q-21 -59 -74.5 -82.5t-99 0t-45.5 82.5z" />
    <glyph glyph-name="afii10076" unicode="&#x43a;" horiz-adv-x="509" 
d="M193 507h21l-49 -282l339 282h27l-252 -211l180 -296h-24l-173 282l-102 -82l-35 -200h-21z" />
    <glyph glyph-name="afii10077" unicode="&#x43b;" horiz-adv-x="565" 
d="M191 284q-1 -5 -6.5 -37t-7 -38.5t-7.5 -34t-10.5 -36.5t-13 -31t-18.5 -32.5t-23.5 -26.5t-31 -27.5t-38.5 -21.5l-8 18q19 9 34.5 19.5t27.5 24.5l21 24.5t17 30t12 29t9.5 34t7.5 33t7 37t6 35.5q30 171 39 223h343l-89 -507h-23l86 488h-298q-6 -34 -18 -102.5
t-18 -101.5z" />
    <glyph glyph-name="afii10078" unicode="&#x43c;" horiz-adv-x="692" 
d="M193 507h32l144 -381l279 381h31l-89 -507h-22l85 482l-273 -377h-28l-141 377l-85 -482h-22z" />
    <glyph glyph-name="afii10079" unicode="&#x43d;" horiz-adv-x="606" 
d="M195 507h22l-43 -244h351l43 244h22l-89 -507h-22l43 244h-351l-43 -244h-22z" />
    <glyph glyph-name="afii10080" unicode="&#x43e;" 
d="M121 210q0 -97 58.5 -148.5t136.5 -51.5q47 0 94.5 16.5t90 49t69.5 89t27 128.5q0 96 -59 149t-137 53q-46 0 -94 -17.5t-90 -51t-69 -90t-27 -126.5zM617 295q0 -136 -91.5 -219.5t-212.5 -83.5q-92 0 -152.5 59.5t-60.5 157.5q0 130 93 217t211 87q93 0 153 -59.5
t60 -158.5z" />
    <glyph glyph-name="afii10081" unicode="&#x43f;" horiz-adv-x="603" 
d="M105 0l89 507h395l-89 -507h-22l86 488h-351l-86 -488h-22z" />
    <glyph glyph-name="afii10082" unicode="&#x440;" horiz-adv-x="590" 
d="M284 -5q-94 0 -142 64l-46 -260h-22l125 708h21l-12 -68q83 81 199 69q109 -11 147 -111q36 -93 -6 -205q-42 -115 -139 -166q-58 -31 -125 -31zM395 489q-51 7 -103 -15t-89 -63l-57 -325q52 -75 155 -71q119 10 192 115q63 90 55 193q-9 105 -89 147q-29 15 -64 19z
" />
    <glyph glyph-name="afii10083" unicode="&#x441;" horiz-adv-x="534" 
d="M396 497q-91 1 -172 -62.5t-103 -185.5q-18 -100 34 -168t155 -68q94 0 171 57l9 -15q-80 -61 -183 -61q-98 0 -155 62.5t-57 154.5q0 126 88.5 215t216.5 90q99 0 157 -62l-15 -14q-52 57 -146 57z" />
    <glyph glyph-name="afii10084" unicode="&#x442;" horiz-adv-x="475" 
d="M129 488l3 19h389l-3 -19h-184l-86 -488h-22l86 488h-183z" />
    <glyph glyph-name="afii10085" unicode="&#x443;" horiz-adv-x="503" 
d="M70 -202l3 18q38 -2 59 10t43 49l69 122l-118 510h23l111 -484l273 484h22l-361 -637q-24 -44 -51 -59t-68 -13h-5z" />
    <glyph glyph-name="afii10086" unicode="&#x444;" horiz-adv-x="706" 
d="M126 253q-23 -141 69 -205q51 -36 149 -38l86 487q-97 -2 -162 -38q-116 -65 -142 -206zM451 497l-86 -487q96 2 161 38q73 40 109.5 106t36.5 142q0 62 -25.5 109.5t-77.5 69.5q-48 20 -118 22zM465 700h21l-32 -186q76 -2 123 -22q57 -24 86.5 -76.5t29.5 -119.5
q0 -81 -40.5 -150.5t-118.5 -113.5q-66 -37 -172 -39l-34 -194h-21l34 194q-104 2 -158 39q-103 72 -78 221q28 148 155 221q66 38 173 40z" />
    <glyph glyph-name="afii10087" unicode="&#x445;" horiz-adv-x="510" 
d="M302 269l208 238h24l-222 -253l137 -254h-25l-127 239l-210 -239h-24l225 254l-135 253h25z" />
    <glyph glyph-name="afii10088" unicode="&#x446;" horiz-adv-x="598" 
d="M559 507h22q-28 -162 -86 -488h42l-28 -154h-23l24 135h-413l89 507h22l-86 -488h351q63 354 86 488z" />
    <glyph glyph-name="afii10089" unicode="&#x447;" horiz-adv-x="564" 
d="M462 0h-22l36 206q-66 -29 -132.5 -33t-118 15.5t-78 70t-13.5 124.5l22 124h22l-22 -124q-12 -69 13.5 -115t75 -62.5t112 -11t123.5 32.5l49 280h22z" />
    <glyph glyph-name="afii10090" unicode="&#x448;" horiz-adv-x="914" 
d="M471 19h321l86 488h22l-89 -507h-706l89 507h22l-86 -488h321l86 488h20z" />
    <glyph glyph-name="afii10091" unicode="&#x449;" horiz-adv-x="919" 
d="M792 19q63 354 86 488h22q-28 -162 -86 -488h42l-29 -154h-23l24 135h-723l89 507h22l-86 -488h321l86 488h20l-86 -488h321z" />
    <glyph glyph-name="afii10092" unicode="&#x44a;" horiz-adv-x="626" 
d="M286 507q-7 -43 -38 -217h183q68 0 112 -29.5t44 -91.5q0 -86 -60.5 -127.5t-146.5 -41.5h-203l86 488h-141l3 19h161zM428 273h-183l-45 -255h183q76 0 130.5 36t54.5 112q0 54 -40 80t-100 27z" />
    <glyph glyph-name="afii10093" unicode="&#x44b;" horiz-adv-x="722" 
d="M102 0l89 507h20q-7 -43 -38 -217h183q69 0 113.5 -29.5t44.5 -91.5q0 -86 -61 -127.5t-148 -41.5h-203zM353 273h-183l-45 -255h183q77 0 132 36t55 112q0 54 -40.5 80t-101.5 27zM600 0l89 507h22l-89 -507h-22z" />
    <glyph glyph-name="afii10094" unicode="&#x44c;" horiz-adv-x="553" 
d="M102 0l89 507h20q-7 -43 -38 -217h183q69 0 113.5 -29.5t44.5 -91.5q0 -86 -61 -127.5t-148 -41.5h-203zM353 273h-183l-45 -255h183q77 0 132 36t55 112q0 54 -40.5 80t-101.5 27z" />
    <glyph glyph-name="afii10095" unicode="&#x44d;" horiz-adv-x="518" 
d="M304 496q-89 0 -161 -57l-11 14q81 63 174 62q111 -2 166 -76q40 -54 40 -145q0 -124 -86.5 -212t-210.5 -89q-48 0 -87 15q-40 15 -69 46l15 15q27 -29 65 -43q39 -14 80 -14q99 0 172.5 66t93.5 167h-291l3 18h291q13 97 -32 161q-52 72 -152 72z" />
    <glyph glyph-name="afii10096" unicode="&#x44e;" horiz-adv-x="805" 
d="M292 210q0 -71 29 -116q26 -40 70 -62t96 -22q70 0 134 35q75 41 111 107t36 142q0 85 -43 135q-57 66 -153 66q-68 0 -133 -37q-74 -41 -113 -116q-34 -64 -34 -132zM169 244l-43 -244h-21l89 507h21l-43 -244h105q14 56 38 96q42 72 116 114q68 40 144 40
q105 0 166 -70q47 -54 47 -148q0 -81 -40.5 -151.5t-119.5 -113.5q-66 -38 -144 -38q-124 2 -181 92q-42 66 -29 160h-105z" />
    <glyph glyph-name="bgq" unicode="&#x44f;" horiz-adv-x="546" 
d="M531 507l-89 -507h-20q26 143 41 235h-128l-256 -235h-25v2l254 233h-28q-151 0 -151 111q0 161 199 161h203zM284 253h183l41 237h-183q-177 -2 -177 -141q0 -96 136 -96z" />
    <glyph glyph-name="afii10071" unicode="&#x451;" horiz-adv-x="611" 
d="M309 14q106 0 180 70l12 -14q-51 -44 -93 -60t-102 -16q-110 0 -164 82t-35 187q18 106 99 178.5t191 73.5q106 1 164.5 -77t28.5 -184h-463q-15 -100 36 -170t146 -70zM130 274h445q18 101 -38 159.5t-144 60.5q-93 -1 -167 -60.5t-96 -159.5zM354 639h-34l6 37h34z
M527 639h-34l6 37h34z" />
    <glyph glyph-name="afii10099" unicode="&#x452;" horiz-adv-x="595" 
d="M137 598l4 18h72l14 84h22l-14 -84h147l-4 -18h-147l-27 -154q80 69 171 65q93 -4 143 -61t33 -154l-16 -90q-36 -200 -228 -205l3 19q85 6 135.5 48.5t67.5 137.5l16 90q13 71 -18 120.5t-83 65.5t-116 0.5t-113 -63.5l-74 -417h-21l105 598h-72z" />
    <glyph glyph-name="afii10100" unicode="&#x453;" horiz-adv-x="482" 
d="M105 0l89 507h335l-3 -20h-313q-16 -88 -44.5 -251.5t-41.5 -235.5h-22zM457 688l-81 -96h-19l73 96h27z" />
    <glyph glyph-name="afii10101" unicode="&#x454;" horiz-adv-x="518" 
d="M388 496q-101 0 -178 -72q-68 -64 -88 -161h291l-4 -18h-291q-16 -101 34 -167t150 -66q40 0 85 14q41 13 80 43l10 -15q-43 -32 -85 -46q-45 -15 -93 -15q-94 1 -150 61.5t-56 154.5q0 132 107 230q82 74 192 76q94 2 152 -62l-15 -14q-51 57 -141 57z" />
    <glyph glyph-name="afii10102" unicode="&#x455;" horiz-adv-x="439" 
d="M270 269q55 -11 89 -41t34 -78q0 -73 -54.5 -115t-124.5 -42q-97 0 -135 65l15 14q39 -59 123 -59q54 0 98 30.5t55 87.5q8 52 -24.5 81t-83.5 38q-54 9 -86 44t-23 87q11 61 60 96.5t110 35.5q64 0 104 -39l-12 -14q-23 19 -42.5 26.5t-50.5 7.5q-61 0 -105.5 -35
t-44.5 -95q0 -42 29 -65t69 -30z" />
    <glyph glyph-name="afii10103" unicode="&#x456;" horiz-adv-x="241" 
d="M131 0h-22l90 508h22zM255 700l-14 -84h-23l14 84h23z" />
    <glyph glyph-name="afii10104" unicode="&#x457;" horiz-adv-x="241" 
d="M131 0h-22l90 508h22zM169 661h-34l6 37h34zM342 661h-34l6 37h34z" />
    <glyph glyph-name="afii10105" unicode="&#x458;" horiz-adv-x="241" 
d="M-43 -201l3 19q118 0 136 106l103 583h22l-103 -583q-12 -64 -55 -95.5t-106 -29.5zM256 700l-15 -84h-23l15 84h23z" />
    <glyph glyph-name="afii10106" unicode="&#x459;" horiz-adv-x="840" 
d="M155 284l39 223h304l-38 -217h183q69 0 113.5 -29.5t44.5 -91.5q0 -86 -61 -127.5t-148 -41.5h-203l86 488h-262l-36 -204q-1 -5 -6.5 -37t-7 -38.5t-7.5 -34t-10.5 -36.5t-13 -31t-18.5 -32.5t-23.5 -26.5t-31 -27.5t-38.5 -21.5l-8 18q19 9 34.5 19.5t27.5 24.5
l21 24.5t17 30t12 29t9.5 34t7.5 33t7 37t6 35.5zM640 273h-183l-45 -255h183q77 0 132 36t55 112q0 54 -40.5 80t-101.5 27z" />
    <glyph glyph-name="afii10107" unicode="&#x45a;" horiz-adv-x="887" 
d="M526 507h20l-40 -228h183q70 0 114.5 -27.5t44.5 -88.5q0 -86 -60 -124.5t-148 -38.5h-203l46 261h-312l-46 -261h-22l89 507h22l-40 -228h312zM686 262h-183l-43 -244h183q79 0 132.5 33t53.5 109q0 100 -143 102z" />
    <glyph glyph-name="afii10108" unicode="&#x45b;" horiz-adv-x="594" 
d="M137 598l4 18h72l14 84h22l-14 -84h147l-4 -18h-147l-27 -154q80 69 171 65q93 -4 143 -61t33 -154l-52 -294h-22l52 294q13 71 -18 120.5t-83 65.5t-116 0.5t-113 -63.5l-74 -417h-21l105 598h-72z" />
    <glyph glyph-name="afii10109" unicode="&#x45c;" horiz-adv-x="509" 
d="M193 507h21l-49 -282l339 282h27l-252 -211l180 -296h-24l-173 282l-102 -82l-35 -200h-21zM458 695l-81 -96h-19l73 96h27z" />
    <glyph glyph-name="afii10110" unicode="&#x45e;" horiz-adv-x="503" 
d="M73 -184l-3 -18h5q42 0 69 14.5t50 57.5l361 637h-22l-273 -484l-111 484h-23l118 -510l-69 -122q-22 -37 -43 -49t-59 -10zM269 692h17q0 -28 14.5 -46.5t37 -23t47 0.5t46 23.5t32.5 45.5h17q-12 -34 -38 -57.5t-55 -29t-56.5 0t-45 29t-16.5 57.5z" />
    <glyph glyph-name="afii10193" unicode="&#x45f;" horiz-adv-x="601" 
d="M271 -109l19 109h-186l89 507h22l-86 -488h351l86 488h22l-89 -507h-189l-19 -109h-20z" />
    <glyph glyph-name="afii10050" unicode="&#x490;" horiz-adv-x="509" 
d="M594 797l-21 -117h-309l-120 -680h-21l123 700h310l18 97h20z" />
    <glyph glyph-name="afii10098" unicode="&#x491;" horiz-adv-x="483" 
d="M105 0l89 507h315l17 94h20l-20 -114h-313l-86 -487h-22z" />
    <glyph glyph-name="uni1E9E" unicode="&#x1e9e;" horiz-adv-x="572" 
d="M405 379v-1q76 -9 110 -65.5t22 -120.5q-11 -61 -46 -106t-81 -64.5t-98.5 -25t-98.5 13.5l3 21q35 -15 76 -15q102 0 163.5 59.5t61.5 139.5q0 63 -42 107t-121 44h-50l3 22h50q72 1 118.5 49t53.5 105q11 65 -26.5 104.5t-96.5 39.5q-64 0 -116.5 -38.5t-65.5 -111.5
l-95 -536h-22l95 536q13 78 74.5 124t132.5 46q61 0 103 -37t42 -101q0 -32 -10.5 -65.5t-46 -71t-92.5 -52.5z" />
    <glyph glyph-name="thinspace" unicode="&#x2009;" horiz-adv-x="14" 
 />
    <glyph glyph-name="endash" unicode="&#x2013;" horiz-adv-x="697" 
d="M158 271l4 21h478l-4 -21h-478z" />
    <glyph glyph-name="emdash" unicode="&#x2014;" horiz-adv-x="867" 
d="M161 290l-3 -19h645l3 19h-645zM144 259l8 43h669l-8 -43h-669z" />
    <glyph glyph-name="afii00208" unicode="&#x2015;" horiz-adv-x="867" 
d="M161 290l-3 -19h645l3 19h-645zM144 259l8 43h669l-8 -43h-669z" />
    <glyph glyph-name="quoteleft" unicode="&#x2018;" horiz-adv-x="237" 
d="M282 700l-80 -171h-29l90 171h19z" />
    <glyph glyph-name="quoteright" unicode="&#x2019;" horiz-adv-x="223" 
d="M174 529l76 171h26l-84 -171h-18z" />
    <glyph glyph-name="quotesinglbase" unicode="&#x201a;" horiz-adv-x="242" 
d="M40 -112l80 155h27l-88 -155h-19z" />
    <glyph glyph-name="quotedblleft" unicode="&#x201c;" horiz-adv-x="305" 
d="M271 700l-80 -171h-29l90 171h19zM363 700l-80 -171h-29l90 171h19z" />
    <glyph glyph-name="quotedblright" unicode="&#x201d;" horiz-adv-x="294" 
d="M264 528l80 171h29l-90 -171h-19zM172 528l80 171h29l-90 -171h-19z" />
    <glyph glyph-name="quotedblbase" unicode="&#x201e;" horiz-adv-x="337" 
d="M40 -112l80 155h27l-88 -155h-19zM150 -112l80 155h27l-88 -155h-19z" />
    <glyph glyph-name="dagger" unicode="&#x2020;" horiz-adv-x="429" 
d="M187 -42l89 502h-147l3 17h147l39 222h19l-39 -222h153l-3 -17h-153l-89 -502h-19z" />
    <glyph glyph-name="daggerdbl" unicode="&#x2021;" horiz-adv-x="445" 
d="M311 462l-46 -261h143l-3 -18h-143l-40 -225h-19l40 225h-148l3 18h148l46 261h-144l3 18h144l39 218h19l-39 -218h149l-3 -18h-149z" />
    <glyph glyph-name="bullet" unicode="&#x2022;" horiz-adv-x="368" 
d="M218 197q-34 0 -55 23t-21 57q0 43 32.5 75.5t76.5 32.5q33 0 54 -23t21 -57q0 -43 -33 -75.5t-75 -32.5z" />
    <glyph glyph-name="ellipsis" unicode="&#x2026;" horiz-adv-x="559" 
d="M133 0h-34l8 45h34zM301 0h-34l8 45h34zM472 0h-34l8 45h34z" />
    <glyph glyph-name="perthousand" unicode="&#x2030;" horiz-adv-x="1074" 
d="M469 582q0 -67 -52.5 -116.5t-118.5 -49.5q-52 0 -86 35t-34 88q0 68 52 117t119 49q52 0 86 -35t34 -88zM722 716h24q-87 -113 -277 -354.5t-289 -372.5h-25q83 108 274.5 350.5t292.5 376.5zM449 580q0 46 -28.5 76t-74.5 30q-59 0 -102.5 -43t-43.5 -102
q0 -45 28 -75.5t74 -30.5q59 0 103 43.5t44 101.5zM713 160q0 -66 -52.5 -116t-118.5 -50q-52 0 -86 35t-34 88q0 68 52 117t119 49q52 0 86 -35t34 -88zM692 158q0 46 -28.5 76t-74.5 30q-59 0 -102.5 -43t-43.5 -102q0 -45 28 -75.5t74 -30.5q59 0 103 43.5t44 101.5z
M1038 160q0 -66 -52.5 -116t-118.5 -50q-52 0 -86 35t-34 88q0 68 52 117t119 49q52 0 86 -35t34 -88zM1017 158q0 46 -28.5 76t-74.5 30q-59 0 -102.5 -43t-43.5 -102q0 -45 28 -75.5t74 -30.5q59 0 103 43.5t44 101.5z" />
    <glyph glyph-name="guilsinglleft" unicode="&#x2039;" horiz-adv-x="351" 
d="M253 89l-121 193l190 196h27l-192 -196l123 -193h-27z" />
    <glyph glyph-name="guilsinglright" unicode="&#x203a;" horiz-adv-x="356" 
d="M318 282l-189 -193h-27l191 193l-122 196h27z" />
    <glyph glyph-name="fraction" unicode="&#x2044;" horiz-adv-x="178" 
d="M-86 -33h-20q46 70 216 333.5t262 402.5h21z" />
    <glyph glyph-name="zerosuperior" unicode="&#x2070;" horiz-adv-x="438" 
d="M212 707l-25 -138q-17 -77 43 -110q55 -31 122 -7q72 25 92 93l5 24l25 138q17 78 -44 113q-53 30 -120 7q-72 -25 -92 -93q-4 -13 -6 -27zM165 569l25 138q16 92 99 131q71 34 137 7q69 -27 73 -101q0 -18 -3 -37l-25 -138q-14 -91 -96 -129q-71 -33 -140 -7
q-68 27 -73 96q-1 19 3 40z" />
    <glyph glyph-name="foursuperior" unicode="&#x2074;" horiz-adv-x="402" 
d="M457 851l-52 -298h46l-4 -21h-46l-18 -100h-22l18 100h-218l-12 23l273 296h35zM173 553h211l50 283z" />
    <glyph glyph-name="fivesuperior" unicode="&#x2075;" horiz-adv-x="438" 
d="M480 831h-189l-63 -172q53 22 106 23.5t92.5 -29t39.5 -83.5q0 -72 -54.5 -115.5t-125.5 -42.5q-45 1 -75 15.5t-48 50.5l15 10q30 -57 112 -57q69 0 113 38.5t44 95.5q0 45 -34 72.5t-81 27.5q-63 0 -125 -32q-1 0 -3 1l75 214h204z" />
    <glyph glyph-name="sixsuperior" unicode="&#x2076;" horiz-adv-x="430" 
d="M427 866l-170 -187q46 23 88 23q49 0 84 -29.5t35 -82.5q0 -69 -54.5 -113.5t-119.5 -44.5q-52 0 -88 31.5t-36 85.5q0 52 55 115q32 36 96 106.5t86 95.5h24zM334 682q-58 0 -102.5 -37t-44.5 -95q0 -46 29.5 -72t77.5 -26q60 0 104 37.5t44 99.5q0 46 -30 69.5
t-78 23.5z" />
    <glyph glyph-name="sevensuperior" unicode="&#x2077;" horiz-adv-x="362" 
d="M177 426l273 398h-224l4 20h233l10 -19l-274 -399h-22z" />
    <glyph glyph-name="eightsuperior" unicode="&#x2078;" horiz-adv-x="408" 
d="M214 734q0 56 42.5 89.5t96.5 33.5q42 0 71.5 -24t29.5 -67q0 -34 -25 -65.5t-65 -43.5q72 -17 72 -92q0 -65 -48.5 -103t-110.5 -38q-49 0 -82.5 27t-33.5 77q0 42 31 82.5t76 47.5q-54 19 -54 76zM350 840q-51 0 -84 -32.5t-33 -69.5q0 -30 22.5 -51t63.5 -21
q53 0 84.5 28.5t31.5 66.5q0 32 -22 55.5t-63 23.5zM316 648q-56 0 -95.5 -31t-39.5 -86q0 -42 28.5 -65.5t70.5 -23.5q53 0 95 32.5t42 88.5q0 39 -28.5 62t-72.5 23z" />
    <glyph glyph-name="ninesuperior" unicode="&#x2079;" horiz-adv-x="426" 
d="M232 421l170 187q-47 -23 -88 -23q-49 0 -84 29.5t-35 82.5q0 69 54.5 113.5t119.5 44.5q52 0 88 -31.5t36 -85.5q0 -52 -55 -115q-28 -32 -90.5 -100.5t-91.5 -101.5h-24zM324 605q58 0 102.5 37t44.5 95q0 46 -29 72t-77 26q-60 0 -104.5 -37.5t-44.5 -99.5
q0 -46 30 -69.5t78 -23.5z" />
    <glyph glyph-name="zeroinferior" unicode="&#x2080;" horiz-adv-x="432" 
d="M115 128l-25 -138q-17 -77 43 -110q55 -31 122 -7q72 25 92 93l5 24l25 138q17 78 -44 113q-53 30 -120 7q-72 -25 -92 -93zM68 -10l25 138q16 92 99 131q71 34 137 7q69 -27 73 -101q0 -18 -3 -37l-25 -138q-14 -91 -96 -129q-71 -33 -140 -7q-68 27 -73 96q-1 19 3 40z
" />
    <glyph glyph-name="oneinferior" unicode="&#x2081;" horiz-adv-x="289" 
d="M126 -149l69 390h-64l3 19h85l-72 -409h-21z" />
    <glyph glyph-name="twoinferior" unicode="&#x2082;" horiz-adv-x="415" 
d="M302 63l-225 -185h250l-4 -21h-269l-8 20q68 55 123 101t80 66.5t43 34.5q43 35 52.5 74.5t-15 67.5t-73.5 32q-74 3 -128 -54l-14 12q61 66 147 62q56 -2 86 -36.5t18.5 -83.5t-63.5 -90z" />
    <glyph glyph-name="threeinferior" unicode="&#x2083;" horiz-adv-x="404" 
d="M331 -43q-11 -56 -59.5 -89t-104.5 -33q-81 0 -120 73l17 11q34 -63 109 -63q51 0 95 33t44 85q0 39 -27.5 62.5t-67.5 23.5h-37l3 19h37q46 0 80 25t34 71q0 37 -26.5 59t-64.5 22q-63 0 -108 -49l-12 11q54 58 123 58q45 0 77.5 -27t32.5 -71q0 -38 -27 -69.5
t-60 -38.5l-1 -1q37 -12 53.5 -45.5t9.5 -66.5z" />
    <glyph glyph-name="fourinferior" unicode="&#x2084;" horiz-adv-x="389" 
d="M348 267l-52 -298h46l-4 -21h-46l-18 -100h-22l18 100h-218l-12 23l273 296h35zM64 -31h211l50 283z" />
    <glyph glyph-name="fiveinferior" unicode="&#x2085;" horiz-adv-x="428" 
d="M379 258h-189l-63 -172q53 22 106 23.5t92.5 -29t39.5 -83.5q0 -72 -54.5 -117t-125.5 -44q-89 2 -123 69l15 10q31 -60 111 -60q69 0 113.5 40t44.5 97q0 45 -34 72.5t-81 27.5q-63 0 -125 -32h-1q-1 1 -2 1l75 214h204z" />
    <glyph glyph-name="sixinferior" unicode="&#x2086;" horiz-adv-x="428" 
d="M327 279l-170 -187q46 23 88 23q49 0 84 -29.5t35 -82.5q0 -69 -54.5 -113.5t-119.5 -44.5q-52 0 -88 31.5t-36 85.5q0 52 55 115q32 36 96 106.5t86 95.5h24zM234 95q-58 0 -102.5 -37t-44.5 -95q0 -46 29.5 -72t77.5 -26q60 0 104 37.5t44 99.5q0 46 -30 69.5t-78 23.5
z" />
    <glyph glyph-name="seveninferior" unicode="&#x2087;" horiz-adv-x="364" 
d="M61 -160l273 398h-224l4 20h233l10 -19l-274 -399h-22z" />
    <glyph glyph-name="eightinferior" unicode="&#x2088;" horiz-adv-x="399" 
d="M112 150q0 56 42.5 89.5t96.5 33.5q42 0 71 -24t29 -67q0 -34 -24.5 -66t-65.5 -43q73 -18 73 -92q0 -65 -48.5 -103t-111.5 -38q-49 0 -82.5 27t-33.5 77q0 42 31.5 82.5t76.5 47.5q-54 19 -54 76zM248 256q-51 0 -84.5 -32.5t-33.5 -69.5q0 -31 22.5 -51.5t64.5 -20.5
q52 0 84 28.5t32 66.5q0 32 -22 55.5t-63 23.5zM214 64q-57 0 -96.5 -31t-39.5 -86q0 -42 28.5 -65.5t70.5 -23.5q53 0 95.5 32.5t42.5 88.5q0 39 -28.5 62t-72.5 23z" />
    <glyph glyph-name="nineinferior" unicode="&#x2089;" horiz-adv-x="421" 
d="M129 -166l170 187q-47 -23 -88 -23q-49 0 -84 29.5t-35 82.5q0 69 54.5 113.5t119.5 44.5q51 0 87.5 -32t36.5 -85q0 -52 -55 -115q-29 -33 -91.5 -101t-90.5 -101h-24zM221 18q58 0 102.5 37t44.5 95q0 46 -29 72t-77 26q-60 0 -104.5 -37.5t-44.5 -99.5q0 -46 30 -69.5
t78 -23.5z" />
    <glyph glyph-name="Euro" unicode="&#x20ac;" horiz-adv-x="646" 
d="M150 426h55q36 127 143 203.5t229 74.5q79 -2 140 -35l-11 -18q-57 31 -131 33q-114 2 -214.5 -69t-135.5 -189h305l-7 -18h-303q-16 -46 -20 -100h284l-8 -19h-276q0 -124 66.5 -200t188.5 -76q87 0 165 42l4 -17q-88 -45 -172 -45q-133 0 -204 84t-69 212h-61l8 19h54
q6 61 20 100h-58z" />
    <glyph glyph-name="afii61352" unicode="&#x2116;" horiz-adv-x="1285" 
d="M581 12h2l121 688h22l-123 -701h-41l-287 688h-2l-121 -687h-22l124 701h40zM759 252q-10 -60 3 -108t42.5 -76.5t67 -43t78.5 -14.5q47 0 94.5 16.5t90.5 49t69.5 89t26.5 128.5q0 96 -59 149t-137 53q-56 0 -111.5 -24.5t-103 -82t-61.5 -136.5zM1246 252
q-21 -120 -106.5 -190t-192.5 -70q-92 0 -152.5 59.5t-60.5 157.5q0 130 93 217t211 87q106 0 167.5 -72.5t40.5 -188.5z" />
    <glyph glyph-name="trademark" unicode="&#x2122;" horiz-adv-x="836" 
d="M412 683h-108l-68 -384h-21l68 384h-105l3 17h234zM616 390l-109 297h-1l-69 -388h-20l71 401h37l106 -288l208 288h38l-71 -401h-21l69 388h-1l-215 -297h-22z" />
    <glyph glyph-name="minus" unicode="&#x2212;" horiz-adv-x="609" 
d="M120 285l4 20h487l-4 -20h-487z" />
    <glyph glyph-name="infinity" unicode="&#x221e;" horiz-adv-x="422" 
d="M248 237q-39 0 -65 28t-26 68q0 51 39.5 89t90.5 38q40 0 66 -27t26 -67q0 -51 -40 -90t-91 -39z" />
    <glyph glyph-name="approxequal" unicode="&#x2248;" horiz-adv-x="599" 
d="M564 366l12 -10q-101 -111 -217 -19q-34 26 -62 35t-61.5 -2t-71.5 -47l-10 10q59 62 112 62t109 -43q31 -26 59.5 -35t62 2t67.5 47zM544 253l12 -10q-101 -111 -217 -19q-34 26 -62 35t-61.5 -2t-71.5 -47l-10 10q59 62 112 62t109 -43q31 -26 59.5 -35t62 2t67.5 47z
" />
    <glyph glyph-name="notequal" unicode="&#x2260;" horiz-adv-x="616" 
d="M174 79l93 100h-121l3 16h132l158 179h-259l3 17h270l92 104l16 -5l-88 -99h107l-3 -17h-119l-158 -179h246l-3 -16h-257l-95 -105q-2 2 -8.5 3t-8.5 2z" />
    <glyph glyph-name="lessequal" unicode="&#x2264;" horiz-adv-x="502" 
d="M59 5l3 19h379l-3 -19h-379zM526 577l-5 -25l-374 -179l312 -175l-4 -25l-333 190l3 19z" />
    <glyph glyph-name="greaterequal" unicode="&#x2265;" horiz-adv-x="556" 
d="M476 24l-3 -19h-379l3 19h379zM204 553l4 24l331 -195l-3 -19l-399 -190l4 24l374 176z" />
    <glyph glyph-name="fontfabric" horiz-adv-x="1740" 
d="M1449 699h350l-31 -176h-14q-7 79 -41.5 121t-109.5 42h-59l-119 -674h110l-2 -13h-207zM732 12h234l-2 -13h-234zM1294 699h123l-2 -13l-121 -687h-32l-307 687h-104l2 13h215l236 -537h6l92 524h-110zM863 491q8 -37 8 -82q0 -19 -1.5 -37t-3 -30.5t-6.5 -27.5t-7 -22
t-9 -21t-8.5 -17.5t-10.5 -18t-10 -16.5q-54 -78 -91 -110q-68 -58 -128 -84t-137 -26h-6l2 13h6q127 0 197 84q35 38 56 104q3 10 12.5 39t13 40t10 36.5t9 43t5 43t2.5 52.5q0 88 -16 128q-25 104 -170 104h-6l2 13h6q101 0 178.5 -57.5t102.5 -150.5zM311 439
q3 8 15.5 30t21.5 42h7l-53 -305h-7q3 64 -21 107.5t-82 42.5h-65l2 13h57q46 0 74.5 15.5t50.5 54.5zM187 699h336l-29 -169h-6q-7 74 -41 115t-114 41h-148z" />
    <glyph glyph-name="zero.tnum" horiz-adv-x="611" 
d="M209 520l-60 -338q-14 -79 35 -123.5t125 -44.5q75 0 139 44.5t78 123.5l60 338q13 78 -37.5 123t-125.5 44q-74 -1 -137.5 -45.5t-76.5 -121.5zM128 182l60 338q15 85 85 135.5t153 51.5q86 2 141.5 -48.5t39.5 -138.5l-60 -338q-14 -86 -85 -137.5t-157 -51.5
q-87 -2 -140.5 50t-36.5 139z" />
    <glyph glyph-name="one.tnum" horiz-adv-x="310" 
d="M275 680h-78l3 20h99l-123 -700h-21z" />
    <glyph glyph-name="two.tnum" horiz-adv-x="569" 
d="M407 684q-113 4 -188 -99q-2 1 -6 4t-7 5l-2 1q75 109 205 109q78 0 119.5 -42.5t41.5 -105.5q0 -98 -101 -190l-361 -347h391l-4 -19h-399l-12 21q57 54 184 178t191 184q89 83 89 172q0 56 -35.5 92.5t-105.5 36.5z" />
    <glyph glyph-name="three.tnum" horiz-adv-x="559" 
d="M95 104l18 11q42 -100 158 -100q48 0 96 23t83 72t35 112t-40 106t-98 43h-47l4 20h47q71 0 123.5 45.5t52.5 122.5q0 61 -40.5 94.5t-99.5 33.5q-44 0 -90.5 -21t-76.5 -57l-13 10q33 43 83 65.5t101 22.5q65 0 111 -38.5t46 -107.5q0 -53 -34.5 -106t-107.5 -75
q52 -19 76.5 -62.5t24.5 -93.5q0 -99 -76 -164.5t-164 -65.5q-126 0 -172 110z" />
    <glyph glyph-name="four.tnum" horiz-adv-x="542" 
d="M538 701l-90 -514h62l-4 -20h-62l-29 -167h-21l29 167h-331l-10 21l421 513h35zM427 187l88 499l-411 -499h323z" />
    <glyph glyph-name="five.tnum" horiz-adv-x="581" 
d="M101 97l17 13q24 -46 68.5 -71t98.5 -25q107 0 174 74t67 166q0 68 -43 117.5t-123 49.5q-87 0 -178 -47h-6l103 326h303l-3 -20h-286l-88 -275q74 36 161 36t134.5 -55t47.5 -130q0 -105 -75 -183.5t-193 -78.5q-56 0 -106 27.5t-73 75.5z" />
    <glyph glyph-name="six.tnum" horiz-adv-x="603" 
d="M493 700l-248 -308q64 48 138 48q90 0 136 -55t46 -131q0 -97 -74 -178t-187 -81q-87 0 -133.5 55t-46.5 134q0 86 65 167q35 43 131.5 164t148.5 185h24zM379 421q-79 0 -147 -59.5t-82 -140.5q-15 -81 26.5 -144t131.5 -63q100 0 167 75t67 160q0 68 -42.5 120
t-120.5 52z" />
    <glyph glyph-name="seven.tnum" horiz-adv-x="493" 
d="M550 679h-382l3 21h394l10 -18l-467 -682h-25z" />
    <glyph glyph-name="eight.tnum" horiz-adv-x="587" 
d="M289 -10q-71 0 -121 45.5t-50 123.5q0 68 50 134t131 85q-46 19 -69 56t-23 80q0 88 65 141.5t144 53.5q61 0 104 -38t43 -105q0 -55 -39 -110.5t-108 -76.5q71 -22 98 -75.5t16 -113.5q-16 -89 -88.5 -144.5t-152.5 -55.5zM412 689q-78 0 -130.5 -52.5t-52.5 -116.5
q0 -52 34.5 -92.5t95.5 -40.5q77 0 129.5 55.5t52.5 117.5q0 54 -33.5 91.5t-95.5 37.5zM356 369q-91 0 -154 -66t-63 -141q0 -63 40 -108t114 -44q95 1 157 64t62 141q0 62 -41 108t-115 46z" />
    <glyph glyph-name="nine.tnum" horiz-adv-x="605" 
d="M238 0l247 309q-64 -48 -137 -48q-90 0 -136 55t-46 131q0 97 73.5 178t186.5 81q87 0 134 -55t47 -134q0 -87 -64 -167q-46 -57 -140.5 -175t-140.5 -175h-24zM351 280q79 0 147 59.5t82 140.5q15 81 -26 144t-131 63q-100 0 -167 -75t-67 -160q0 -68 42 -120t120 -52z
" />
    <glyph glyph-name="zero.p_osf" horiz-adv-x="611" 
d="M176 335l-27 -153q-14 -79 35 -123.5t125 -44.5q75 0 139 44.5t78 123.5l27 153q13 78 -37.5 123t-124.5 44q-48 -1 -92.5 -19.5t-79 -57t-43.5 -90.5zM128 182l27 153q15 85 85 135.5t153 51.5q86 2 141.5 -48.5t39.5 -138.5l-27 -153q-14 -86 -85 -137.5t-157 -51.5
q-87 -2 -140.5 50t-36.5 139z" />
    <glyph glyph-name="one.p_osf" horiz-adv-x="308" 
d="M240 492h-78l3 20h99l-90 -512h-21z" />
    <glyph glyph-name="two.p_osf" horiz-adv-x="500" 
d="M335 513q-96 3 -160 -77l-13 11q66 86 175 86q69 0 105.5 -33.5t36.5 -85.5q0 -76 -81 -140l-301 -256h327l-3 -18h-348l-8 16l321 270q70 57 70 124q0 43 -30 73t-91 30z" />
    <glyph glyph-name="three.p_osf" horiz-adv-x="523" 
d="M56 -18l20 10q44 -91 156 -91q76 0 143 51.5t67 133.5q0 58 -40.5 97t-99.5 39h-47l4 20h47q70 0 121 40t51 109q0 56 -41 86.5t-100 30.5q-44 0 -89.5 -18.5t-75.5 -51.5l-13 11q33 38 82 58.5t100 20.5q66 0 112 -35t46 -99q0 -49 -33 -96.5t-104 -66.5
q52 -17 77.5 -57t25.5 -85q0 -90 -75 -149.5t-162 -59.5q-123 0 -172 102z" />
    <glyph glyph-name="four.p_osf" horiz-adv-x="536" 
d="M503 506l-79 -448h61l-4 -20h-61l-25 -144h-20l25 144h-331l-10 21l410 447h34zM404 58l76 432l-399 -432h323z" />
    <glyph glyph-name="five.p_osf" horiz-adv-x="525" 
d="M58 -13l17 11q23 -39 67.5 -60t96.5 -21q104 0 166.5 62t62.5 141q0 60 -42.5 104t-121.5 44q-84 0 -173 -41h-6l95 282h294l-3 -20h-277l-77 -232q72 31 152 31q86 0 133.5 -47t47.5 -116q0 -96 -70.5 -162.5t-185.5 -66.5q-54 0 -103.5 25t-72.5 66z" />
    <glyph glyph-name="six.p_osf" horiz-adv-x="594" 
d="M493 700l-248 -308q64 48 138 48q90 0 136 -55t46 -131q0 -97 -74 -178t-187 -81q-87 0 -133.5 55t-46.5 134q0 86 65 167q35 43 131.5 164t148.5 185h24zM379 421q-79 0 -147 -59.5t-82 -140.5q-15 -81 26.5 -144t131.5 -63q100 0 167 75t67 160q0 68 -42.5 120
t-120.5 52z" />
    <glyph glyph-name="seven.p_osf" horiz-adv-x="473" 
d="M497 492h-368l4 21h380l10 -18l-409 -593h-25z" />
    <glyph glyph-name="eight.p_osf" horiz-adv-x="561" 
d="M277 -15q-72 0 -122.5 40t-50.5 111q0 58 48 115.5t120 71.5q-39 11 -63 48.5t-24 76.5q0 73 63.5 120t139.5 47q61 0 104 -35.5t43 -94.5q0 -43 -35 -90.5t-101 -70.5q70 -19 96 -64.5t17 -97.5q-16 -82 -85 -129.5t-150 -47.5zM384 595q-77 0 -127.5 -44.5
t-50.5 -100.5q0 -45 35.5 -81.5t96.5 -36.5q75 0 126 48t51 101q0 47 -34 80.5t-97 33.5zM335 315q-90 0 -150 -55t-60 -119q0 -56 40.5 -96.5t114.5 -39.5q92 1 152.5 55.5t60.5 120.5q0 54 -42 94t-116 40z" />
    <glyph glyph-name="nine.p_osf" horiz-adv-x="570" 
d="M201 -173l235 294q-64 -48 -137 -48q-90 0 -136 55t-46 131q0 97 73.5 178t186.5 81q87 0 134 -55t47 -134q0 -87 -64 -167q-46 -57 -134.5 -167.5t-134.5 -167.5h-24zM302 92q79 0 147 59.5t82 140.5q15 81 -26 144t-131 63q-100 0 -167 -75t-67 -160q0 -68 42 -120
t120 -52z" />
    <glyph glyph-name="zero.t_osf" horiz-adv-x="608" 
d="M170 335l-27 -153q-14 -79 35 -123.5t125 -44.5q75 0 139 44.5t78 123.5l27 153q13 78 -37.5 123t-124.5 44q-48 -1 -92.5 -19.5t-79 -57t-43.5 -90.5zM122 182l27 153q15 85 85 135.5t153 51.5q86 2 141.5 -48.5t39.5 -138.5l-27 -153q-14 -86 -85 -137.5t-157 -51.5
q-87 -2 -140.5 50t-36.5 139z" />
    <glyph glyph-name="one.t_osf" horiz-adv-x="294" 
d="M240 492h-78l3 20h99l-90 -512h-21z" />
    <glyph glyph-name="two.t_osf" horiz-adv-x="524" 
d="M354 513q-96 3 -160 -77l-13 11q66 86 175 86q69 0 105.5 -33.5t36.5 -85.5q0 -76 -81 -140l-301 -256h327l-3 -18h-348l-8 16l321 270q70 57 70 124q0 43 -30 73t-91 30z" />
    <glyph glyph-name="three.t_osf" horiz-adv-x="521" 
d="M56 -18l20 10q44 -91 156 -91q76 0 143 51.5t67 133.5q0 58 -40.5 97t-99.5 39h-47l4 20h47q70 0 121 40t51 109q0 56 -41 86.5t-100 30.5q-44 0 -89.5 -18.5t-75.5 -51.5l-13 11q33 38 82 58.5t100 20.5q66 0 112 -35t46 -99q0 -49 -33 -96.5t-104 -66.5
q52 -17 77.5 -57t25.5 -85q0 -90 -75 -149.5t-162 -59.5q-123 0 -172 102z" />
    <glyph glyph-name="four.t_osf" horiz-adv-x="556" 
d="M509 506l-79 -448h61l-4 -20h-61l-25 -144h-20l25 144h-331l-10 21l410 447h34zM410 58l76 432l-399 -432h323z" />
    <glyph glyph-name="five.t_osf" horiz-adv-x="541" 
d="M59 -13l17 11q23 -39 67.5 -60t96.5 -21q104 0 166.5 62t62.5 141q0 60 -42.5 104t-121.5 44q-84 0 -173 -41h-6l95 282h294l-3 -20h-277l-77 -232q72 31 152 31q86 0 133.5 -47t47.5 -116q0 -96 -70.5 -162.5t-185.5 -66.5q-54 0 -103.5 25t-72.5 66z" />
    <glyph glyph-name="six.t_osf" horiz-adv-x="594" 
d="M489 700l-248 -308q64 48 138 48q90 0 136 -55t46 -131q0 -97 -74 -178t-187 -81q-87 0 -133.5 55t-46.5 134q0 86 65 167q35 43 131.5 164t148.5 185h24zM375 421q-79 0 -147 -59.5t-82 -140.5q-15 -81 26.5 -144t131.5 -63q100 0 167 75t67 160q0 68 -42.5 120
t-120.5 52z" />
    <glyph glyph-name="seven.t_osf" horiz-adv-x="517" 
d="M512 492h-359l4 21h371l10 -18l-409 -593h-25z" />
    <glyph glyph-name="eight.t_osf" horiz-adv-x="556" 
d="M277 -15q-72 0 -122.5 40t-50.5 111q0 58 48 115.5t120 71.5q-39 11 -63 48.5t-24 76.5q0 73 63.5 120t139.5 47q61 0 104 -35.5t43 -94.5q0 -43 -35 -90.5t-101 -70.5q70 -19 96 -64.5t17 -97.5q-16 -82 -85 -129.5t-150 -47.5zM384 595q-77 0 -127.5 -44.5
t-50.5 -100.5q0 -45 35.5 -81.5t96.5 -36.5q75 0 126 48t51 101q0 47 -34 80.5t-97 33.5zM335 315q-90 0 -150 -55t-60 -119q0 -56 40.5 -96.5t114.5 -39.5q92 1 152.5 55.5t60.5 120.5q0 54 -42 94t-116 40z" />
    <glyph glyph-name="nine.t_osf" horiz-adv-x="570" 
d="M195 -173l235 294q-64 -48 -137 -48q-90 0 -136 55t-46 131q0 97 73.5 178t186.5 81q87 0 134 -55t47 -134q0 -87 -64 -167q-46 -57 -134.5 -167.5t-134.5 -167.5h-24zM296 92q79 0 147 59.5t82 140.5q15 81 -26 144t-131 63q-100 0 -167 -75t-67 -160q0 -68 42 -120
t120 -52z" />
    <glyph glyph-name="dollar.osf" horiz-adv-x="542" 
d="M193 419q-5 -32 1.5 -53.5t30 -35.5t35 -18t47.5 -13q7 -2 10 -3l11 -2q36 -9 62.5 -20t53.5 -29.5t37.5 -48.5t2.5 -69q-10 -59 -70.5 -99t-136.5 -40l-14 -76h-19l14 75q-112 0 -158 98l18 11q24 -45 58.5 -67t94.5 -21q74 1 125.5 31.5t66.5 86.5q6 29 -1 53t-20 38
t-38 26.5t-42.5 18t-44.5 12.5q-36 9 -58 16.5t-48 24t-36 43t-3 63.5q11 62 65 97t126 40l12 68h19l-12 -68q117 -3 147 -77l-18 -10q-13 33 -51.5 50t-87.5 17q-66 0 -118.5 -31t-60.5 -88z" />
    <glyph glyph-name="cent.osf" horiz-adv-x="547" 
d="M282 -90l17 98q-88 8 -136 70.5t-48 145.5q0 106 79 193.5t196 99.5l16 93h18l-16 -93q88 -5 134 -54l-14 -15q-44 47 -131 47t-162 -65.5t-94 -168.5q-16 -90 33.5 -162t139.5 -70q45 1 81.5 12t77.5 42l10 -12q-66 -61 -166 -63l-17 -98h-18z" />
    <glyph glyph-name="sterling.osf" horiz-adv-x="564" 
d="M569 427l-17 -6q-19 106 -141 106q-64 0 -121 -47t-71 -125l-20 -113h225l-3 -17h-225l-37 -207h354l-3 -18h-431l3 18h57l37 207h-55l3 17h55l20 113q15 87 79 139t136 52q136 0 155 -119z" />
    <glyph glyph-name="yen.osf" horiz-adv-x="577" 
d="M600 514l-186 -242h90l-3 -15h-97l-77 -98l-2 -8h157l-2 -14h-158l-26 -145h-17l26 145h-158l2 14h157l2 8l-42 98h-98l3 15h91q-30 69 -52 122.5t-32.5 79t-17.5 40.5h24l137 -339q41 55 128 170t128 169h23z" />
    <glyph glyph-name="florin.osf" horiz-adv-x="470" 
d="M515 512l-3 -16q-63 1 -99.5 -35.5t-64.5 -116.5l-23 -65h113l-7 -17h-112l-112 -306q-57 -153 -194 -153h-18l6 19h17q118 0 168 137l112 303h-95l7 17h94l23 64q33 97 76.5 133.5t111.5 35.5z" />
    <glyph glyph-name="Euro.osf" horiz-adv-x="615" 
d="M124 353h48q21 72 75 127t120 81t138 26t129 -31l-10 -15q-57 28 -125 28t-128.5 -24.5t-109.5 -75t-69 -116.5h276l-7 -16h-274q-15 -39 -17 -83h258l-8 -18h-251q0 -104 62.5 -166t173.5 -62q79 0 146 35l6 -16q-78 -38 -156 -38q-120 0 -186.5 70t-66.5 177h-53l8 18
h48q4 51 16 83h-51z" />
    <glyph glyph-name="zero.numerator" horiz-adv-x="436" 
d="M186 557l-25 -138q-17 -77 43 -110q55 -31 122 -7q72 25 92 93l5 24l25 138q17 78 -44 113q-53 30 -120 7q-72 -25 -92 -93q-4 -13 -6 -27zM139 419l25 138q16 92 98 131q72 34 138 7q69 -28 72 -101q1 -18 -2 -37l-25 -138q-14 -91 -96 -129q-71 -33 -140 -7
q-68 27 -73 96q-1 19 3 40z" />
    <glyph glyph-name="one.numerator" horiz-adv-x="298" 
d="M193 295l68 386h-64l3 19h85l-71 -405h-21z" />
    <glyph glyph-name="two.numerator" horiz-adv-x="414" 
d="M378 493l-225 -185h250l-4 -21h-269l-8 20q68 55 123 101t80 66.5t43 34.5q43 35 52.5 74.5t-15 67.5t-73.5 32q-74 3 -128 -54l-14 12q61 66 147 62q56 -2 86 -36.5t18.5 -83.5t-63.5 -90z" />
    <glyph glyph-name="three.numerator" horiz-adv-x="404" 
d="M406 387q-11 -56 -59.5 -89t-104.5 -33q-81 0 -120 73l17 11q34 -63 109 -63q51 0 95 33t44 85q0 39 -27.5 62.5t-67.5 23.5h-37l3 19h37q46 0 80 25t34 71q0 37 -26.5 59t-64.5 22q-63 0 -108 -49l-12 11q54 58 123 58q45 0 77.5 -27t32.5 -71q0 -38 -27 -69.5
t-60 -38.5l-1 -1q37 -12 53.5 -45.5t9.5 -66.5z" />
    <glyph glyph-name="four.numerator" horiz-adv-x="402" 
d="M430 701l-53 -300h46l-3 -19h-46l-18 -100h-22l18 100h-218l-12 23l273 296h35zM145 401h211l51 285z" />
    <glyph glyph-name="five.numerator" horiz-adv-x="436" 
d="M454 683h-189l-63 -172q53 22 106 23.5t92.5 -29t39.5 -83.5q0 -72 -54.5 -115.5t-125.5 -42.5q-45 1 -75 15.5t-48 50.5l15 10q30 -57 112 -57q69 0 113 38.5t44 95.5q0 45 -34 72.5t-81 27.5q-63 0 -125 -32q-1 0 -3 1l75 214h204z" />
    <glyph glyph-name="six.numerator" horiz-adv-x="430" 
d="M401 700l-170 -187q46 23 88 23q49 0 84 -29.5t35 -82.5q0 -69 -54.5 -113.5t-119.5 -44.5q-52 0 -88 31.5t-36 85.5q0 52 55 115q32 36 96 106.5t86 95.5h24zM308 516q-58 0 -102.5 -37t-44.5 -95q0 -46 29.5 -72t77.5 -26q60 0 104 37.5t44 99.5q0 46 -30 69.5
t-78 23.5z" />
    <glyph glyph-name="seven.numerator" horiz-adv-x="338" 
d="M137 282l273 398h-224l4 20h233l10 -19l-274 -399h-22z" />
    <glyph glyph-name="eight.numerator" horiz-adv-x="408" 
d="M187 581q0 56 42.5 89.5t96.5 33.5q42 0 71.5 -24t29.5 -67q0 -34 -25 -65.5t-65 -43.5q72 -17 72 -92q0 -65 -48.5 -103t-110.5 -38q-50 0 -83 27t-33 77q0 42 31 82.5t76 47.5q-54 19 -54 76zM323 687q-51 0 -84 -32.5t-33 -69.5q0 -30 22.5 -51t63.5 -21
q53 0 84.5 28.5t31.5 66.5q0 32 -22 55.5t-63 23.5zM289 495q-56 0 -95.5 -31t-39.5 -86q0 -42 28.5 -65.5t70.5 -23.5q53 0 95 32.5t42 88.5q0 39 -28.5 62t-72.5 23z" />
    <glyph glyph-name="nine.numerator" horiz-adv-x="426" 
d="M205 269l170 187q-47 -23 -88 -23q-49 0 -84 29.5t-35 82.5q0 69 54.5 113.5t119.5 44.5q52 0 88 -31.5t36 -85.5q0 -52 -55 -115q-29 -32 -91 -100.5t-91 -101.5h-24zM297 453q58 0 102.5 37t44.5 95q0 46 -29 72t-77 26q-60 0 -104.5 -37.5t-44.5 -99.5q0 -46 30 -69.5
t78 -23.5z" />
    <glyph glyph-name="zero.denominator" horiz-adv-x="440" 
d="M142 279l-25 -138q-17 -77 43 -110q55 -31 122 -7q72 25 92 93l5 24l25 138q17 78 -44 113q-53 30 -120 7q-72 -25 -92 -93zM95 141l25 138q16 92 99 131q71 34 137 7q69 -27 73 -101q0 -18 -3 -37l-25 -138q-14 -91 -96 -129q-71 -33 -140 -7q-68 27 -73 96q-1 19 3 40z
" />
    <glyph glyph-name="one.denominator" horiz-adv-x="287" 
d="M141 -2l69 390h-64l3 19h85l-72 -409h-21z" />
    <glyph glyph-name="two.denominator" horiz-adv-x="415" 
d="M328 206l-225 -185h250l-4 -21h-269l-8 20q68 55 123 101t80 66.5t43 34.5q43 35 52.5 74.5t-15 67.5t-73.5 32q-74 3 -128 -54l-14 12q61 66 147 62q56 -2 86 -36.5t18.5 -83.5t-63.5 -90z" />
    <glyph glyph-name="three.denominator" horiz-adv-x="404" 
d="M358 112q-11 -56 -59.5 -89t-104.5 -33q-81 0 -120 73l17 11q34 -63 109 -63q51 0 95 33t44 85q0 39 -27.5 62.5t-67.5 23.5h-37l3 19h37q46 0 80 25t34 71q0 37 -26.5 59t-64.5 22q-63 0 -108 -49l-12 11q54 58 123 58q45 0 77.5 -27t32.5 -71q0 -38 -27 -69.5
t-60 -38.5l-1 -1q37 -12 53.5 -45.5t9.5 -66.5z" />
    <glyph glyph-name="four.denominator" horiz-adv-x="402" 
d="M380 417l-52 -298h46l-4 -21h-46l-18 -100h-22l18 100h-218l-12 23l273 296h35zM96 119h211l50 283z" />
    <glyph glyph-name="five.denominator" horiz-adv-x="438" 
d="M411 419h-189l-63 -172q53 22 106 23.5t92.5 -29t39.5 -83.5q0 -72 -54.5 -115.5t-125.5 -42.5q-45 1 -75 15.5t-48 50.5l15 10q30 -57 112 -57q69 0 113 38.5t44 95.5q0 45 -34 72.5t-81 27.5q-63 0 -125 -32l-1 1h-2l75 214h204z" />
    <glyph glyph-name="six.denominator" horiz-adv-x="429" 
d="M354 428l-170 -187q46 23 88 23q49 0 84 -29.5t35 -82.5q0 -69 -54.5 -113.5t-119.5 -44.5q-52 0 -88 31.5t-36 85.5q0 52 55 115q32 36 96 106.5t86 95.5h24zM261 244q-58 0 -102.5 -37t-44.5 -95q0 -46 29.5 -72t77.5 -26q60 0 104 37.5t44 99.5q0 46 -30 69.5
t-78 23.5z" />
    <glyph glyph-name="seven.denominator" horiz-adv-x="370" 
d="M88 0l273 398h-224l4 20h233l10 -19l-274 -399h-22z" />
    <glyph glyph-name="eight.denominator" horiz-adv-x="408" 
d="M139 305q0 56 42.5 89.5t95.5 33.5q42 0 71.5 -24t29.5 -67q0 -34 -25 -65.5t-65 -43.5q73 -18 73 -92q0 -65 -49 -103t-111 -38q-49 0 -82.5 27t-33.5 77q0 42 31 82.5t76 47.5q-53 19 -53 76zM274 411q-51 0 -84 -32.5t-33 -69.5q0 -31 22.5 -51.5t64.5 -20.5
q52 0 84 28.5t32 66.5q0 32 -22.5 55.5t-63.5 23.5zM241 219q-57 0 -96.5 -31t-39.5 -86q0 -42 28.5 -65.5t70.5 -23.5q53 0 95.5 32.5t42.5 88.5q0 39 -28.5 62t-72.5 23z" />
    <glyph glyph-name="nine.denominator" horiz-adv-x="424" 
d="M157 0l170 187q-47 -23 -88 -23q-49 0 -84 29.5t-35 82.5q0 69 54.5 113.5t119.5 44.5q52 0 88 -31.5t36 -85.5q0 -52 -55 -115q-29 -33 -91 -101.5t-91 -100.5h-24zM249 184q58 0 102.5 37t44.5 95q0 46 -29 72t-77 26q-60 0 -104.5 -37.5t-44.5 -99.5q0 -46 30 -69.5
t78 -23.5z" />
    </font>
</defs>
</svg>
